%TF.GenerationSoftware,KiCad,Pcbnew,9.0.0*%
%TF.CreationDate,2025-04-13T00:13:38+03:00*%
%TF.ProjectId,power distribution,706f7765-7220-4646-9973-747269627574,rev?*%
%TF.SameCoordinates,Original*%
%TF.FileFunction,Copper,L1,Top*%
%TF.FilePolarity,Positive*%
%FSLAX46Y46*%
G04 Gerber Fmt 4.6, Leading zero omitted, Abs format (unit mm)*
G04 Created by KiCad (PCBNEW 9.0.0) date 2025-04-13 00:13:38*
%MOMM*%
%LPD*%
G01*
G04 APERTURE LIST*
G04 Aperture macros list*
%AMRoundRect*
0 Rectangle with rounded corners*
0 $1 Rounding radius*
0 $2 $3 $4 $5 $6 $7 $8 $9 X,Y pos of 4 corners*
0 Add a 4 corners polygon primitive as box body*
4,1,4,$2,$3,$4,$5,$6,$7,$8,$9,$2,$3,0*
0 Add four circle primitives for the rounded corners*
1,1,$1+$1,$2,$3*
1,1,$1+$1,$4,$5*
1,1,$1+$1,$6,$7*
1,1,$1+$1,$8,$9*
0 Add four rect primitives between the rounded corners*
20,1,$1+$1,$2,$3,$4,$5,0*
20,1,$1+$1,$4,$5,$6,$7,0*
20,1,$1+$1,$6,$7,$8,$9,0*
20,1,$1+$1,$8,$9,$2,$3,0*%
G04 Aperture macros list end*
%TA.AperFunction,ComponentPad*%
%ADD10O,1.950000X1.700000*%
%TD*%
%TA.AperFunction,ComponentPad*%
%ADD11RoundRect,0.250000X0.725000X-0.600000X0.725000X0.600000X-0.725000X0.600000X-0.725000X-0.600000X0*%
%TD*%
%TA.AperFunction,SMDPad,CuDef*%
%ADD12RoundRect,0.243750X-0.243750X-0.456250X0.243750X-0.456250X0.243750X0.456250X-0.243750X0.456250X0*%
%TD*%
%TA.AperFunction,ComponentPad*%
%ADD13C,1.400000*%
%TD*%
%TA.AperFunction,ComponentPad*%
%ADD14O,1.400000X1.400000*%
%TD*%
%TA.AperFunction,SMDPad,CuDef*%
%ADD15RoundRect,0.250000X-0.262500X-0.450000X0.262500X-0.450000X0.262500X0.450000X-0.262500X0.450000X0*%
%TD*%
%TA.AperFunction,Conductor*%
%ADD16C,0.200000*%
%TD*%
%TA.AperFunction,Conductor*%
%ADD17C,1.000000*%
%TD*%
G04 APERTURE END LIST*
D10*
%TO.P,J3,4,Pin_4*%
%TO.N,Net-(D3-K)*%
X89000000Y-102500000D03*
%TO.P,J3,3,Pin_3*%
%TO.N,Net-(D2-K)*%
X89000000Y-105000000D03*
%TO.P,J3,2,Pin_2*%
%TO.N,Net-(D1-K)*%
X89000000Y-107500000D03*
D11*
%TO.P,J3,1,Pin_1*%
%TO.N,Net-(J1-Pin_1)*%
X89000000Y-110000000D03*
%TD*%
D12*
%TO.P,D3,2,A*%
%TO.N,Net-(D3-A)*%
X39558750Y-101500000D03*
%TO.P,D3,1,K*%
%TO.N,Net-(D3-K)*%
X37683750Y-101500000D03*
%TD*%
%TO.P,D2,1,K*%
%TO.N,Net-(D2-K)*%
X37683750Y-106500000D03*
%TO.P,D2,2,A*%
%TO.N,Net-(D2-A)*%
X39558750Y-106500000D03*
%TD*%
%TO.P,D1,2,A*%
%TO.N,Net-(D1-A)*%
X39558750Y-111500000D03*
%TO.P,D1,1,K*%
%TO.N,Net-(D1-K)*%
X37683750Y-111500000D03*
%TD*%
D13*
%TO.P,REF\u002A\u002A,1*%
%TO.N,Net-(D3-A)*%
X45211250Y-101500000D03*
D14*
%TO.P,REF\u002A\u002A,2*%
%TO.N,Net-(J1-Pin_1)*%
X50291250Y-101500000D03*
%TD*%
D13*
%TO.P,REF\u002A\u002A,1*%
%TO.N,Net-(D2-A)*%
X45211250Y-106500000D03*
D14*
%TO.P,REF\u002A\u002A,2*%
%TO.N,Net-(J1-Pin_1)*%
X50291250Y-106500000D03*
%TD*%
D13*
%TO.P,REF\u002A\u002A,1*%
%TO.N,Net-(D3-K)*%
X36131250Y-101500000D03*
D14*
%TO.P,REF\u002A\u002A,2*%
%TO.N,Net-(D3-A)*%
X41211250Y-101500000D03*
%TD*%
D13*
%TO.P,REF\u002A\u002A,1*%
%TO.N,Net-(D2-K)*%
X36131250Y-106500000D03*
D14*
%TO.P,REF\u002A\u002A,2*%
%TO.N,Net-(D2-A)*%
X41211250Y-106500000D03*
%TD*%
D13*
%TO.P,REF\u002A\u002A,1*%
%TO.N,Net-(D1-K)*%
X36131250Y-111500000D03*
D14*
%TO.P,REF\u002A\u002A,2*%
%TO.N,Net-(D1-A)*%
X41211250Y-111500000D03*
%TD*%
D13*
%TO.P,REF\u002A\u002A,1*%
%TO.N,Net-(D1-A)*%
X45211250Y-111500000D03*
D14*
%TO.P,REF\u002A\u002A,2*%
%TO.N,Net-(J1-Pin_1)*%
X50291250Y-111500000D03*
%TD*%
D15*
%TO.P,R3,2*%
%TO.N,Net-(J1-Pin_1)*%
X48613750Y-101500000D03*
%TO.P,R3,1*%
%TO.N,Net-(D3-A)*%
X46788750Y-101500000D03*
%TD*%
%TO.P,R1,2*%
%TO.N,Net-(J1-Pin_1)*%
X48613750Y-111500000D03*
%TO.P,R1,1*%
%TO.N,Net-(D1-A)*%
X46788750Y-111500000D03*
%TD*%
%TO.P,R2,2*%
%TO.N,Net-(J1-Pin_1)*%
X48613750Y-106500000D03*
%TO.P,R2,1*%
%TO.N,Net-(D2-A)*%
X46788750Y-106500000D03*
%TD*%
D11*
%TO.P,J8,1,Pin_1*%
%TO.N,Net-(J1-Pin_1)*%
X264000000Y-110000000D03*
D10*
%TO.P,J8,2,Pin_2*%
%TO.N,Net-(D1-K)*%
X264000000Y-107500000D03*
%TO.P,J8,3,Pin_3*%
%TO.N,Net-(D2-K)*%
X264000000Y-105000000D03*
%TO.P,J8,4,Pin_4*%
%TO.N,Net-(D3-K)*%
X264000000Y-102500000D03*
%TD*%
D11*
%TO.P,J7,1,Pin_1*%
%TO.N,Net-(J1-Pin_1)*%
X229000000Y-110000000D03*
D10*
%TO.P,J7,2,Pin_2*%
%TO.N,Net-(D1-K)*%
X229000000Y-107500000D03*
%TO.P,J7,3,Pin_3*%
%TO.N,Net-(D2-K)*%
X229000000Y-105000000D03*
%TO.P,J7,4,Pin_4*%
%TO.N,Net-(D3-K)*%
X229000000Y-102500000D03*
%TD*%
D11*
%TO.P,J6,1,Pin_1*%
%TO.N,Net-(J1-Pin_1)*%
X194000000Y-109930000D03*
D10*
%TO.P,J6,2,Pin_2*%
%TO.N,Net-(D1-K)*%
X194000000Y-107430000D03*
%TO.P,J6,3,Pin_3*%
%TO.N,Net-(D2-K)*%
X194000000Y-104930000D03*
%TO.P,J6,4,Pin_4*%
%TO.N,Net-(D3-K)*%
X194000000Y-102430000D03*
%TD*%
D11*
%TO.P,J5,1,Pin_1*%
%TO.N,Net-(J1-Pin_1)*%
X159000000Y-109930000D03*
D10*
%TO.P,J5,2,Pin_2*%
%TO.N,Net-(D1-K)*%
X159000000Y-107430000D03*
%TO.P,J5,3,Pin_3*%
%TO.N,Net-(D2-K)*%
X159000000Y-104930000D03*
%TO.P,J5,4,Pin_4*%
%TO.N,Net-(D3-K)*%
X159000000Y-102430000D03*
%TD*%
D11*
%TO.P,J4,1,Pin_1*%
%TO.N,Net-(J1-Pin_1)*%
X124000000Y-109930000D03*
D10*
%TO.P,J4,2,Pin_2*%
%TO.N,Net-(D1-K)*%
X124000000Y-107430000D03*
%TO.P,J4,3,Pin_3*%
%TO.N,Net-(D2-K)*%
X124000000Y-104930000D03*
%TO.P,J4,4,Pin_4*%
%TO.N,Net-(D3-K)*%
X124000000Y-102430000D03*
%TD*%
D11*
%TO.P,J2,1,Pin_1*%
%TO.N,Net-(J1-Pin_1)*%
X54000000Y-110000000D03*
D10*
%TO.P,J2,2,Pin_2*%
%TO.N,Net-(D1-K)*%
X54000000Y-107500000D03*
%TO.P,J2,3,Pin_3*%
%TO.N,Net-(D2-K)*%
X54000000Y-105000000D03*
%TO.P,J2,4,Pin_4*%
%TO.N,Net-(D3-K)*%
X54000000Y-102500000D03*
%TD*%
D11*
%TO.P,J1,1,Pin_1*%
%TO.N,Net-(J1-Pin_1)*%
X30000000Y-110000000D03*
D10*
%TO.P,J1,2,Pin_2*%
%TO.N,Net-(D1-K)*%
X30000000Y-107500000D03*
%TO.P,J1,3,Pin_3*%
%TO.N,Net-(D2-K)*%
X30000000Y-105000000D03*
%TO.P,J1,4,Pin_4*%
%TO.N,Net-(D3-K)*%
X30000000Y-102500000D03*
%TD*%
D16*
%TO.N,Net-(D3-K)*%
X38631250Y-99000000D02*
X36131250Y-101500000D01*
X50500000Y-99000000D02*
X38631250Y-99000000D01*
X54000000Y-102500000D02*
X50500000Y-99000000D01*
X264000000Y-102500000D02*
X54000000Y-102500000D01*
X264000000Y-102500000D02*
X229000000Y-102500000D01*
%TO.N,Net-(D2-K)*%
X34000000Y-105000000D02*
X30000000Y-105000000D01*
X35500000Y-106500000D02*
X34000000Y-105000000D01*
X36131250Y-106500000D02*
X35500000Y-106500000D01*
%TO.N,Net-(D1-K)*%
X36131250Y-111500000D02*
X35975000Y-111500000D01*
X35975000Y-111500000D02*
X33475000Y-109000000D01*
%TO.N,Net-(D3-K)*%
X35131250Y-102500000D02*
X36131250Y-101500000D01*
X30000000Y-102500000D02*
X35131250Y-102500000D01*
D17*
%TO.N,Net-(D1-K)*%
X31975000Y-107500000D02*
X30000000Y-107500000D01*
X33475000Y-109000000D02*
X31975000Y-107500000D01*
X51000000Y-109000000D02*
X33475000Y-109000000D01*
X52500000Y-107500000D02*
X51000000Y-109000000D01*
X54000000Y-107500000D02*
X52500000Y-107500000D01*
X89000000Y-107500000D02*
X54000000Y-107500000D01*
X123500000Y-107500000D02*
X89000000Y-107500000D01*
X123570000Y-107430000D02*
X123500000Y-107500000D01*
X124000000Y-107430000D02*
X123570000Y-107430000D01*
X234070000Y-107500000D02*
X264000000Y-107500000D01*
X234000000Y-107430000D02*
X234070000Y-107500000D01*
X144000000Y-107430000D02*
X234000000Y-107430000D01*
D16*
%TO.N,Net-(D3-K)*%
X89070000Y-102430000D02*
X89000000Y-102500000D01*
D17*
%TO.N,Net-(D1-K)*%
X124000000Y-107430000D02*
X154000000Y-107430000D01*
D16*
%TO.N,Net-(D3-K)*%
X36131250Y-101500000D02*
X37683750Y-101500000D01*
%TO.N,Net-(D2-K)*%
X36131250Y-106500000D02*
X37683750Y-106500000D01*
%TO.N,Net-(D1-K)*%
X37683750Y-111500000D02*
X36131250Y-111500000D01*
%TO.N,Net-(D1-A)*%
X41211250Y-111500000D02*
X39558750Y-111500000D01*
X45211250Y-111500000D02*
X41211250Y-111500000D01*
X46788750Y-111500000D02*
X45211250Y-111500000D01*
%TO.N,Net-(D2-A)*%
X45211250Y-106500000D02*
X46788750Y-106500000D01*
X41211250Y-106500000D02*
X45211250Y-106500000D01*
X39558750Y-106500000D02*
X41211250Y-106500000D01*
%TO.N,Net-(D3-A)*%
X41211250Y-101500000D02*
X39558750Y-101500000D01*
X45211250Y-101500000D02*
X41211250Y-101500000D01*
X46788750Y-101500000D02*
X45211250Y-101500000D01*
%TO.N,Net-(J1-Pin_1)*%
X50291250Y-111500000D02*
X48613750Y-111500000D01*
X50291250Y-106500000D02*
X48613750Y-106500000D01*
X50291250Y-101500000D02*
X48613750Y-101500000D01*
X50291250Y-106500000D02*
X50291250Y-101500000D01*
%TD*%
M02*
