M48
; DRILL file {KiCad 9.0.0} date 2025-04-13T00:13:36+0300
; FORMAT={-:-/ absolute / metric / decimal}
; #@! TF.CreationDate,2025-04-13T00:13:36+03:00
; #@! TF.GenerationSoftware,Kicad,Pcbnew,9.0.0
; #@! TF.FileFunction,Plated,1,2,PTH
FMAT,2
METRIC
; #@! TA.AperFunction,Plated,PTH,ComponentDrill
T1C0.700
; #@! TA.AperFunction,Plated,PTH,ComponentDrill
T2C0.950
%
G90
G05
T1
X36.131Y-101.5
X36.131Y-106.5
X36.131Y-111.5
X41.211Y-101.5
X41.211Y-106.5
X41.211Y-111.5
X45.211Y-101.5
X45.211Y-106.5
X45.211Y-111.5
X50.291Y-101.5
X50.291Y-106.5
X50.291Y-111.5
T2
X30.0Y-102.5
X30.0Y-105.0
X30.0Y-107.5
X30.0Y-110.0
X54.0Y-102.5
X54.0Y-105.0
X54.0Y-107.5
X54.0Y-110.0
X89.0Y-102.5
X89.0Y-105.0
X89.0Y-107.5
X89.0Y-110.0
X124.0Y-102.43
X124.0Y-104.93
X124.0Y-107.43
X124.0Y-109.93
X159.0Y-102.43
X159.0Y-104.93
X159.0Y-107.43
X159.0Y-109.93
X194.0Y-102.43
X194.0Y-104.93
X194.0Y-107.43
X194.0Y-109.93
X229.0Y-102.5
X229.0Y-105.0
X229.0Y-107.5
X229.0Y-110.0
X264.0Y-102.5
X264.0Y-105.0
X264.0Y-107.5
X264.0Y-110.0
M30
