%TF.GenerationSoftware,KiCad,Pcbnew,9.0.0*%
%TF.CreationDate,2025-04-13T00:13:38+03:00*%
%TF.ProjectId,power distribution,706f7765-7220-4646-9973-747269627574,rev?*%
%TF.SameCoordinates,Original*%
%TF.FileFunction,Soldermask,Bot*%
%TF.FilePolarity,Negative*%
%FSLAX46Y46*%
G04 Gerber Fmt 4.6, Leading zero omitted, Abs format (unit mm)*
G04 Created by KiCad (PCBNEW 9.0.0) date 2025-04-13 00:13:38*
%MOMM*%
%LPD*%
G01*
G04 APERTURE LIST*
G04 Aperture macros list*
%AMRoundRect*
0 Rectangle with rounded corners*
0 $1 Rounding radius*
0 $2 $3 $4 $5 $6 $7 $8 $9 X,Y pos of 4 corners*
0 Add a 4 corners polygon primitive as box body*
4,1,4,$2,$3,$4,$5,$6,$7,$8,$9,$2,$3,0*
0 Add four circle primitives for the rounded corners*
1,1,$1+$1,$2,$3*
1,1,$1+$1,$4,$5*
1,1,$1+$1,$6,$7*
1,1,$1+$1,$8,$9*
0 Add four rect primitives between the rounded corners*
20,1,$1+$1,$2,$3,$4,$5,0*
20,1,$1+$1,$4,$5,$6,$7,0*
20,1,$1+$1,$6,$7,$8,$9,0*
20,1,$1+$1,$8,$9,$2,$3,0*%
G04 Aperture macros list end*
%ADD10O,1.950000X1.700000*%
%ADD11RoundRect,0.250000X0.725000X-0.600000X0.725000X0.600000X-0.725000X0.600000X-0.725000X-0.600000X0*%
%ADD12C,1.400000*%
%ADD13O,1.400000X1.400000*%
G04 APERTURE END LIST*
D10*
%TO.C,J3*%
X89000000Y-102500000D03*
X89000000Y-105000000D03*
X89000000Y-107500000D03*
D11*
X89000000Y-110000000D03*
%TD*%
D12*
%TO.C,REF\u002A\u002A*%
X45211250Y-101500000D03*
D13*
X50291250Y-101500000D03*
%TD*%
D12*
%TO.C,REF\u002A\u002A*%
X45211250Y-106500000D03*
D13*
X50291250Y-106500000D03*
%TD*%
D12*
%TO.C,REF\u002A\u002A*%
X36131250Y-101500000D03*
D13*
X41211250Y-101500000D03*
%TD*%
D12*
%TO.C,REF\u002A\u002A*%
X36131250Y-106500000D03*
D13*
X41211250Y-106500000D03*
%TD*%
D12*
%TO.C,REF\u002A\u002A*%
X36131250Y-111500000D03*
D13*
X41211250Y-111500000D03*
%TD*%
D12*
%TO.C,REF\u002A\u002A*%
X45211250Y-111500000D03*
D13*
X50291250Y-111500000D03*
%TD*%
D11*
%TO.C,J8*%
X264000000Y-110000000D03*
D10*
X264000000Y-107500000D03*
X264000000Y-105000000D03*
X264000000Y-102500000D03*
%TD*%
D11*
%TO.C,J7*%
X229000000Y-110000000D03*
D10*
X229000000Y-107500000D03*
X229000000Y-105000000D03*
X229000000Y-102500000D03*
%TD*%
D11*
%TO.C,J6*%
X194000000Y-109930000D03*
D10*
X194000000Y-107430000D03*
X194000000Y-104930000D03*
X194000000Y-102430000D03*
%TD*%
D11*
%TO.C,J5*%
X159000000Y-109930000D03*
D10*
X159000000Y-107430000D03*
X159000000Y-104930000D03*
X159000000Y-102430000D03*
%TD*%
D11*
%TO.C,J4*%
X124000000Y-109930000D03*
D10*
X124000000Y-107430000D03*
X124000000Y-104930000D03*
X124000000Y-102430000D03*
%TD*%
D11*
%TO.C,J2*%
X54000000Y-110000000D03*
D10*
X54000000Y-107500000D03*
X54000000Y-105000000D03*
X54000000Y-102500000D03*
%TD*%
D11*
%TO.C,J1*%
X30000000Y-110000000D03*
D10*
X30000000Y-107500000D03*
X30000000Y-105000000D03*
X30000000Y-102500000D03*
%TD*%
M02*
