%TF.GenerationSoftware,KiCad,Pcbnew,9.0.0*%
%TF.CreationDate,2025-04-13T00:13:38+03:00*%
%TF.ProjectId,power distribution,706f7765-7220-4646-9973-747269627574,rev?*%
%TF.SameCoordinates,Original*%
%TF.FileFunction,Copper,L2,Bot*%
%TF.FilePolarity,Positive*%
%FSLAX46Y46*%
G04 Gerber Fmt 4.6, Leading zero omitted, Abs format (unit mm)*
G04 Created by KiCad (PCBNEW 9.0.0) date 2025-04-13 00:13:38*
%MOMM*%
%LPD*%
G01*
G04 APERTURE LIST*
G04 Aperture macros list*
%AMRoundRect*
0 Rectangle with rounded corners*
0 $1 Rounding radius*
0 $2 $3 $4 $5 $6 $7 $8 $9 X,Y pos of 4 corners*
0 Add a 4 corners polygon primitive as box body*
4,1,4,$2,$3,$4,$5,$6,$7,$8,$9,$2,$3,0*
0 Add four circle primitives for the rounded corners*
1,1,$1+$1,$2,$3*
1,1,$1+$1,$4,$5*
1,1,$1+$1,$6,$7*
1,1,$1+$1,$8,$9*
0 Add four rect primitives between the rounded corners*
20,1,$1+$1,$2,$3,$4,$5,0*
20,1,$1+$1,$4,$5,$6,$7,0*
20,1,$1+$1,$6,$7,$8,$9,0*
20,1,$1+$1,$8,$9,$2,$3,0*%
G04 Aperture macros list end*
%TA.AperFunction,ComponentPad*%
%ADD10O,1.950000X1.700000*%
%TD*%
%TA.AperFunction,ComponentPad*%
%ADD11RoundRect,0.250000X0.725000X-0.600000X0.725000X0.600000X-0.725000X0.600000X-0.725000X-0.600000X0*%
%TD*%
%TA.AperFunction,ComponentPad*%
%ADD12C,1.400000*%
%TD*%
%TA.AperFunction,ComponentPad*%
%ADD13O,1.400000X1.400000*%
%TD*%
G04 APERTURE END LIST*
D10*
%TO.P,J3,4,Pin_4*%
%TO.N,Net-(D3-K)*%
X89000000Y-102500000D03*
%TO.P,J3,3,Pin_3*%
%TO.N,Net-(D2-K)*%
X89000000Y-105000000D03*
%TO.P,J3,2,Pin_2*%
%TO.N,Net-(D1-K)*%
X89000000Y-107500000D03*
D11*
%TO.P,J3,1,Pin_1*%
%TO.N,Net-(J1-Pin_1)*%
X89000000Y-110000000D03*
%TD*%
D12*
%TO.P,REF\u002A\u002A,1*%
%TO.N,Net-(D3-A)*%
X45211250Y-101500000D03*
D13*
%TO.P,REF\u002A\u002A,2*%
%TO.N,Net-(J1-Pin_1)*%
X50291250Y-101500000D03*
%TD*%
D12*
%TO.P,REF\u002A\u002A,1*%
%TO.N,Net-(D2-A)*%
X45211250Y-106500000D03*
D13*
%TO.P,REF\u002A\u002A,2*%
%TO.N,Net-(J1-Pin_1)*%
X50291250Y-106500000D03*
%TD*%
D12*
%TO.P,REF\u002A\u002A,1*%
%TO.N,Net-(D3-K)*%
X36131250Y-101500000D03*
D13*
%TO.P,REF\u002A\u002A,2*%
%TO.N,Net-(D3-A)*%
X41211250Y-101500000D03*
%TD*%
D12*
%TO.P,REF\u002A\u002A,1*%
%TO.N,Net-(D2-K)*%
X36131250Y-106500000D03*
D13*
%TO.P,REF\u002A\u002A,2*%
%TO.N,Net-(D2-A)*%
X41211250Y-106500000D03*
%TD*%
D12*
%TO.P,REF\u002A\u002A,1*%
%TO.N,Net-(D1-K)*%
X36131250Y-111500000D03*
D13*
%TO.P,REF\u002A\u002A,2*%
%TO.N,Net-(D1-A)*%
X41211250Y-111500000D03*
%TD*%
D12*
%TO.P,REF\u002A\u002A,1*%
%TO.N,Net-(D1-A)*%
X45211250Y-111500000D03*
D13*
%TO.P,REF\u002A\u002A,2*%
%TO.N,Net-(J1-Pin_1)*%
X50291250Y-111500000D03*
%TD*%
D11*
%TO.P,J8,1,Pin_1*%
%TO.N,Net-(J1-Pin_1)*%
X264000000Y-110000000D03*
D10*
%TO.P,J8,2,Pin_2*%
%TO.N,Net-(D1-K)*%
X264000000Y-107500000D03*
%TO.P,J8,3,Pin_3*%
%TO.N,Net-(D2-K)*%
X264000000Y-105000000D03*
%TO.P,J8,4,Pin_4*%
%TO.N,Net-(D3-K)*%
X264000000Y-102500000D03*
%TD*%
D11*
%TO.P,J7,1,Pin_1*%
%TO.N,Net-(J1-Pin_1)*%
X229000000Y-110000000D03*
D10*
%TO.P,J7,2,Pin_2*%
%TO.N,Net-(D1-K)*%
X229000000Y-107500000D03*
%TO.P,J7,3,Pin_3*%
%TO.N,Net-(D2-K)*%
X229000000Y-105000000D03*
%TO.P,J7,4,Pin_4*%
%TO.N,Net-(D3-K)*%
X229000000Y-102500000D03*
%TD*%
D11*
%TO.P,J6,1,Pin_1*%
%TO.N,Net-(J1-Pin_1)*%
X194000000Y-109930000D03*
D10*
%TO.P,J6,2,Pin_2*%
%TO.N,Net-(D1-K)*%
X194000000Y-107430000D03*
%TO.P,J6,3,Pin_3*%
%TO.N,Net-(D2-K)*%
X194000000Y-104930000D03*
%TO.P,J6,4,Pin_4*%
%TO.N,Net-(D3-K)*%
X194000000Y-102430000D03*
%TD*%
D11*
%TO.P,J5,1,Pin_1*%
%TO.N,Net-(J1-Pin_1)*%
X159000000Y-109930000D03*
D10*
%TO.P,J5,2,Pin_2*%
%TO.N,Net-(D1-K)*%
X159000000Y-107430000D03*
%TO.P,J5,3,Pin_3*%
%TO.N,Net-(D2-K)*%
X159000000Y-104930000D03*
%TO.P,J5,4,Pin_4*%
%TO.N,Net-(D3-K)*%
X159000000Y-102430000D03*
%TD*%
D11*
%TO.P,J4,1,Pin_1*%
%TO.N,Net-(J1-Pin_1)*%
X124000000Y-109930000D03*
D10*
%TO.P,J4,2,Pin_2*%
%TO.N,Net-(D1-K)*%
X124000000Y-107430000D03*
%TO.P,J4,3,Pin_3*%
%TO.N,Net-(D2-K)*%
X124000000Y-104930000D03*
%TO.P,J4,4,Pin_4*%
%TO.N,Net-(D3-K)*%
X124000000Y-102430000D03*
%TD*%
D11*
%TO.P,J2,1,Pin_1*%
%TO.N,Net-(J1-Pin_1)*%
X54000000Y-110000000D03*
D10*
%TO.P,J2,2,Pin_2*%
%TO.N,Net-(D1-K)*%
X54000000Y-107500000D03*
%TO.P,J2,3,Pin_3*%
%TO.N,Net-(D2-K)*%
X54000000Y-105000000D03*
%TO.P,J2,4,Pin_4*%
%TO.N,Net-(D3-K)*%
X54000000Y-102500000D03*
%TD*%
D11*
%TO.P,J1,1,Pin_1*%
%TO.N,Net-(J1-Pin_1)*%
X30000000Y-110000000D03*
D10*
%TO.P,J1,2,Pin_2*%
%TO.N,Net-(D1-K)*%
X30000000Y-107500000D03*
%TO.P,J1,3,Pin_3*%
%TO.N,Net-(D2-K)*%
X30000000Y-105000000D03*
%TO.P,J1,4,Pin_4*%
%TO.N,Net-(D3-K)*%
X30000000Y-102500000D03*
%TD*%
%TA.AperFunction,Conductor*%
%TO.N,Net-(D2-K)*%
G36*
X264919219Y-97069592D02*
G01*
X264920546Y-97069601D01*
X264931224Y-97069726D01*
X264934108Y-97070500D01*
X264996943Y-97070500D01*
X264997708Y-97070509D01*
X264997834Y-97070547D01*
X265003736Y-97070726D01*
X265293796Y-97088271D01*
X265308659Y-97090076D01*
X265590798Y-97141780D01*
X265605335Y-97145363D01*
X265879172Y-97230695D01*
X265893163Y-97236000D01*
X266154743Y-97353727D01*
X266167989Y-97360680D01*
X266413465Y-97509075D01*
X266425776Y-97517573D01*
X266651573Y-97694473D01*
X266662781Y-97704403D01*
X266865596Y-97907218D01*
X266875526Y-97918426D01*
X266995481Y-98071538D01*
X267052422Y-98144217D01*
X267060926Y-98156537D01*
X267159317Y-98319295D01*
X267209316Y-98402004D01*
X267216275Y-98415263D01*
X267333997Y-98676831D01*
X267339306Y-98690832D01*
X267424635Y-98964663D01*
X267428219Y-98979201D01*
X267479923Y-99261340D01*
X267481728Y-99276205D01*
X267499274Y-99566263D01*
X267499500Y-99573750D01*
X267499500Y-106832974D01*
X267490854Y-106862417D01*
X267484332Y-106892400D01*
X267481101Y-106895630D01*
X267479815Y-106900013D01*
X267456627Y-106920105D01*
X267434927Y-106941806D01*
X267429056Y-106943995D01*
X267427011Y-106945768D01*
X267401859Y-106954140D01*
X267293296Y-106977757D01*
X267275783Y-106980275D01*
X267004418Y-106999684D01*
X266995572Y-107000000D01*
X265461926Y-107000000D01*
X265394887Y-106980315D01*
X265351441Y-106932295D01*
X265338818Y-106907521D01*
X265280051Y-106792184D01*
X265280049Y-106792181D01*
X265280048Y-106792179D01*
X265155109Y-106620213D01*
X265004786Y-106469890D01*
X264832820Y-106344951D01*
X264643414Y-106248444D01*
X264643413Y-106248443D01*
X264643412Y-106248443D01*
X264441243Y-106182754D01*
X264441241Y-106182753D01*
X264441240Y-106182753D01*
X264279957Y-106157208D01*
X264231287Y-106149500D01*
X263768713Y-106149500D01*
X263720042Y-106157208D01*
X263558760Y-106182753D01*
X263356585Y-106248444D01*
X263167179Y-106344951D01*
X262995213Y-106469890D01*
X262844890Y-106620213D01*
X262719951Y-106792179D01*
X262648559Y-106932295D01*
X262600584Y-106983091D01*
X262538074Y-107000000D01*
X230461926Y-107000000D01*
X230394887Y-106980315D01*
X230351441Y-106932295D01*
X230338818Y-106907521D01*
X230280051Y-106792184D01*
X230280049Y-106792181D01*
X230280048Y-106792179D01*
X230155109Y-106620213D01*
X230004786Y-106469890D01*
X229832820Y-106344951D01*
X229643414Y-106248444D01*
X229643413Y-106248443D01*
X229643412Y-106248443D01*
X229441243Y-106182754D01*
X229441241Y-106182753D01*
X229441240Y-106182753D01*
X229279957Y-106157208D01*
X229231287Y-106149500D01*
X228768713Y-106149500D01*
X228720042Y-106157208D01*
X228558760Y-106182753D01*
X228356585Y-106248444D01*
X228167179Y-106344951D01*
X227995213Y-106469890D01*
X227844890Y-106620213D01*
X227719951Y-106792179D01*
X227648559Y-106932295D01*
X227600584Y-106983091D01*
X227538074Y-107000000D01*
X195495375Y-107000000D01*
X195428336Y-106980315D01*
X195382581Y-106927511D01*
X195377445Y-106914322D01*
X195376557Y-106911588D01*
X195280051Y-106722184D01*
X195280049Y-106722181D01*
X195280048Y-106722179D01*
X195155109Y-106550213D01*
X195004786Y-106399890D01*
X194832820Y-106274951D01*
X194643414Y-106178444D01*
X194643413Y-106178443D01*
X194643412Y-106178443D01*
X194441243Y-106112754D01*
X194441241Y-106112753D01*
X194441240Y-106112753D01*
X194279957Y-106087208D01*
X194231287Y-106079500D01*
X193768713Y-106079500D01*
X193720042Y-106087208D01*
X193558760Y-106112753D01*
X193356585Y-106178444D01*
X193167179Y-106274951D01*
X192995213Y-106399890D01*
X192844890Y-106550213D01*
X192719951Y-106722179D01*
X192623444Y-106911584D01*
X192622555Y-106914322D01*
X192621934Y-106915228D01*
X192621582Y-106916081D01*
X192621402Y-106916006D01*
X192583115Y-106971996D01*
X192518756Y-106999192D01*
X192504625Y-107000000D01*
X160495375Y-107000000D01*
X160428336Y-106980315D01*
X160382581Y-106927511D01*
X160377445Y-106914322D01*
X160376557Y-106911588D01*
X160280051Y-106722184D01*
X160280049Y-106722181D01*
X160280048Y-106722179D01*
X160155109Y-106550213D01*
X160004786Y-106399890D01*
X159832820Y-106274951D01*
X159643414Y-106178444D01*
X159643413Y-106178443D01*
X159643412Y-106178443D01*
X159441243Y-106112754D01*
X159441241Y-106112753D01*
X159441240Y-106112753D01*
X159279957Y-106087208D01*
X159231287Y-106079500D01*
X158768713Y-106079500D01*
X158720042Y-106087208D01*
X158558760Y-106112753D01*
X158356585Y-106178444D01*
X158167179Y-106274951D01*
X157995213Y-106399890D01*
X157844890Y-106550213D01*
X157719951Y-106722179D01*
X157623444Y-106911584D01*
X157622555Y-106914322D01*
X157621934Y-106915228D01*
X157621582Y-106916081D01*
X157621402Y-106916006D01*
X157583115Y-106971996D01*
X157518756Y-106999192D01*
X157504625Y-107000000D01*
X125495375Y-107000000D01*
X125428336Y-106980315D01*
X125382581Y-106927511D01*
X125377445Y-106914322D01*
X125376557Y-106911588D01*
X125280051Y-106722184D01*
X125280049Y-106722181D01*
X125280048Y-106722179D01*
X125155109Y-106550213D01*
X125004786Y-106399890D01*
X124832820Y-106274951D01*
X124643414Y-106178444D01*
X124643413Y-106178443D01*
X124643412Y-106178443D01*
X124441243Y-106112754D01*
X124441241Y-106112753D01*
X124441240Y-106112753D01*
X124279957Y-106087208D01*
X124231287Y-106079500D01*
X123768713Y-106079500D01*
X123720042Y-106087208D01*
X123558760Y-106112753D01*
X123356585Y-106178444D01*
X123167179Y-106274951D01*
X122995213Y-106399890D01*
X122844890Y-106550213D01*
X122719951Y-106722179D01*
X122623444Y-106911584D01*
X122622555Y-106914322D01*
X122621934Y-106915228D01*
X122621582Y-106916081D01*
X122621402Y-106916006D01*
X122583115Y-106971996D01*
X122518756Y-106999192D01*
X122504625Y-107000000D01*
X90461926Y-107000000D01*
X90394887Y-106980315D01*
X90351441Y-106932295D01*
X90338818Y-106907521D01*
X90280051Y-106792184D01*
X90280049Y-106792181D01*
X90280048Y-106792179D01*
X90155109Y-106620213D01*
X90004786Y-106469890D01*
X89832820Y-106344951D01*
X89643414Y-106248444D01*
X89643413Y-106248443D01*
X89643412Y-106248443D01*
X89441243Y-106182754D01*
X89441241Y-106182753D01*
X89441240Y-106182753D01*
X89279957Y-106157208D01*
X89231287Y-106149500D01*
X88768713Y-106149500D01*
X88720042Y-106157208D01*
X88558760Y-106182753D01*
X88356585Y-106248444D01*
X88167179Y-106344951D01*
X87995213Y-106469890D01*
X87844890Y-106620213D01*
X87719951Y-106792179D01*
X87648559Y-106932295D01*
X87600584Y-106983091D01*
X87538074Y-107000000D01*
X55461926Y-107000000D01*
X55394887Y-106980315D01*
X55351441Y-106932295D01*
X55338818Y-106907521D01*
X55280051Y-106792184D01*
X55280049Y-106792181D01*
X55280048Y-106792179D01*
X55155109Y-106620213D01*
X55004786Y-106469890D01*
X54832820Y-106344951D01*
X54643414Y-106248444D01*
X54643413Y-106248443D01*
X54643412Y-106248443D01*
X54441243Y-106182754D01*
X54441241Y-106182753D01*
X54441240Y-106182753D01*
X54279957Y-106157208D01*
X54231287Y-106149500D01*
X53768713Y-106149500D01*
X53720042Y-106157208D01*
X53558760Y-106182753D01*
X53356585Y-106248444D01*
X53167179Y-106344951D01*
X52995213Y-106469890D01*
X52844890Y-106620213D01*
X52719951Y-106792179D01*
X52648559Y-106932295D01*
X52600584Y-106983091D01*
X52538074Y-107000000D01*
X51561742Y-107000000D01*
X51494703Y-106980315D01*
X51448948Y-106927511D01*
X51439004Y-106858353D01*
X51443809Y-106837688D01*
X51462190Y-106781118D01*
X51487675Y-106620213D01*
X51491750Y-106594486D01*
X51491750Y-106405513D01*
X51462190Y-106218881D01*
X51416902Y-106079500D01*
X51403797Y-106039168D01*
X51403795Y-106039165D01*
X51403795Y-106039163D01*
X51318009Y-105870800D01*
X51206940Y-105717927D01*
X51073323Y-105584310D01*
X50920449Y-105473240D01*
X50752086Y-105387454D01*
X50572368Y-105329059D01*
X50385736Y-105299500D01*
X50385731Y-105299500D01*
X50196769Y-105299500D01*
X50196764Y-105299500D01*
X50010131Y-105329059D01*
X49830413Y-105387454D01*
X49662050Y-105473240D01*
X49574829Y-105536610D01*
X49509177Y-105584310D01*
X49509175Y-105584312D01*
X49509174Y-105584312D01*
X49375562Y-105717924D01*
X49375562Y-105717925D01*
X49375560Y-105717927D01*
X49327860Y-105783579D01*
X49264490Y-105870800D01*
X49178704Y-106039163D01*
X49120309Y-106218881D01*
X49090750Y-106405513D01*
X49090750Y-106594486D01*
X49120309Y-106781116D01*
X49126044Y-106798766D01*
X49138689Y-106837682D01*
X49140685Y-106907521D01*
X49104605Y-106967355D01*
X49041904Y-106998184D01*
X49020758Y-107000000D01*
X46481742Y-107000000D01*
X46414703Y-106980315D01*
X46368948Y-106927511D01*
X46359004Y-106858353D01*
X46363809Y-106837688D01*
X46382190Y-106781118D01*
X46407675Y-106620213D01*
X46411750Y-106594486D01*
X46411750Y-106405513D01*
X46382190Y-106218881D01*
X46336902Y-106079500D01*
X46323797Y-106039168D01*
X46323795Y-106039165D01*
X46323795Y-106039163D01*
X46238009Y-105870800D01*
X46126940Y-105717927D01*
X45993323Y-105584310D01*
X45840449Y-105473240D01*
X45672086Y-105387454D01*
X45492368Y-105329059D01*
X45305736Y-105299500D01*
X45305731Y-105299500D01*
X45116769Y-105299500D01*
X45116764Y-105299500D01*
X44930131Y-105329059D01*
X44750413Y-105387454D01*
X44582050Y-105473240D01*
X44494829Y-105536610D01*
X44429177Y-105584310D01*
X44429175Y-105584312D01*
X44429174Y-105584312D01*
X44295562Y-105717924D01*
X44295562Y-105717925D01*
X44295560Y-105717927D01*
X44247860Y-105783579D01*
X44184490Y-105870800D01*
X44098704Y-106039163D01*
X44040309Y-106218881D01*
X44010750Y-106405513D01*
X44010750Y-106594486D01*
X44040309Y-106781116D01*
X44046044Y-106798766D01*
X44058689Y-106837682D01*
X44060685Y-106907521D01*
X44024605Y-106967355D01*
X43961904Y-106998184D01*
X43940758Y-107000000D01*
X42481742Y-107000000D01*
X42414703Y-106980315D01*
X42368948Y-106927511D01*
X42359004Y-106858353D01*
X42363809Y-106837688D01*
X42382190Y-106781118D01*
X42407675Y-106620213D01*
X42411750Y-106594486D01*
X42411750Y-106405513D01*
X42382190Y-106218881D01*
X42336902Y-106079500D01*
X42323797Y-106039168D01*
X42323795Y-106039165D01*
X42323795Y-106039163D01*
X42238009Y-105870800D01*
X42126940Y-105717927D01*
X41993323Y-105584310D01*
X41840449Y-105473240D01*
X41672086Y-105387454D01*
X41492368Y-105329059D01*
X41305736Y-105299500D01*
X41305731Y-105299500D01*
X41116769Y-105299500D01*
X41116764Y-105299500D01*
X40930131Y-105329059D01*
X40750413Y-105387454D01*
X40582050Y-105473240D01*
X40494829Y-105536610D01*
X40429177Y-105584310D01*
X40429175Y-105584312D01*
X40429174Y-105584312D01*
X40295562Y-105717924D01*
X40295562Y-105717925D01*
X40295560Y-105717927D01*
X40247860Y-105783579D01*
X40184490Y-105870800D01*
X40098704Y-106039163D01*
X40040309Y-106218881D01*
X40010750Y-106405513D01*
X40010750Y-106594486D01*
X40040309Y-106781116D01*
X40046044Y-106798766D01*
X40058689Y-106837682D01*
X40060685Y-106907521D01*
X40024605Y-106967355D01*
X39961904Y-106998184D01*
X39940758Y-107000000D01*
X31461926Y-107000000D01*
X31394887Y-106980315D01*
X31351441Y-106932295D01*
X31338818Y-106907521D01*
X31280051Y-106792184D01*
X31280049Y-106792181D01*
X31280048Y-106792179D01*
X31155109Y-106620213D01*
X31004786Y-106469890D01*
X30832820Y-106344951D01*
X30643414Y-106248444D01*
X30643413Y-106248443D01*
X30643412Y-106248443D01*
X30441243Y-106182754D01*
X30441241Y-106182753D01*
X30441240Y-106182753D01*
X30279957Y-106157208D01*
X30231287Y-106149500D01*
X29768713Y-106149500D01*
X29720042Y-106157208D01*
X29558760Y-106182753D01*
X29356585Y-106248444D01*
X29167179Y-106344951D01*
X28995213Y-106469890D01*
X28844890Y-106620213D01*
X28719951Y-106792179D01*
X28648559Y-106932295D01*
X28600584Y-106983091D01*
X28538074Y-107000000D01*
X27624500Y-107000000D01*
X27557461Y-106980315D01*
X27511706Y-106927511D01*
X27500500Y-106876000D01*
X27500500Y-102393713D01*
X28524500Y-102393713D01*
X28524500Y-102606287D01*
X28534534Y-102669644D01*
X28557753Y-102816239D01*
X28623444Y-103018414D01*
X28719951Y-103207820D01*
X28844890Y-103379786D01*
X28995213Y-103530109D01*
X29167179Y-103655048D01*
X29167181Y-103655049D01*
X29167184Y-103655051D01*
X29356588Y-103751557D01*
X29558757Y-103817246D01*
X29768713Y-103850500D01*
X29768714Y-103850500D01*
X30231286Y-103850500D01*
X30231287Y-103850500D01*
X30441243Y-103817246D01*
X30643412Y-103751557D01*
X30832816Y-103655051D01*
X30854789Y-103639086D01*
X31004786Y-103530109D01*
X31004788Y-103530106D01*
X31004792Y-103530104D01*
X31155104Y-103379792D01*
X31155106Y-103379788D01*
X31155109Y-103379786D01*
X31280048Y-103207820D01*
X31280047Y-103207820D01*
X31280051Y-103207816D01*
X31376557Y-103018412D01*
X31442246Y-102816243D01*
X31475500Y-102606287D01*
X31475500Y-102393713D01*
X31442246Y-102183757D01*
X31376557Y-101981588D01*
X31280051Y-101792184D01*
X31280049Y-101792181D01*
X31280048Y-101792179D01*
X31155109Y-101620213D01*
X31004786Y-101469890D01*
X30916178Y-101405513D01*
X34930750Y-101405513D01*
X34930750Y-101594486D01*
X34960309Y-101781118D01*
X35018704Y-101960836D01*
X35096622Y-102113757D01*
X35104490Y-102129199D01*
X35215560Y-102282073D01*
X35349177Y-102415690D01*
X35502051Y-102526760D01*
X35581597Y-102567290D01*
X35670413Y-102612545D01*
X35670415Y-102612545D01*
X35670418Y-102612547D01*
X35766747Y-102643846D01*
X35850131Y-102670940D01*
X36036764Y-102700500D01*
X36036769Y-102700500D01*
X36225736Y-102700500D01*
X36412368Y-102670940D01*
X36592082Y-102612547D01*
X36760449Y-102526760D01*
X36913323Y-102415690D01*
X37046940Y-102282073D01*
X37158010Y-102129199D01*
X37243797Y-101960832D01*
X37302190Y-101781118D01*
X37327675Y-101620213D01*
X37331750Y-101594486D01*
X37331750Y-101405513D01*
X40010750Y-101405513D01*
X40010750Y-101594486D01*
X40040309Y-101781118D01*
X40098704Y-101960836D01*
X40176622Y-102113757D01*
X40184490Y-102129199D01*
X40295560Y-102282073D01*
X40429177Y-102415690D01*
X40582051Y-102526760D01*
X40661597Y-102567290D01*
X40750413Y-102612545D01*
X40750415Y-102612545D01*
X40750418Y-102612547D01*
X40846747Y-102643846D01*
X40930131Y-102670940D01*
X41116764Y-102700500D01*
X41116769Y-102700500D01*
X41305736Y-102700500D01*
X41492368Y-102670940D01*
X41672082Y-102612547D01*
X41840449Y-102526760D01*
X41993323Y-102415690D01*
X42126940Y-102282073D01*
X42238010Y-102129199D01*
X42323797Y-101960832D01*
X42382190Y-101781118D01*
X42407675Y-101620213D01*
X42411750Y-101594486D01*
X42411750Y-101405513D01*
X44010750Y-101405513D01*
X44010750Y-101594486D01*
X44040309Y-101781118D01*
X44098704Y-101960836D01*
X44176622Y-102113757D01*
X44184490Y-102129199D01*
X44295560Y-102282073D01*
X44429177Y-102415690D01*
X44582051Y-102526760D01*
X44661597Y-102567290D01*
X44750413Y-102612545D01*
X44750415Y-102612545D01*
X44750418Y-102612547D01*
X44846747Y-102643846D01*
X44930131Y-102670940D01*
X45116764Y-102700500D01*
X45116769Y-102700500D01*
X45305736Y-102700500D01*
X45492368Y-102670940D01*
X45672082Y-102612547D01*
X45840449Y-102526760D01*
X45993323Y-102415690D01*
X46126940Y-102282073D01*
X46238010Y-102129199D01*
X46323797Y-101960832D01*
X46382190Y-101781118D01*
X46407675Y-101620213D01*
X46411750Y-101594486D01*
X46411750Y-101405513D01*
X49090750Y-101405513D01*
X49090750Y-101594486D01*
X49120309Y-101781118D01*
X49178704Y-101960836D01*
X49256622Y-102113757D01*
X49264490Y-102129199D01*
X49375560Y-102282073D01*
X49509177Y-102415690D01*
X49662051Y-102526760D01*
X49741597Y-102567290D01*
X49830413Y-102612545D01*
X49830415Y-102612545D01*
X49830418Y-102612547D01*
X49926747Y-102643846D01*
X50010131Y-102670940D01*
X50196764Y-102700500D01*
X50196769Y-102700500D01*
X50385736Y-102700500D01*
X50572368Y-102670940D01*
X50752082Y-102612547D01*
X50920449Y-102526760D01*
X51073323Y-102415690D01*
X51095300Y-102393713D01*
X52524500Y-102393713D01*
X52524500Y-102606287D01*
X52534534Y-102669644D01*
X52557753Y-102816239D01*
X52623444Y-103018414D01*
X52719951Y-103207820D01*
X52844890Y-103379786D01*
X52995213Y-103530109D01*
X53167179Y-103655048D01*
X53167181Y-103655049D01*
X53167184Y-103655051D01*
X53356588Y-103751557D01*
X53558757Y-103817246D01*
X53768713Y-103850500D01*
X53768714Y-103850500D01*
X54231286Y-103850500D01*
X54231287Y-103850500D01*
X54441243Y-103817246D01*
X54643412Y-103751557D01*
X54832816Y-103655051D01*
X54854789Y-103639086D01*
X55004786Y-103530109D01*
X55004788Y-103530106D01*
X55004792Y-103530104D01*
X55155104Y-103379792D01*
X55155106Y-103379788D01*
X55155109Y-103379786D01*
X55280048Y-103207820D01*
X55280047Y-103207820D01*
X55280051Y-103207816D01*
X55376557Y-103018412D01*
X55442246Y-102816243D01*
X55475500Y-102606287D01*
X55475500Y-102393713D01*
X87524500Y-102393713D01*
X87524500Y-102606287D01*
X87534534Y-102669644D01*
X87557753Y-102816239D01*
X87623444Y-103018414D01*
X87719951Y-103207820D01*
X87844890Y-103379786D01*
X87995213Y-103530109D01*
X88167179Y-103655048D01*
X88167181Y-103655049D01*
X88167184Y-103655051D01*
X88356588Y-103751557D01*
X88558757Y-103817246D01*
X88768713Y-103850500D01*
X88768714Y-103850500D01*
X89231286Y-103850500D01*
X89231287Y-103850500D01*
X89441243Y-103817246D01*
X89643412Y-103751557D01*
X89832816Y-103655051D01*
X89854789Y-103639086D01*
X90004786Y-103530109D01*
X90004788Y-103530106D01*
X90004792Y-103530104D01*
X90155104Y-103379792D01*
X90155106Y-103379788D01*
X90155109Y-103379786D01*
X90280048Y-103207820D01*
X90280047Y-103207820D01*
X90280051Y-103207816D01*
X90376557Y-103018412D01*
X90442246Y-102816243D01*
X90475500Y-102606287D01*
X90475500Y-102393713D01*
X90464413Y-102323713D01*
X122524500Y-102323713D01*
X122524500Y-102536287D01*
X122557754Y-102746243D01*
X122580498Y-102816243D01*
X122623444Y-102948414D01*
X122719951Y-103137820D01*
X122844890Y-103309786D01*
X122995213Y-103460109D01*
X123167179Y-103585048D01*
X123167181Y-103585049D01*
X123167184Y-103585051D01*
X123356588Y-103681557D01*
X123558757Y-103747246D01*
X123768713Y-103780500D01*
X123768714Y-103780500D01*
X124231286Y-103780500D01*
X124231287Y-103780500D01*
X124441243Y-103747246D01*
X124643412Y-103681557D01*
X124832816Y-103585051D01*
X124908445Y-103530104D01*
X125004786Y-103460109D01*
X125004788Y-103460106D01*
X125004792Y-103460104D01*
X125155104Y-103309792D01*
X125155106Y-103309788D01*
X125155109Y-103309786D01*
X125280048Y-103137820D01*
X125280047Y-103137820D01*
X125280051Y-103137816D01*
X125376557Y-102948412D01*
X125442246Y-102746243D01*
X125475500Y-102536287D01*
X125475500Y-102323713D01*
X157524500Y-102323713D01*
X157524500Y-102536287D01*
X157557754Y-102746243D01*
X157580498Y-102816243D01*
X157623444Y-102948414D01*
X157719951Y-103137820D01*
X157844890Y-103309786D01*
X157995213Y-103460109D01*
X158167179Y-103585048D01*
X158167181Y-103585049D01*
X158167184Y-103585051D01*
X158356588Y-103681557D01*
X158558757Y-103747246D01*
X158768713Y-103780500D01*
X158768714Y-103780500D01*
X159231286Y-103780500D01*
X159231287Y-103780500D01*
X159441243Y-103747246D01*
X159643412Y-103681557D01*
X159832816Y-103585051D01*
X159908445Y-103530104D01*
X160004786Y-103460109D01*
X160004788Y-103460106D01*
X160004792Y-103460104D01*
X160155104Y-103309792D01*
X160155106Y-103309788D01*
X160155109Y-103309786D01*
X160280048Y-103137820D01*
X160280047Y-103137820D01*
X160280051Y-103137816D01*
X160376557Y-102948412D01*
X160442246Y-102746243D01*
X160475500Y-102536287D01*
X160475500Y-102323713D01*
X192524500Y-102323713D01*
X192524500Y-102536287D01*
X192557754Y-102746243D01*
X192580498Y-102816243D01*
X192623444Y-102948414D01*
X192719951Y-103137820D01*
X192844890Y-103309786D01*
X192995213Y-103460109D01*
X193167179Y-103585048D01*
X193167181Y-103585049D01*
X193167184Y-103585051D01*
X193356588Y-103681557D01*
X193558757Y-103747246D01*
X193768713Y-103780500D01*
X193768714Y-103780500D01*
X194231286Y-103780500D01*
X194231287Y-103780500D01*
X194441243Y-103747246D01*
X194643412Y-103681557D01*
X194832816Y-103585051D01*
X194908445Y-103530104D01*
X195004786Y-103460109D01*
X195004788Y-103460106D01*
X195004792Y-103460104D01*
X195155104Y-103309792D01*
X195155106Y-103309788D01*
X195155109Y-103309786D01*
X195280048Y-103137820D01*
X195280047Y-103137820D01*
X195280051Y-103137816D01*
X195376557Y-102948412D01*
X195442246Y-102746243D01*
X195475500Y-102536287D01*
X195475500Y-102393713D01*
X227524500Y-102393713D01*
X227524500Y-102606287D01*
X227534534Y-102669644D01*
X227557753Y-102816239D01*
X227623444Y-103018414D01*
X227719951Y-103207820D01*
X227844890Y-103379786D01*
X227995213Y-103530109D01*
X228167179Y-103655048D01*
X228167181Y-103655049D01*
X228167184Y-103655051D01*
X228356588Y-103751557D01*
X228558757Y-103817246D01*
X228768713Y-103850500D01*
X228768714Y-103850500D01*
X229231286Y-103850500D01*
X229231287Y-103850500D01*
X229441243Y-103817246D01*
X229643412Y-103751557D01*
X229832816Y-103655051D01*
X229854789Y-103639086D01*
X230004786Y-103530109D01*
X230004788Y-103530106D01*
X230004792Y-103530104D01*
X230155104Y-103379792D01*
X230155106Y-103379788D01*
X230155109Y-103379786D01*
X230280048Y-103207820D01*
X230280047Y-103207820D01*
X230280051Y-103207816D01*
X230376557Y-103018412D01*
X230442246Y-102816243D01*
X230475500Y-102606287D01*
X230475500Y-102393713D01*
X262524500Y-102393713D01*
X262524500Y-102606287D01*
X262534534Y-102669644D01*
X262557753Y-102816239D01*
X262623444Y-103018414D01*
X262719951Y-103207820D01*
X262844890Y-103379786D01*
X262995213Y-103530109D01*
X263167179Y-103655048D01*
X263167181Y-103655049D01*
X263167184Y-103655051D01*
X263356588Y-103751557D01*
X263558757Y-103817246D01*
X263768713Y-103850500D01*
X263768714Y-103850500D01*
X264231286Y-103850500D01*
X264231287Y-103850500D01*
X264441243Y-103817246D01*
X264643412Y-103751557D01*
X264832816Y-103655051D01*
X264854789Y-103639086D01*
X265004786Y-103530109D01*
X265004788Y-103530106D01*
X265004792Y-103530104D01*
X265155104Y-103379792D01*
X265155106Y-103379788D01*
X265155109Y-103379786D01*
X265280048Y-103207820D01*
X265280047Y-103207820D01*
X265280051Y-103207816D01*
X265376557Y-103018412D01*
X265442246Y-102816243D01*
X265475500Y-102606287D01*
X265475500Y-102393713D01*
X265442246Y-102183757D01*
X265376557Y-101981588D01*
X265280051Y-101792184D01*
X265280049Y-101792181D01*
X265280048Y-101792179D01*
X265155109Y-101620213D01*
X265004786Y-101469890D01*
X264832820Y-101344951D01*
X264643414Y-101248444D01*
X264643413Y-101248443D01*
X264643412Y-101248443D01*
X264441243Y-101182754D01*
X264441241Y-101182753D01*
X264441240Y-101182753D01*
X264279957Y-101157208D01*
X264231287Y-101149500D01*
X263768713Y-101149500D01*
X263720042Y-101157208D01*
X263558760Y-101182753D01*
X263356585Y-101248444D01*
X263167179Y-101344951D01*
X262995213Y-101469890D01*
X262844890Y-101620213D01*
X262719951Y-101792179D01*
X262623444Y-101981585D01*
X262557753Y-102183760D01*
X262542182Y-102282073D01*
X262524500Y-102393713D01*
X230475500Y-102393713D01*
X230442246Y-102183757D01*
X230376557Y-101981588D01*
X230280051Y-101792184D01*
X230280049Y-101792181D01*
X230280048Y-101792179D01*
X230155109Y-101620213D01*
X230004786Y-101469890D01*
X229832820Y-101344951D01*
X229643414Y-101248444D01*
X229643413Y-101248443D01*
X229643412Y-101248443D01*
X229441243Y-101182754D01*
X229441241Y-101182753D01*
X229441240Y-101182753D01*
X229279957Y-101157208D01*
X229231287Y-101149500D01*
X228768713Y-101149500D01*
X228720042Y-101157208D01*
X228558760Y-101182753D01*
X228356585Y-101248444D01*
X228167179Y-101344951D01*
X227995213Y-101469890D01*
X227844890Y-101620213D01*
X227719951Y-101792179D01*
X227623444Y-101981585D01*
X227557753Y-102183760D01*
X227542182Y-102282073D01*
X227524500Y-102393713D01*
X195475500Y-102393713D01*
X195475500Y-102323713D01*
X195442246Y-102113757D01*
X195376557Y-101911588D01*
X195280051Y-101722184D01*
X195280049Y-101722181D01*
X195280048Y-101722179D01*
X195155109Y-101550213D01*
X195004786Y-101399890D01*
X194832820Y-101274951D01*
X194643414Y-101178444D01*
X194643413Y-101178443D01*
X194643412Y-101178443D01*
X194441243Y-101112754D01*
X194441241Y-101112753D01*
X194441240Y-101112753D01*
X194279957Y-101087208D01*
X194231287Y-101079500D01*
X193768713Y-101079500D01*
X193720042Y-101087208D01*
X193558760Y-101112753D01*
X193356585Y-101178444D01*
X193167179Y-101274951D01*
X192995213Y-101399890D01*
X192844890Y-101550213D01*
X192719951Y-101722179D01*
X192623444Y-101911585D01*
X192557753Y-102113760D01*
X192531095Y-102282073D01*
X192524500Y-102323713D01*
X160475500Y-102323713D01*
X160442246Y-102113757D01*
X160376557Y-101911588D01*
X160280051Y-101722184D01*
X160280049Y-101722181D01*
X160280048Y-101722179D01*
X160155109Y-101550213D01*
X160004786Y-101399890D01*
X159832820Y-101274951D01*
X159643414Y-101178444D01*
X159643413Y-101178443D01*
X159643412Y-101178443D01*
X159441243Y-101112754D01*
X159441241Y-101112753D01*
X159441240Y-101112753D01*
X159279957Y-101087208D01*
X159231287Y-101079500D01*
X158768713Y-101079500D01*
X158720042Y-101087208D01*
X158558760Y-101112753D01*
X158356585Y-101178444D01*
X158167179Y-101274951D01*
X157995213Y-101399890D01*
X157844890Y-101550213D01*
X157719951Y-101722179D01*
X157623444Y-101911585D01*
X157557753Y-102113760D01*
X157531095Y-102282073D01*
X157524500Y-102323713D01*
X125475500Y-102323713D01*
X125442246Y-102113757D01*
X125376557Y-101911588D01*
X125280051Y-101722184D01*
X125280049Y-101722181D01*
X125280048Y-101722179D01*
X125155109Y-101550213D01*
X125004786Y-101399890D01*
X124832820Y-101274951D01*
X124643414Y-101178444D01*
X124643413Y-101178443D01*
X124643412Y-101178443D01*
X124441243Y-101112754D01*
X124441241Y-101112753D01*
X124441240Y-101112753D01*
X124279957Y-101087208D01*
X124231287Y-101079500D01*
X123768713Y-101079500D01*
X123720042Y-101087208D01*
X123558760Y-101112753D01*
X123356585Y-101178444D01*
X123167179Y-101274951D01*
X122995213Y-101399890D01*
X122844890Y-101550213D01*
X122719951Y-101722179D01*
X122623444Y-101911585D01*
X122557753Y-102113760D01*
X122531095Y-102282073D01*
X122524500Y-102323713D01*
X90464413Y-102323713D01*
X90442246Y-102183757D01*
X90376557Y-101981588D01*
X90280051Y-101792184D01*
X90280049Y-101792181D01*
X90280048Y-101792179D01*
X90155109Y-101620213D01*
X90004786Y-101469890D01*
X89832820Y-101344951D01*
X89643414Y-101248444D01*
X89643413Y-101248443D01*
X89643412Y-101248443D01*
X89441243Y-101182754D01*
X89441241Y-101182753D01*
X89441240Y-101182753D01*
X89279957Y-101157208D01*
X89231287Y-101149500D01*
X88768713Y-101149500D01*
X88720042Y-101157208D01*
X88558760Y-101182753D01*
X88356585Y-101248444D01*
X88167179Y-101344951D01*
X87995213Y-101469890D01*
X87844890Y-101620213D01*
X87719951Y-101792179D01*
X87623444Y-101981585D01*
X87557753Y-102183760D01*
X87542182Y-102282073D01*
X87524500Y-102393713D01*
X55475500Y-102393713D01*
X55442246Y-102183757D01*
X55376557Y-101981588D01*
X55280051Y-101792184D01*
X55280049Y-101792181D01*
X55280048Y-101792179D01*
X55155109Y-101620213D01*
X55004786Y-101469890D01*
X54832820Y-101344951D01*
X54643414Y-101248444D01*
X54643413Y-101248443D01*
X54643412Y-101248443D01*
X54441243Y-101182754D01*
X54441241Y-101182753D01*
X54441240Y-101182753D01*
X54279957Y-101157208D01*
X54231287Y-101149500D01*
X53768713Y-101149500D01*
X53720042Y-101157208D01*
X53558760Y-101182753D01*
X53356585Y-101248444D01*
X53167179Y-101344951D01*
X52995213Y-101469890D01*
X52844890Y-101620213D01*
X52719951Y-101792179D01*
X52623444Y-101981585D01*
X52557753Y-102183760D01*
X52542182Y-102282073D01*
X52524500Y-102393713D01*
X51095300Y-102393713D01*
X51206940Y-102282073D01*
X51318010Y-102129199D01*
X51403797Y-101960832D01*
X51462190Y-101781118D01*
X51487675Y-101620213D01*
X51491750Y-101594486D01*
X51491750Y-101405513D01*
X51462190Y-101218881D01*
X51403795Y-101039163D01*
X51318009Y-100870800D01*
X51206940Y-100717927D01*
X51073323Y-100584310D01*
X50920449Y-100473240D01*
X50752086Y-100387454D01*
X50572368Y-100329059D01*
X50385736Y-100299500D01*
X50385731Y-100299500D01*
X50196769Y-100299500D01*
X50196764Y-100299500D01*
X50010131Y-100329059D01*
X49830413Y-100387454D01*
X49662050Y-100473240D01*
X49574829Y-100536610D01*
X49509177Y-100584310D01*
X49509175Y-100584312D01*
X49509174Y-100584312D01*
X49375562Y-100717924D01*
X49375562Y-100717925D01*
X49375560Y-100717927D01*
X49327860Y-100783579D01*
X49264490Y-100870800D01*
X49178704Y-101039163D01*
X49120309Y-101218881D01*
X49090750Y-101405513D01*
X46411750Y-101405513D01*
X46382190Y-101218881D01*
X46323795Y-101039163D01*
X46238009Y-100870800D01*
X46126940Y-100717927D01*
X45993323Y-100584310D01*
X45840449Y-100473240D01*
X45672086Y-100387454D01*
X45492368Y-100329059D01*
X45305736Y-100299500D01*
X45305731Y-100299500D01*
X45116769Y-100299500D01*
X45116764Y-100299500D01*
X44930131Y-100329059D01*
X44750413Y-100387454D01*
X44582050Y-100473240D01*
X44494829Y-100536610D01*
X44429177Y-100584310D01*
X44429175Y-100584312D01*
X44429174Y-100584312D01*
X44295562Y-100717924D01*
X44295562Y-100717925D01*
X44295560Y-100717927D01*
X44247860Y-100783579D01*
X44184490Y-100870800D01*
X44098704Y-101039163D01*
X44040309Y-101218881D01*
X44010750Y-101405513D01*
X42411750Y-101405513D01*
X42382190Y-101218881D01*
X42323795Y-101039163D01*
X42238009Y-100870800D01*
X42126940Y-100717927D01*
X41993323Y-100584310D01*
X41840449Y-100473240D01*
X41672086Y-100387454D01*
X41492368Y-100329059D01*
X41305736Y-100299500D01*
X41305731Y-100299500D01*
X41116769Y-100299500D01*
X41116764Y-100299500D01*
X40930131Y-100329059D01*
X40750413Y-100387454D01*
X40582050Y-100473240D01*
X40494829Y-100536610D01*
X40429177Y-100584310D01*
X40429175Y-100584312D01*
X40429174Y-100584312D01*
X40295562Y-100717924D01*
X40295562Y-100717925D01*
X40295560Y-100717927D01*
X40247860Y-100783579D01*
X40184490Y-100870800D01*
X40098704Y-101039163D01*
X40040309Y-101218881D01*
X40010750Y-101405513D01*
X37331750Y-101405513D01*
X37302190Y-101218881D01*
X37243795Y-101039163D01*
X37158009Y-100870800D01*
X37046940Y-100717927D01*
X36913323Y-100584310D01*
X36760449Y-100473240D01*
X36592086Y-100387454D01*
X36412368Y-100329059D01*
X36225736Y-100299500D01*
X36225731Y-100299500D01*
X36036769Y-100299500D01*
X36036764Y-100299500D01*
X35850131Y-100329059D01*
X35670413Y-100387454D01*
X35502050Y-100473240D01*
X35414829Y-100536610D01*
X35349177Y-100584310D01*
X35349175Y-100584312D01*
X35349174Y-100584312D01*
X35215562Y-100717924D01*
X35215562Y-100717925D01*
X35215560Y-100717927D01*
X35167860Y-100783579D01*
X35104490Y-100870800D01*
X35018704Y-101039163D01*
X34960309Y-101218881D01*
X34930750Y-101405513D01*
X30916178Y-101405513D01*
X30832820Y-101344951D01*
X30643414Y-101248444D01*
X30643413Y-101248443D01*
X30643412Y-101248443D01*
X30441243Y-101182754D01*
X30441241Y-101182753D01*
X30441240Y-101182753D01*
X30279957Y-101157208D01*
X30231287Y-101149500D01*
X29768713Y-101149500D01*
X29720042Y-101157208D01*
X29558760Y-101182753D01*
X29356585Y-101248444D01*
X29167179Y-101344951D01*
X28995213Y-101469890D01*
X28844890Y-101620213D01*
X28719951Y-101792179D01*
X28623444Y-101981585D01*
X28557753Y-102183760D01*
X28542182Y-102282073D01*
X28524500Y-102393713D01*
X27500500Y-102393713D01*
X27500500Y-99503750D01*
X27500726Y-99496263D01*
X27518271Y-99206205D01*
X27520076Y-99191340D01*
X27571780Y-98909201D01*
X27575364Y-98894663D01*
X27628478Y-98724214D01*
X27660696Y-98620822D01*
X27665998Y-98606841D01*
X27783731Y-98345249D01*
X27790676Y-98332016D01*
X27939080Y-98086526D01*
X27947567Y-98074230D01*
X28124480Y-97848417D01*
X28134395Y-97837226D01*
X28337226Y-97634395D01*
X28348417Y-97624480D01*
X28574230Y-97447567D01*
X28586526Y-97439080D01*
X28832016Y-97290676D01*
X28845249Y-97283731D01*
X29106841Y-97165998D01*
X29120822Y-97160696D01*
X29394668Y-97075362D01*
X29409197Y-97071780D01*
X29691344Y-97020075D01*
X29706202Y-97018271D01*
X29996242Y-97000726D01*
X30003757Y-97000501D01*
X264919219Y-97069592D01*
G37*
%TD.AperFunction*%
%TD*%
%TA.AperFunction,Conductor*%
%TO.N,Net-(J1-Pin_1)*%
G36*
X50922968Y-107019685D02*
G01*
X50968723Y-107072489D01*
X50974906Y-107089065D01*
X50989128Y-107137501D01*
X50989131Y-107137507D01*
X51066913Y-107258537D01*
X51066921Y-107258548D01*
X51112665Y-107311340D01*
X51112668Y-107311343D01*
X51112672Y-107311347D01*
X51221406Y-107405567D01*
X51221409Y-107405568D01*
X51221410Y-107405569D01*
X51322674Y-107451816D01*
X51352283Y-107465338D01*
X51419322Y-107485023D01*
X51419326Y-107485024D01*
X51561742Y-107505500D01*
X52402631Y-107505500D01*
X52469670Y-107525185D01*
X52515425Y-107577989D01*
X52525104Y-107610102D01*
X52538925Y-107697366D01*
X52557754Y-107816243D01*
X52618820Y-108004185D01*
X52623444Y-108018414D01*
X52719951Y-108207820D01*
X52844890Y-108379786D01*
X52995213Y-108530109D01*
X53167179Y-108655048D01*
X53167181Y-108655049D01*
X53167184Y-108655051D01*
X53356588Y-108751557D01*
X53558757Y-108817246D01*
X53768713Y-108850500D01*
X53768714Y-108850500D01*
X54231286Y-108850500D01*
X54231287Y-108850500D01*
X54441243Y-108817246D01*
X54643412Y-108751557D01*
X54832816Y-108655051D01*
X54854789Y-108639086D01*
X55004786Y-108530109D01*
X55004788Y-108530106D01*
X55004792Y-108530104D01*
X55155104Y-108379792D01*
X55155106Y-108379788D01*
X55155109Y-108379786D01*
X55280048Y-108207820D01*
X55280047Y-108207820D01*
X55280051Y-108207816D01*
X55376557Y-108018412D01*
X55442246Y-107816243D01*
X55465900Y-107666896D01*
X55474896Y-107610102D01*
X55504825Y-107546967D01*
X55564137Y-107510036D01*
X55597369Y-107505500D01*
X87402631Y-107505500D01*
X87469670Y-107525185D01*
X87515425Y-107577989D01*
X87525104Y-107610102D01*
X87538925Y-107697366D01*
X87557754Y-107816243D01*
X87618820Y-108004185D01*
X87623444Y-108018414D01*
X87719951Y-108207820D01*
X87844890Y-108379786D01*
X87995213Y-108530109D01*
X88167179Y-108655048D01*
X88167181Y-108655049D01*
X88167184Y-108655051D01*
X88356588Y-108751557D01*
X88558757Y-108817246D01*
X88768713Y-108850500D01*
X88768714Y-108850500D01*
X89231286Y-108850500D01*
X89231287Y-108850500D01*
X89441243Y-108817246D01*
X89643412Y-108751557D01*
X89832816Y-108655051D01*
X89854789Y-108639086D01*
X90004786Y-108530109D01*
X90004788Y-108530106D01*
X90004792Y-108530104D01*
X90155104Y-108379792D01*
X90155106Y-108379788D01*
X90155109Y-108379786D01*
X90280048Y-108207820D01*
X90280047Y-108207820D01*
X90280051Y-108207816D01*
X90376557Y-108018412D01*
X90442246Y-107816243D01*
X90465900Y-107666896D01*
X90474896Y-107610102D01*
X90504825Y-107546967D01*
X90564137Y-107510036D01*
X90597369Y-107505500D01*
X122413718Y-107505500D01*
X122480757Y-107525185D01*
X122526512Y-107577989D01*
X122536191Y-107610102D01*
X122550012Y-107697366D01*
X122557754Y-107746243D01*
X122616320Y-107926491D01*
X122623444Y-107948414D01*
X122719951Y-108137820D01*
X122844890Y-108309786D01*
X122995213Y-108460109D01*
X123167179Y-108585048D01*
X123167181Y-108585049D01*
X123167184Y-108585051D01*
X123356588Y-108681557D01*
X123558757Y-108747246D01*
X123768713Y-108780500D01*
X123768714Y-108780500D01*
X124231286Y-108780500D01*
X124231287Y-108780500D01*
X124441243Y-108747246D01*
X124643412Y-108681557D01*
X124832816Y-108585051D01*
X124908445Y-108530104D01*
X125004786Y-108460109D01*
X125004788Y-108460106D01*
X125004792Y-108460104D01*
X125155104Y-108309792D01*
X125155106Y-108309788D01*
X125155109Y-108309786D01*
X125280048Y-108137820D01*
X125280047Y-108137820D01*
X125280051Y-108137816D01*
X125376557Y-107948412D01*
X125442246Y-107746243D01*
X125458054Y-107646429D01*
X125463809Y-107610102D01*
X125493738Y-107546967D01*
X125553050Y-107510036D01*
X125586282Y-107505500D01*
X157413718Y-107505500D01*
X157480757Y-107525185D01*
X157526512Y-107577989D01*
X157536191Y-107610102D01*
X157550012Y-107697366D01*
X157557754Y-107746243D01*
X157616320Y-107926491D01*
X157623444Y-107948414D01*
X157719951Y-108137820D01*
X157844890Y-108309786D01*
X157995213Y-108460109D01*
X158167179Y-108585048D01*
X158167181Y-108585049D01*
X158167184Y-108585051D01*
X158356588Y-108681557D01*
X158558757Y-108747246D01*
X158768713Y-108780500D01*
X158768714Y-108780500D01*
X159231286Y-108780500D01*
X159231287Y-108780500D01*
X159441243Y-108747246D01*
X159643412Y-108681557D01*
X159832816Y-108585051D01*
X159908445Y-108530104D01*
X160004786Y-108460109D01*
X160004788Y-108460106D01*
X160004792Y-108460104D01*
X160155104Y-108309792D01*
X160155106Y-108309788D01*
X160155109Y-108309786D01*
X160280048Y-108137820D01*
X160280047Y-108137820D01*
X160280051Y-108137816D01*
X160376557Y-107948412D01*
X160442246Y-107746243D01*
X160458054Y-107646429D01*
X160463809Y-107610102D01*
X160493738Y-107546967D01*
X160553050Y-107510036D01*
X160586282Y-107505500D01*
X192413718Y-107505500D01*
X192480757Y-107525185D01*
X192526512Y-107577989D01*
X192536191Y-107610102D01*
X192550012Y-107697366D01*
X192557754Y-107746243D01*
X192616320Y-107926491D01*
X192623444Y-107948414D01*
X192719951Y-108137820D01*
X192844890Y-108309786D01*
X192995213Y-108460109D01*
X193167179Y-108585048D01*
X193167181Y-108585049D01*
X193167184Y-108585051D01*
X193356588Y-108681557D01*
X193558757Y-108747246D01*
X193768713Y-108780500D01*
X193768714Y-108780500D01*
X194231286Y-108780500D01*
X194231287Y-108780500D01*
X194441243Y-108747246D01*
X194643412Y-108681557D01*
X194832816Y-108585051D01*
X194908445Y-108530104D01*
X195004786Y-108460109D01*
X195004788Y-108460106D01*
X195004792Y-108460104D01*
X195155104Y-108309792D01*
X195155106Y-108309788D01*
X195155109Y-108309786D01*
X195280048Y-108137820D01*
X195280047Y-108137820D01*
X195280051Y-108137816D01*
X195376557Y-107948412D01*
X195442246Y-107746243D01*
X195458054Y-107646429D01*
X195463809Y-107610102D01*
X195493738Y-107546967D01*
X195553050Y-107510036D01*
X195586282Y-107505500D01*
X227402631Y-107505500D01*
X227469670Y-107525185D01*
X227515425Y-107577989D01*
X227525104Y-107610102D01*
X227538925Y-107697366D01*
X227557754Y-107816243D01*
X227618820Y-108004185D01*
X227623444Y-108018414D01*
X227719951Y-108207820D01*
X227844890Y-108379786D01*
X227995213Y-108530109D01*
X228167179Y-108655048D01*
X228167181Y-108655049D01*
X228167184Y-108655051D01*
X228356588Y-108751557D01*
X228558757Y-108817246D01*
X228768713Y-108850500D01*
X228768714Y-108850500D01*
X229231286Y-108850500D01*
X229231287Y-108850500D01*
X229441243Y-108817246D01*
X229643412Y-108751557D01*
X229832816Y-108655051D01*
X229854789Y-108639086D01*
X230004786Y-108530109D01*
X230004788Y-108530106D01*
X230004792Y-108530104D01*
X230155104Y-108379792D01*
X230155106Y-108379788D01*
X230155109Y-108379786D01*
X230280048Y-108207820D01*
X230280047Y-108207820D01*
X230280051Y-108207816D01*
X230376557Y-108018412D01*
X230442246Y-107816243D01*
X230465900Y-107666896D01*
X230474896Y-107610102D01*
X230504825Y-107546967D01*
X230564137Y-107510036D01*
X230597369Y-107505500D01*
X262402631Y-107505500D01*
X262469670Y-107525185D01*
X262515425Y-107577989D01*
X262525104Y-107610102D01*
X262538925Y-107697366D01*
X262557754Y-107816243D01*
X262618820Y-108004185D01*
X262623444Y-108018414D01*
X262719951Y-108207820D01*
X262844890Y-108379786D01*
X262995213Y-108530109D01*
X263167179Y-108655048D01*
X263167181Y-108655049D01*
X263167184Y-108655051D01*
X263356588Y-108751557D01*
X263558757Y-108817246D01*
X263768713Y-108850500D01*
X263768714Y-108850500D01*
X264231286Y-108850500D01*
X264231287Y-108850500D01*
X264441243Y-108817246D01*
X264643412Y-108751557D01*
X264832816Y-108655051D01*
X264854789Y-108639086D01*
X265004786Y-108530109D01*
X265004788Y-108530106D01*
X265004792Y-108530104D01*
X265155104Y-108379792D01*
X265155106Y-108379788D01*
X265155109Y-108379786D01*
X265280048Y-108207820D01*
X265280047Y-108207820D01*
X265280051Y-108207816D01*
X265376557Y-108018412D01*
X265442246Y-107816243D01*
X265465900Y-107666896D01*
X265474896Y-107610102D01*
X265504825Y-107546967D01*
X265564137Y-107510036D01*
X265597369Y-107505500D01*
X266995591Y-107505500D01*
X267013573Y-107505179D01*
X267013583Y-107505178D01*
X267013618Y-107505178D01*
X267022464Y-107504862D01*
X267040481Y-107503896D01*
X267311846Y-107484487D01*
X267347723Y-107480630D01*
X267357848Y-107479174D01*
X267427007Y-107489115D01*
X267479813Y-107534867D01*
X267499500Y-107601906D01*
X267499500Y-113566249D01*
X267499274Y-113573736D01*
X267481728Y-113863794D01*
X267479923Y-113878659D01*
X267428219Y-114160798D01*
X267424635Y-114175336D01*
X267339306Y-114449167D01*
X267333997Y-114463168D01*
X267216275Y-114724736D01*
X267209316Y-114737995D01*
X267060928Y-114983459D01*
X267052422Y-114995782D01*
X266875526Y-115221573D01*
X266865596Y-115232781D01*
X266662781Y-115435596D01*
X266651573Y-115445526D01*
X266425782Y-115622422D01*
X266413459Y-115630928D01*
X266167995Y-115779316D01*
X266154736Y-115786275D01*
X265893168Y-115903997D01*
X265879168Y-115909306D01*
X265818475Y-115928219D01*
X265607744Y-115993885D01*
X265570856Y-115999500D01*
X30003751Y-115999500D01*
X29996264Y-115999274D01*
X29706205Y-115981728D01*
X29691340Y-115979923D01*
X29409201Y-115928219D01*
X29394663Y-115924635D01*
X29120832Y-115839306D01*
X29106831Y-115833997D01*
X28845263Y-115716275D01*
X28832004Y-115709316D01*
X28586540Y-115560928D01*
X28574217Y-115552422D01*
X28348426Y-115375526D01*
X28337218Y-115365596D01*
X28134403Y-115162781D01*
X28124473Y-115151573D01*
X28059360Y-115068462D01*
X27947573Y-114925776D01*
X27939075Y-114913465D01*
X27790680Y-114667989D01*
X27783727Y-114654743D01*
X27666000Y-114393163D01*
X27660693Y-114379167D01*
X27575364Y-114105336D01*
X27571780Y-114090798D01*
X27520076Y-113808659D01*
X27518271Y-113793794D01*
X27500726Y-113503736D01*
X27500500Y-113496249D01*
X27500500Y-111405513D01*
X34930750Y-111405513D01*
X34930750Y-111594486D01*
X34960309Y-111781118D01*
X35018704Y-111960836D01*
X35104490Y-112129199D01*
X35215560Y-112282073D01*
X35349177Y-112415690D01*
X35502051Y-112526760D01*
X35581597Y-112567290D01*
X35670413Y-112612545D01*
X35670415Y-112612545D01*
X35670418Y-112612547D01*
X35766747Y-112643846D01*
X35850131Y-112670940D01*
X36036764Y-112700500D01*
X36036769Y-112700500D01*
X36225736Y-112700500D01*
X36412368Y-112670940D01*
X36592082Y-112612547D01*
X36760449Y-112526760D01*
X36913323Y-112415690D01*
X37046940Y-112282073D01*
X37158010Y-112129199D01*
X37243797Y-111960832D01*
X37302190Y-111781118D01*
X37331750Y-111594486D01*
X37331750Y-111405513D01*
X40010750Y-111405513D01*
X40010750Y-111594486D01*
X40040309Y-111781118D01*
X40098704Y-111960836D01*
X40184490Y-112129199D01*
X40295560Y-112282073D01*
X40429177Y-112415690D01*
X40582051Y-112526760D01*
X40661597Y-112567290D01*
X40750413Y-112612545D01*
X40750415Y-112612545D01*
X40750418Y-112612547D01*
X40846747Y-112643846D01*
X40930131Y-112670940D01*
X41116764Y-112700500D01*
X41116769Y-112700500D01*
X41305736Y-112700500D01*
X41492368Y-112670940D01*
X41672082Y-112612547D01*
X41840449Y-112526760D01*
X41993323Y-112415690D01*
X42126940Y-112282073D01*
X42238010Y-112129199D01*
X42323797Y-111960832D01*
X42382190Y-111781118D01*
X42411750Y-111594486D01*
X42411750Y-111405513D01*
X44010750Y-111405513D01*
X44010750Y-111594486D01*
X44040309Y-111781118D01*
X44098704Y-111960836D01*
X44184490Y-112129199D01*
X44295560Y-112282073D01*
X44429177Y-112415690D01*
X44582051Y-112526760D01*
X44661597Y-112567290D01*
X44750413Y-112612545D01*
X44750415Y-112612545D01*
X44750418Y-112612547D01*
X44846747Y-112643846D01*
X44930131Y-112670940D01*
X45116764Y-112700500D01*
X45116769Y-112700500D01*
X45305736Y-112700500D01*
X45492368Y-112670940D01*
X45672082Y-112612547D01*
X45840449Y-112526760D01*
X45993323Y-112415690D01*
X46126940Y-112282073D01*
X46238010Y-112129199D01*
X46323797Y-111960832D01*
X46382190Y-111781118D01*
X46411750Y-111594486D01*
X46411750Y-111405513D01*
X46382190Y-111218881D01*
X46323795Y-111039163D01*
X46238009Y-110870800D01*
X46126940Y-110717927D01*
X45993323Y-110584310D01*
X45840449Y-110473240D01*
X45672086Y-110387454D01*
X45492368Y-110329059D01*
X45305736Y-110299500D01*
X45305731Y-110299500D01*
X45116769Y-110299500D01*
X45116764Y-110299500D01*
X44930131Y-110329059D01*
X44750413Y-110387454D01*
X44582050Y-110473240D01*
X44494829Y-110536610D01*
X44429177Y-110584310D01*
X44429175Y-110584312D01*
X44429174Y-110584312D01*
X44295562Y-110717924D01*
X44295562Y-110717925D01*
X44295560Y-110717927D01*
X44247860Y-110783579D01*
X44184490Y-110870800D01*
X44098704Y-111039163D01*
X44040309Y-111218881D01*
X44010750Y-111405513D01*
X42411750Y-111405513D01*
X42382190Y-111218881D01*
X42323795Y-111039163D01*
X42238009Y-110870800D01*
X42126940Y-110717927D01*
X41993323Y-110584310D01*
X41840449Y-110473240D01*
X41672086Y-110387454D01*
X41492368Y-110329059D01*
X41305736Y-110299500D01*
X41305731Y-110299500D01*
X41116769Y-110299500D01*
X41116764Y-110299500D01*
X40930131Y-110329059D01*
X40750413Y-110387454D01*
X40582050Y-110473240D01*
X40494829Y-110536610D01*
X40429177Y-110584310D01*
X40429175Y-110584312D01*
X40429174Y-110584312D01*
X40295562Y-110717924D01*
X40295562Y-110717925D01*
X40295560Y-110717927D01*
X40247860Y-110783579D01*
X40184490Y-110870800D01*
X40098704Y-111039163D01*
X40040309Y-111218881D01*
X40010750Y-111405513D01*
X37331750Y-111405513D01*
X37302190Y-111218881D01*
X37243795Y-111039163D01*
X37158009Y-110870800D01*
X37046940Y-110717927D01*
X36913323Y-110584310D01*
X36760449Y-110473240D01*
X36592086Y-110387454D01*
X36412368Y-110329059D01*
X36225736Y-110299500D01*
X36225731Y-110299500D01*
X36036769Y-110299500D01*
X36036764Y-110299500D01*
X35850131Y-110329059D01*
X35670413Y-110387454D01*
X35502050Y-110473240D01*
X35414829Y-110536610D01*
X35349177Y-110584310D01*
X35349175Y-110584312D01*
X35349174Y-110584312D01*
X35215562Y-110717924D01*
X35215562Y-110717925D01*
X35215560Y-110717927D01*
X35167860Y-110783579D01*
X35104490Y-110870800D01*
X35018704Y-111039163D01*
X34960309Y-111218881D01*
X34930750Y-111405513D01*
X27500500Y-111405513D01*
X27500500Y-107629500D01*
X27520185Y-107562461D01*
X27572989Y-107516706D01*
X27624500Y-107505500D01*
X28402631Y-107505500D01*
X28469670Y-107525185D01*
X28515425Y-107577989D01*
X28525104Y-107610102D01*
X28538925Y-107697366D01*
X28557754Y-107816243D01*
X28618820Y-108004185D01*
X28623444Y-108018414D01*
X28719951Y-108207820D01*
X28844890Y-108379786D01*
X28995213Y-108530109D01*
X29167179Y-108655048D01*
X29167181Y-108655049D01*
X29167184Y-108655051D01*
X29356588Y-108751557D01*
X29558757Y-108817246D01*
X29768713Y-108850500D01*
X29768714Y-108850500D01*
X30231286Y-108850500D01*
X30231287Y-108850500D01*
X30441243Y-108817246D01*
X30643412Y-108751557D01*
X30832816Y-108655051D01*
X30854789Y-108639086D01*
X31004786Y-108530109D01*
X31004788Y-108530106D01*
X31004792Y-108530104D01*
X31155104Y-108379792D01*
X31155106Y-108379788D01*
X31155109Y-108379786D01*
X31280048Y-108207820D01*
X31280047Y-108207820D01*
X31280051Y-108207816D01*
X31376557Y-108018412D01*
X31442246Y-107816243D01*
X31465900Y-107666896D01*
X31474896Y-107610102D01*
X31504825Y-107546967D01*
X31564137Y-107510036D01*
X31597369Y-107505500D01*
X35432499Y-107505500D01*
X35497641Y-107524628D01*
X35497895Y-107524214D01*
X35499425Y-107525152D01*
X35499538Y-107525185D01*
X35500042Y-107525529D01*
X35502042Y-107526755D01*
X35502049Y-107526758D01*
X35502051Y-107526760D01*
X35520749Y-107536287D01*
X35670413Y-107612545D01*
X35670415Y-107612545D01*
X35670418Y-107612547D01*
X35722594Y-107629500D01*
X35850131Y-107670940D01*
X36036764Y-107700500D01*
X36036769Y-107700500D01*
X36225736Y-107700500D01*
X36412368Y-107670940D01*
X36592082Y-107612547D01*
X36760449Y-107526760D01*
X36760453Y-107526756D01*
X36760457Y-107526755D01*
X36764605Y-107524214D01*
X36765762Y-107526103D01*
X36822887Y-107505704D01*
X36830001Y-107505500D01*
X39940765Y-107505500D01*
X39964048Y-107504501D01*
X39984011Y-107503646D01*
X40002136Y-107502089D01*
X40005158Y-107501830D01*
X40013747Y-107500719D01*
X40048109Y-107496279D01*
X40184947Y-107451816D01*
X40247648Y-107420987D01*
X40247649Y-107420987D01*
X40275995Y-107401602D01*
X40278355Y-107400141D01*
X40309453Y-107391562D01*
X40340125Y-107381596D01*
X40342921Y-107382330D01*
X40345709Y-107381562D01*
X40376501Y-107391155D01*
X40407699Y-107399355D01*
X40410929Y-107401882D01*
X40412416Y-107402346D01*
X40414121Y-107404380D01*
X40425095Y-107412968D01*
X40425473Y-107412526D01*
X40429168Y-107415681D01*
X40429177Y-107415690D01*
X40582051Y-107526760D01*
X40621710Y-107546967D01*
X40750413Y-107612545D01*
X40750415Y-107612545D01*
X40750418Y-107612547D01*
X40802594Y-107629500D01*
X40930131Y-107670940D01*
X41116764Y-107700500D01*
X41116769Y-107700500D01*
X41305736Y-107700500D01*
X41492368Y-107670940D01*
X41672082Y-107612547D01*
X41840449Y-107526760D01*
X41993323Y-107415690D01*
X41993337Y-107415675D01*
X41993593Y-107415458D01*
X41993719Y-107415401D01*
X41997264Y-107412826D01*
X41997804Y-107413570D01*
X42057350Y-107386878D01*
X42126437Y-107397304D01*
X42141181Y-107405422D01*
X42141406Y-107405567D01*
X42272283Y-107465338D01*
X42339322Y-107485023D01*
X42339326Y-107485024D01*
X42481742Y-107505500D01*
X42481745Y-107505500D01*
X43940765Y-107505500D01*
X43964048Y-107504501D01*
X43984011Y-107503646D01*
X44002136Y-107502089D01*
X44005158Y-107501830D01*
X44013747Y-107500719D01*
X44048109Y-107496279D01*
X44184947Y-107451816D01*
X44247648Y-107420987D01*
X44247649Y-107420987D01*
X44275995Y-107401602D01*
X44278355Y-107400141D01*
X44309453Y-107391562D01*
X44340125Y-107381596D01*
X44342921Y-107382330D01*
X44345709Y-107381562D01*
X44376501Y-107391155D01*
X44407699Y-107399355D01*
X44410929Y-107401882D01*
X44412416Y-107402346D01*
X44414121Y-107404380D01*
X44425095Y-107412968D01*
X44425473Y-107412526D01*
X44429168Y-107415681D01*
X44429177Y-107415690D01*
X44582051Y-107526760D01*
X44621710Y-107546967D01*
X44750413Y-107612545D01*
X44750415Y-107612545D01*
X44750418Y-107612547D01*
X44802594Y-107629500D01*
X44930131Y-107670940D01*
X45116764Y-107700500D01*
X45116769Y-107700500D01*
X45305736Y-107700500D01*
X45492368Y-107670940D01*
X45672082Y-107612547D01*
X45840449Y-107526760D01*
X45993323Y-107415690D01*
X45993337Y-107415675D01*
X45993593Y-107415458D01*
X45993719Y-107415401D01*
X45997264Y-107412826D01*
X45997804Y-107413570D01*
X46057350Y-107386878D01*
X46126437Y-107397304D01*
X46141181Y-107405422D01*
X46141406Y-107405567D01*
X46272283Y-107465338D01*
X46339322Y-107485023D01*
X46339326Y-107485024D01*
X46481742Y-107505500D01*
X46481745Y-107505500D01*
X49020765Y-107505500D01*
X49044048Y-107504501D01*
X49064011Y-107503646D01*
X49082136Y-107502089D01*
X49085158Y-107501830D01*
X49093747Y-107500719D01*
X49128109Y-107496279D01*
X49264947Y-107451816D01*
X49318897Y-107425289D01*
X49324773Y-107422953D01*
X49327648Y-107420987D01*
X49327649Y-107420987D01*
X49446417Y-107339772D01*
X49537493Y-107228387D01*
X49573573Y-107168553D01*
X49612798Y-107075731D01*
X49657026Y-107021642D01*
X49723476Y-107000051D01*
X49727018Y-107000000D01*
X50855929Y-107000000D01*
X50922968Y-107019685D01*
G37*
%TD.AperFunction*%
%TD*%
M02*
