%TF.GenerationSoftware,KiCad,Pcbnew,9.0.0*%
%TF.CreationDate,2025-04-13T00:13:36+03:00*%
%TF.ProjectId,power distribution,706f7765-7220-4646-9973-747269627574,rev?*%
%TF.SameCoordinates,Original*%
%TF.FileFunction,Drillmap*%
%TF.FilePolarity,Positive*%
%FSLAX45Y45*%
G04 Gerber Fmt 4.5, Leading zero omitted, Abs format (unit mm)*
G04 Created by KiCad (PCBNEW 9.0.0) date 2025-04-13 00:13:36*
%MOMM*%
%LPD*%
G01*
G04 APERTURE LIST*
%ADD10C,0.050000*%
%ADD11C,0.200000*%
%ADD12C,0.100000*%
G04 APERTURE END LIST*
D10*
X3000000Y-9650000D02*
X26800000Y-9657000D01*
X2700000Y-11350000D02*
X2700000Y-9950000D01*
X26800000Y-11650000D02*
X3000000Y-11650000D01*
X26800000Y-9950000D02*
X26800000Y-11350000D01*
X26500000Y-9657000D02*
G75*
G02*
X26800000Y-9957000I0J-300000D01*
G01*
X26800000Y-11357000D02*
G75*
G02*
X26500000Y-11657000I-300000J0D01*
G01*
X3000000Y-11650000D02*
G75*
G02*
X2700000Y-11350000I0J300000D01*
G01*
X2700000Y-9950000D02*
G75*
G02*
X3000000Y-9650000I300000J0D01*
G01*
D11*
D12*
X3578125Y-10115000D02*
X3648125Y-10185000D01*
X3648125Y-10115000D02*
X3578125Y-10185000D01*
X3578125Y-10615000D02*
X3648125Y-10685000D01*
X3648125Y-10615000D02*
X3578125Y-10685000D01*
X3578125Y-11115000D02*
X3648125Y-11185000D01*
X3648125Y-11115000D02*
X3578125Y-11185000D01*
X4086125Y-10115000D02*
X4156125Y-10185000D01*
X4156125Y-10115000D02*
X4086125Y-10185000D01*
X4086125Y-10615000D02*
X4156125Y-10685000D01*
X4156125Y-10615000D02*
X4086125Y-10685000D01*
X4086125Y-11115000D02*
X4156125Y-11185000D01*
X4156125Y-11115000D02*
X4086125Y-11185000D01*
X4486125Y-10115000D02*
X4556125Y-10185000D01*
X4556125Y-10115000D02*
X4486125Y-10185000D01*
X4486125Y-10615000D02*
X4556125Y-10685000D01*
X4556125Y-10615000D02*
X4486125Y-10685000D01*
X4486125Y-11115000D02*
X4556125Y-11185000D01*
X4556125Y-11115000D02*
X4486125Y-11185000D01*
X4994125Y-10115000D02*
X5064125Y-10185000D01*
X5064125Y-10115000D02*
X4994125Y-10185000D01*
X4994125Y-10615000D02*
X5064125Y-10685000D01*
X5064125Y-10615000D02*
X4994125Y-10685000D01*
X4994125Y-11115000D02*
X5064125Y-11185000D01*
X5064125Y-11115000D02*
X4994125Y-11185000D01*
X3047500Y-10250000D02*
G75*
G02*
X2952500Y-10250000I-47500J0D01*
G01*
X2952500Y-10250000D02*
G75*
G02*
X3047500Y-10250000I47500J0D01*
G01*
X3047500Y-10500000D02*
G75*
G02*
X2952500Y-10500000I-47500J0D01*
G01*
X2952500Y-10500000D02*
G75*
G02*
X3047500Y-10500000I47500J0D01*
G01*
X3047500Y-10750000D02*
G75*
G02*
X2952500Y-10750000I-47500J0D01*
G01*
X2952500Y-10750000D02*
G75*
G02*
X3047500Y-10750000I47500J0D01*
G01*
X3047500Y-11000000D02*
G75*
G02*
X2952500Y-11000000I-47500J0D01*
G01*
X2952500Y-11000000D02*
G75*
G02*
X3047500Y-11000000I47500J0D01*
G01*
X5447500Y-10250000D02*
G75*
G02*
X5352500Y-10250000I-47500J0D01*
G01*
X5352500Y-10250000D02*
G75*
G02*
X5447500Y-10250000I47500J0D01*
G01*
X5447500Y-10500000D02*
G75*
G02*
X5352500Y-10500000I-47500J0D01*
G01*
X5352500Y-10500000D02*
G75*
G02*
X5447500Y-10500000I47500J0D01*
G01*
X5447500Y-10750000D02*
G75*
G02*
X5352500Y-10750000I-47500J0D01*
G01*
X5352500Y-10750000D02*
G75*
G02*
X5447500Y-10750000I47500J0D01*
G01*
X5447500Y-11000000D02*
G75*
G02*
X5352500Y-11000000I-47500J0D01*
G01*
X5352500Y-11000000D02*
G75*
G02*
X5447500Y-11000000I47500J0D01*
G01*
X8947500Y-10250000D02*
G75*
G02*
X8852500Y-10250000I-47500J0D01*
G01*
X8852500Y-10250000D02*
G75*
G02*
X8947500Y-10250000I47500J0D01*
G01*
X8947500Y-10500000D02*
G75*
G02*
X8852500Y-10500000I-47500J0D01*
G01*
X8852500Y-10500000D02*
G75*
G02*
X8947500Y-10500000I47500J0D01*
G01*
X8947500Y-10750000D02*
G75*
G02*
X8852500Y-10750000I-47500J0D01*
G01*
X8852500Y-10750000D02*
G75*
G02*
X8947500Y-10750000I47500J0D01*
G01*
X8947500Y-11000000D02*
G75*
G02*
X8852500Y-11000000I-47500J0D01*
G01*
X8852500Y-11000000D02*
G75*
G02*
X8947500Y-11000000I47500J0D01*
G01*
X12447500Y-10243000D02*
G75*
G02*
X12352500Y-10243000I-47500J0D01*
G01*
X12352500Y-10243000D02*
G75*
G02*
X12447500Y-10243000I47500J0D01*
G01*
X12447500Y-10493000D02*
G75*
G02*
X12352500Y-10493000I-47500J0D01*
G01*
X12352500Y-10493000D02*
G75*
G02*
X12447500Y-10493000I47500J0D01*
G01*
X12447500Y-10743000D02*
G75*
G02*
X12352500Y-10743000I-47500J0D01*
G01*
X12352500Y-10743000D02*
G75*
G02*
X12447500Y-10743000I47500J0D01*
G01*
X12447500Y-10993000D02*
G75*
G02*
X12352500Y-10993000I-47500J0D01*
G01*
X12352500Y-10993000D02*
G75*
G02*
X12447500Y-10993000I47500J0D01*
G01*
X15947500Y-10243000D02*
G75*
G02*
X15852500Y-10243000I-47500J0D01*
G01*
X15852500Y-10243000D02*
G75*
G02*
X15947500Y-10243000I47500J0D01*
G01*
X15947500Y-10493000D02*
G75*
G02*
X15852500Y-10493000I-47500J0D01*
G01*
X15852500Y-10493000D02*
G75*
G02*
X15947500Y-10493000I47500J0D01*
G01*
X15947500Y-10743000D02*
G75*
G02*
X15852500Y-10743000I-47500J0D01*
G01*
X15852500Y-10743000D02*
G75*
G02*
X15947500Y-10743000I47500J0D01*
G01*
X15947500Y-10993000D02*
G75*
G02*
X15852500Y-10993000I-47500J0D01*
G01*
X15852500Y-10993000D02*
G75*
G02*
X15947500Y-10993000I47500J0D01*
G01*
X19447500Y-10243000D02*
G75*
G02*
X19352500Y-10243000I-47500J0D01*
G01*
X19352500Y-10243000D02*
G75*
G02*
X19447500Y-10243000I47500J0D01*
G01*
X19447500Y-10493000D02*
G75*
G02*
X19352500Y-10493000I-47500J0D01*
G01*
X19352500Y-10493000D02*
G75*
G02*
X19447500Y-10493000I47500J0D01*
G01*
X19447500Y-10743000D02*
G75*
G02*
X19352500Y-10743000I-47500J0D01*
G01*
X19352500Y-10743000D02*
G75*
G02*
X19447500Y-10743000I47500J0D01*
G01*
X19447500Y-10993000D02*
G75*
G02*
X19352500Y-10993000I-47500J0D01*
G01*
X19352500Y-10993000D02*
G75*
G02*
X19447500Y-10993000I47500J0D01*
G01*
X22947500Y-10250000D02*
G75*
G02*
X22852500Y-10250000I-47500J0D01*
G01*
X22852500Y-10250000D02*
G75*
G02*
X22947500Y-10250000I47500J0D01*
G01*
X22947500Y-10500000D02*
G75*
G02*
X22852500Y-10500000I-47500J0D01*
G01*
X22852500Y-10500000D02*
G75*
G02*
X22947500Y-10500000I47500J0D01*
G01*
X22947500Y-10750000D02*
G75*
G02*
X22852500Y-10750000I-47500J0D01*
G01*
X22852500Y-10750000D02*
G75*
G02*
X22947500Y-10750000I47500J0D01*
G01*
X22947500Y-11000000D02*
G75*
G02*
X22852500Y-11000000I-47500J0D01*
G01*
X22852500Y-11000000D02*
G75*
G02*
X22947500Y-11000000I47500J0D01*
G01*
X26447500Y-10250000D02*
G75*
G02*
X26352500Y-10250000I-47500J0D01*
G01*
X26352500Y-10250000D02*
G75*
G02*
X26447500Y-10250000I47500J0D01*
G01*
X26447500Y-10500000D02*
G75*
G02*
X26352500Y-10500000I-47500J0D01*
G01*
X26352500Y-10500000D02*
G75*
G02*
X26447500Y-10500000I47500J0D01*
G01*
X26447500Y-10750000D02*
G75*
G02*
X26352500Y-10750000I-47500J0D01*
G01*
X26352500Y-10750000D02*
G75*
G02*
X26447500Y-10750000I47500J0D01*
G01*
X26447500Y-11000000D02*
G75*
G02*
X26352500Y-11000000I-47500J0D01*
G01*
X26352500Y-11000000D02*
G75*
G02*
X26447500Y-11000000I47500J0D01*
G01*
D11*
X2958277Y-11970984D02*
X2958277Y-11770984D01*
X2958277Y-11770984D02*
X3005896Y-11770984D01*
X3005896Y-11770984D02*
X3034467Y-11780508D01*
X3034467Y-11780508D02*
X3053515Y-11799555D01*
X3053515Y-11799555D02*
X3063039Y-11818603D01*
X3063039Y-11818603D02*
X3072562Y-11856698D01*
X3072562Y-11856698D02*
X3072562Y-11885269D01*
X3072562Y-11885269D02*
X3063039Y-11923365D01*
X3063039Y-11923365D02*
X3053515Y-11942412D01*
X3053515Y-11942412D02*
X3034467Y-11961460D01*
X3034467Y-11961460D02*
X3005896Y-11970984D01*
X3005896Y-11970984D02*
X2958277Y-11970984D01*
X3158277Y-11970984D02*
X3158277Y-11837650D01*
X3158277Y-11875746D02*
X3167801Y-11856698D01*
X3167801Y-11856698D02*
X3177324Y-11847174D01*
X3177324Y-11847174D02*
X3196372Y-11837650D01*
X3196372Y-11837650D02*
X3215420Y-11837650D01*
X3282086Y-11970984D02*
X3282086Y-11837650D01*
X3282086Y-11770984D02*
X3272562Y-11780508D01*
X3272562Y-11780508D02*
X3282086Y-11790031D01*
X3282086Y-11790031D02*
X3291610Y-11780508D01*
X3291610Y-11780508D02*
X3282086Y-11770984D01*
X3282086Y-11770984D02*
X3282086Y-11790031D01*
X3405896Y-11970984D02*
X3386848Y-11961460D01*
X3386848Y-11961460D02*
X3377324Y-11942412D01*
X3377324Y-11942412D02*
X3377324Y-11770984D01*
X3510658Y-11970984D02*
X3491610Y-11961460D01*
X3491610Y-11961460D02*
X3482086Y-11942412D01*
X3482086Y-11942412D02*
X3482086Y-11770984D01*
X3739229Y-11970984D02*
X3739229Y-11770984D01*
X3739229Y-11770984D02*
X3805896Y-11913841D01*
X3805896Y-11913841D02*
X3872562Y-11770984D01*
X3872562Y-11770984D02*
X3872562Y-11970984D01*
X4053515Y-11970984D02*
X4053515Y-11866222D01*
X4053515Y-11866222D02*
X4043991Y-11847174D01*
X4043991Y-11847174D02*
X4024943Y-11837650D01*
X4024943Y-11837650D02*
X3986848Y-11837650D01*
X3986848Y-11837650D02*
X3967801Y-11847174D01*
X4053515Y-11961460D02*
X4034467Y-11970984D01*
X4034467Y-11970984D02*
X3986848Y-11970984D01*
X3986848Y-11970984D02*
X3967801Y-11961460D01*
X3967801Y-11961460D02*
X3958277Y-11942412D01*
X3958277Y-11942412D02*
X3958277Y-11923365D01*
X3958277Y-11923365D02*
X3967801Y-11904317D01*
X3967801Y-11904317D02*
X3986848Y-11894793D01*
X3986848Y-11894793D02*
X4034467Y-11894793D01*
X4034467Y-11894793D02*
X4053515Y-11885269D01*
X4148753Y-11837650D02*
X4148753Y-12037650D01*
X4148753Y-11847174D02*
X4167801Y-11837650D01*
X4167801Y-11837650D02*
X4205896Y-11837650D01*
X4205896Y-11837650D02*
X4224944Y-11847174D01*
X4224944Y-11847174D02*
X4234467Y-11856698D01*
X4234467Y-11856698D02*
X4243991Y-11875746D01*
X4243991Y-11875746D02*
X4243991Y-11932888D01*
X4243991Y-11932888D02*
X4234467Y-11951936D01*
X4234467Y-11951936D02*
X4224944Y-11961460D01*
X4224944Y-11961460D02*
X4205896Y-11970984D01*
X4205896Y-11970984D02*
X4167801Y-11970984D01*
X4167801Y-11970984D02*
X4148753Y-11961460D01*
X4329705Y-11951936D02*
X4339229Y-11961460D01*
X4339229Y-11961460D02*
X4329705Y-11970984D01*
X4329705Y-11970984D02*
X4320182Y-11961460D01*
X4320182Y-11961460D02*
X4329705Y-11951936D01*
X4329705Y-11951936D02*
X4329705Y-11970984D01*
X4329705Y-11847174D02*
X4339229Y-11856698D01*
X4339229Y-11856698D02*
X4329705Y-11866222D01*
X4329705Y-11866222D02*
X4320182Y-11856698D01*
X4320182Y-11856698D02*
X4329705Y-11847174D01*
X4329705Y-11847174D02*
X4329705Y-11866222D01*
D12*
X2627500Y-12264500D02*
X2697500Y-12334500D01*
X2697500Y-12264500D02*
X2627500Y-12334500D01*
D11*
X2996372Y-12190984D02*
X3015420Y-12190984D01*
X3015420Y-12190984D02*
X3034467Y-12200508D01*
X3034467Y-12200508D02*
X3043991Y-12210031D01*
X3043991Y-12210031D02*
X3053515Y-12229079D01*
X3053515Y-12229079D02*
X3063039Y-12267174D01*
X3063039Y-12267174D02*
X3063039Y-12314793D01*
X3063039Y-12314793D02*
X3053515Y-12352888D01*
X3053515Y-12352888D02*
X3043991Y-12371936D01*
X3043991Y-12371936D02*
X3034467Y-12381460D01*
X3034467Y-12381460D02*
X3015420Y-12390984D01*
X3015420Y-12390984D02*
X2996372Y-12390984D01*
X2996372Y-12390984D02*
X2977324Y-12381460D01*
X2977324Y-12381460D02*
X2967801Y-12371936D01*
X2967801Y-12371936D02*
X2958277Y-12352888D01*
X2958277Y-12352888D02*
X2948753Y-12314793D01*
X2948753Y-12314793D02*
X2948753Y-12267174D01*
X2948753Y-12267174D02*
X2958277Y-12229079D01*
X2958277Y-12229079D02*
X2967801Y-12210031D01*
X2967801Y-12210031D02*
X2977324Y-12200508D01*
X2977324Y-12200508D02*
X2996372Y-12190984D01*
X3148753Y-12371936D02*
X3158277Y-12381460D01*
X3158277Y-12381460D02*
X3148753Y-12390984D01*
X3148753Y-12390984D02*
X3139229Y-12381460D01*
X3139229Y-12381460D02*
X3148753Y-12371936D01*
X3148753Y-12371936D02*
X3148753Y-12390984D01*
X3224943Y-12190984D02*
X3358277Y-12190984D01*
X3358277Y-12190984D02*
X3272562Y-12390984D01*
X3472562Y-12190984D02*
X3491610Y-12190984D01*
X3491610Y-12190984D02*
X3510658Y-12200508D01*
X3510658Y-12200508D02*
X3520182Y-12210031D01*
X3520182Y-12210031D02*
X3529705Y-12229079D01*
X3529705Y-12229079D02*
X3539229Y-12267174D01*
X3539229Y-12267174D02*
X3539229Y-12314793D01*
X3539229Y-12314793D02*
X3529705Y-12352888D01*
X3529705Y-12352888D02*
X3520182Y-12371936D01*
X3520182Y-12371936D02*
X3510658Y-12381460D01*
X3510658Y-12381460D02*
X3491610Y-12390984D01*
X3491610Y-12390984D02*
X3472562Y-12390984D01*
X3472562Y-12390984D02*
X3453515Y-12381460D01*
X3453515Y-12381460D02*
X3443991Y-12371936D01*
X3443991Y-12371936D02*
X3434467Y-12352888D01*
X3434467Y-12352888D02*
X3424943Y-12314793D01*
X3424943Y-12314793D02*
X3424943Y-12267174D01*
X3424943Y-12267174D02*
X3434467Y-12229079D01*
X3434467Y-12229079D02*
X3443991Y-12210031D01*
X3443991Y-12210031D02*
X3453515Y-12200508D01*
X3453515Y-12200508D02*
X3472562Y-12190984D01*
X3663039Y-12190984D02*
X3682086Y-12190984D01*
X3682086Y-12190984D02*
X3701134Y-12200508D01*
X3701134Y-12200508D02*
X3710658Y-12210031D01*
X3710658Y-12210031D02*
X3720182Y-12229079D01*
X3720182Y-12229079D02*
X3729705Y-12267174D01*
X3729705Y-12267174D02*
X3729705Y-12314793D01*
X3729705Y-12314793D02*
X3720182Y-12352888D01*
X3720182Y-12352888D02*
X3710658Y-12371936D01*
X3710658Y-12371936D02*
X3701134Y-12381460D01*
X3701134Y-12381460D02*
X3682086Y-12390984D01*
X3682086Y-12390984D02*
X3663039Y-12390984D01*
X3663039Y-12390984D02*
X3643991Y-12381460D01*
X3643991Y-12381460D02*
X3634467Y-12371936D01*
X3634467Y-12371936D02*
X3624943Y-12352888D01*
X3624943Y-12352888D02*
X3615420Y-12314793D01*
X3615420Y-12314793D02*
X3615420Y-12267174D01*
X3615420Y-12267174D02*
X3624943Y-12229079D01*
X3624943Y-12229079D02*
X3634467Y-12210031D01*
X3634467Y-12210031D02*
X3643991Y-12200508D01*
X3643991Y-12200508D02*
X3663039Y-12190984D01*
X3815420Y-12390984D02*
X3815420Y-12257650D01*
X3815420Y-12276698D02*
X3824943Y-12267174D01*
X3824943Y-12267174D02*
X3843991Y-12257650D01*
X3843991Y-12257650D02*
X3872563Y-12257650D01*
X3872563Y-12257650D02*
X3891610Y-12267174D01*
X3891610Y-12267174D02*
X3901134Y-12286222D01*
X3901134Y-12286222D02*
X3901134Y-12390984D01*
X3901134Y-12286222D02*
X3910658Y-12267174D01*
X3910658Y-12267174D02*
X3929705Y-12257650D01*
X3929705Y-12257650D02*
X3958277Y-12257650D01*
X3958277Y-12257650D02*
X3977324Y-12267174D01*
X3977324Y-12267174D02*
X3986848Y-12286222D01*
X3986848Y-12286222D02*
X3986848Y-12390984D01*
X4082086Y-12390984D02*
X4082086Y-12257650D01*
X4082086Y-12276698D02*
X4091610Y-12267174D01*
X4091610Y-12267174D02*
X4110658Y-12257650D01*
X4110658Y-12257650D02*
X4139229Y-12257650D01*
X4139229Y-12257650D02*
X4158277Y-12267174D01*
X4158277Y-12267174D02*
X4167801Y-12286222D01*
X4167801Y-12286222D02*
X4167801Y-12390984D01*
X4167801Y-12286222D02*
X4177324Y-12267174D01*
X4177324Y-12267174D02*
X4196372Y-12257650D01*
X4196372Y-12257650D02*
X4224944Y-12257650D01*
X4224944Y-12257650D02*
X4243991Y-12267174D01*
X4243991Y-12267174D02*
X4253515Y-12286222D01*
X4253515Y-12286222D02*
X4253515Y-12390984D01*
X4643991Y-12181460D02*
X4472563Y-12438603D01*
X4901134Y-12190984D02*
X4920182Y-12190984D01*
X4920182Y-12190984D02*
X4939229Y-12200508D01*
X4939229Y-12200508D02*
X4948753Y-12210031D01*
X4948753Y-12210031D02*
X4958277Y-12229079D01*
X4958277Y-12229079D02*
X4967801Y-12267174D01*
X4967801Y-12267174D02*
X4967801Y-12314793D01*
X4967801Y-12314793D02*
X4958277Y-12352888D01*
X4958277Y-12352888D02*
X4948753Y-12371936D01*
X4948753Y-12371936D02*
X4939229Y-12381460D01*
X4939229Y-12381460D02*
X4920182Y-12390984D01*
X4920182Y-12390984D02*
X4901134Y-12390984D01*
X4901134Y-12390984D02*
X4882087Y-12381460D01*
X4882087Y-12381460D02*
X4872563Y-12371936D01*
X4872563Y-12371936D02*
X4863039Y-12352888D01*
X4863039Y-12352888D02*
X4853515Y-12314793D01*
X4853515Y-12314793D02*
X4853515Y-12267174D01*
X4853515Y-12267174D02*
X4863039Y-12229079D01*
X4863039Y-12229079D02*
X4872563Y-12210031D01*
X4872563Y-12210031D02*
X4882087Y-12200508D01*
X4882087Y-12200508D02*
X4901134Y-12190984D01*
X5053515Y-12371936D02*
X5063039Y-12381460D01*
X5063039Y-12381460D02*
X5053515Y-12390984D01*
X5053515Y-12390984D02*
X5043991Y-12381460D01*
X5043991Y-12381460D02*
X5053515Y-12371936D01*
X5053515Y-12371936D02*
X5053515Y-12390984D01*
X5186848Y-12190984D02*
X5205896Y-12190984D01*
X5205896Y-12190984D02*
X5224944Y-12200508D01*
X5224944Y-12200508D02*
X5234468Y-12210031D01*
X5234468Y-12210031D02*
X5243991Y-12229079D01*
X5243991Y-12229079D02*
X5253515Y-12267174D01*
X5253515Y-12267174D02*
X5253515Y-12314793D01*
X5253515Y-12314793D02*
X5243991Y-12352888D01*
X5243991Y-12352888D02*
X5234468Y-12371936D01*
X5234468Y-12371936D02*
X5224944Y-12381460D01*
X5224944Y-12381460D02*
X5205896Y-12390984D01*
X5205896Y-12390984D02*
X5186848Y-12390984D01*
X5186848Y-12390984D02*
X5167801Y-12381460D01*
X5167801Y-12381460D02*
X5158277Y-12371936D01*
X5158277Y-12371936D02*
X5148753Y-12352888D01*
X5148753Y-12352888D02*
X5139229Y-12314793D01*
X5139229Y-12314793D02*
X5139229Y-12267174D01*
X5139229Y-12267174D02*
X5148753Y-12229079D01*
X5148753Y-12229079D02*
X5158277Y-12210031D01*
X5158277Y-12210031D02*
X5167801Y-12200508D01*
X5167801Y-12200508D02*
X5186848Y-12190984D01*
X5329706Y-12210031D02*
X5339229Y-12200508D01*
X5339229Y-12200508D02*
X5358277Y-12190984D01*
X5358277Y-12190984D02*
X5405896Y-12190984D01*
X5405896Y-12190984D02*
X5424944Y-12200508D01*
X5424944Y-12200508D02*
X5434468Y-12210031D01*
X5434468Y-12210031D02*
X5443991Y-12229079D01*
X5443991Y-12229079D02*
X5443991Y-12248127D01*
X5443991Y-12248127D02*
X5434468Y-12276698D01*
X5434468Y-12276698D02*
X5320182Y-12390984D01*
X5320182Y-12390984D02*
X5443991Y-12390984D01*
X5510658Y-12190984D02*
X5643991Y-12190984D01*
X5643991Y-12190984D02*
X5558277Y-12390984D01*
X5805896Y-12190984D02*
X5767801Y-12190984D01*
X5767801Y-12190984D02*
X5748753Y-12200508D01*
X5748753Y-12200508D02*
X5739229Y-12210031D01*
X5739229Y-12210031D02*
X5720182Y-12238603D01*
X5720182Y-12238603D02*
X5710658Y-12276698D01*
X5710658Y-12276698D02*
X5710658Y-12352888D01*
X5710658Y-12352888D02*
X5720182Y-12371936D01*
X5720182Y-12371936D02*
X5729706Y-12381460D01*
X5729706Y-12381460D02*
X5748753Y-12390984D01*
X5748753Y-12390984D02*
X5786848Y-12390984D01*
X5786848Y-12390984D02*
X5805896Y-12381460D01*
X5805896Y-12381460D02*
X5815420Y-12371936D01*
X5815420Y-12371936D02*
X5824944Y-12352888D01*
X5824944Y-12352888D02*
X5824944Y-12305269D01*
X5824944Y-12305269D02*
X5815420Y-12286222D01*
X5815420Y-12286222D02*
X5805896Y-12276698D01*
X5805896Y-12276698D02*
X5786848Y-12267174D01*
X5786848Y-12267174D02*
X5748753Y-12267174D01*
X5748753Y-12267174D02*
X5729706Y-12276698D01*
X5729706Y-12276698D02*
X5720182Y-12286222D01*
X5720182Y-12286222D02*
X5710658Y-12305269D01*
X5901134Y-12190984D02*
X5901134Y-12229079D01*
X5977325Y-12190984D02*
X5977325Y-12229079D01*
X6272563Y-12467174D02*
X6263039Y-12457650D01*
X6263039Y-12457650D02*
X6243991Y-12429079D01*
X6243991Y-12429079D02*
X6234468Y-12410031D01*
X6234468Y-12410031D02*
X6224944Y-12381460D01*
X6224944Y-12381460D02*
X6215420Y-12333841D01*
X6215420Y-12333841D02*
X6215420Y-12295746D01*
X6215420Y-12295746D02*
X6224944Y-12248127D01*
X6224944Y-12248127D02*
X6234468Y-12219555D01*
X6234468Y-12219555D02*
X6243991Y-12200508D01*
X6243991Y-12200508D02*
X6263039Y-12171936D01*
X6263039Y-12171936D02*
X6272563Y-12162412D01*
X6453515Y-12390984D02*
X6339229Y-12390984D01*
X6396372Y-12390984D02*
X6396372Y-12190984D01*
X6396372Y-12190984D02*
X6377325Y-12219555D01*
X6377325Y-12219555D02*
X6358277Y-12238603D01*
X6358277Y-12238603D02*
X6339229Y-12248127D01*
X6529706Y-12210031D02*
X6539229Y-12200508D01*
X6539229Y-12200508D02*
X6558277Y-12190984D01*
X6558277Y-12190984D02*
X6605896Y-12190984D01*
X6605896Y-12190984D02*
X6624944Y-12200508D01*
X6624944Y-12200508D02*
X6634468Y-12210031D01*
X6634468Y-12210031D02*
X6643991Y-12229079D01*
X6643991Y-12229079D02*
X6643991Y-12248127D01*
X6643991Y-12248127D02*
X6634468Y-12276698D01*
X6634468Y-12276698D02*
X6520182Y-12390984D01*
X6520182Y-12390984D02*
X6643991Y-12390984D01*
X6882087Y-12390984D02*
X6882087Y-12190984D01*
X6967801Y-12390984D02*
X6967801Y-12286222D01*
X6967801Y-12286222D02*
X6958277Y-12267174D01*
X6958277Y-12267174D02*
X6939230Y-12257650D01*
X6939230Y-12257650D02*
X6910658Y-12257650D01*
X6910658Y-12257650D02*
X6891610Y-12267174D01*
X6891610Y-12267174D02*
X6882087Y-12276698D01*
X7091610Y-12390984D02*
X7072563Y-12381460D01*
X7072563Y-12381460D02*
X7063039Y-12371936D01*
X7063039Y-12371936D02*
X7053515Y-12352888D01*
X7053515Y-12352888D02*
X7053515Y-12295746D01*
X7053515Y-12295746D02*
X7063039Y-12276698D01*
X7063039Y-12276698D02*
X7072563Y-12267174D01*
X7072563Y-12267174D02*
X7091610Y-12257650D01*
X7091610Y-12257650D02*
X7120182Y-12257650D01*
X7120182Y-12257650D02*
X7139230Y-12267174D01*
X7139230Y-12267174D02*
X7148753Y-12276698D01*
X7148753Y-12276698D02*
X7158277Y-12295746D01*
X7158277Y-12295746D02*
X7158277Y-12352888D01*
X7158277Y-12352888D02*
X7148753Y-12371936D01*
X7148753Y-12371936D02*
X7139230Y-12381460D01*
X7139230Y-12381460D02*
X7120182Y-12390984D01*
X7120182Y-12390984D02*
X7091610Y-12390984D01*
X7272563Y-12390984D02*
X7253515Y-12381460D01*
X7253515Y-12381460D02*
X7243991Y-12362412D01*
X7243991Y-12362412D02*
X7243991Y-12190984D01*
X7424944Y-12381460D02*
X7405896Y-12390984D01*
X7405896Y-12390984D02*
X7367801Y-12390984D01*
X7367801Y-12390984D02*
X7348753Y-12381460D01*
X7348753Y-12381460D02*
X7339230Y-12362412D01*
X7339230Y-12362412D02*
X7339230Y-12286222D01*
X7339230Y-12286222D02*
X7348753Y-12267174D01*
X7348753Y-12267174D02*
X7367801Y-12257650D01*
X7367801Y-12257650D02*
X7405896Y-12257650D01*
X7405896Y-12257650D02*
X7424944Y-12267174D01*
X7424944Y-12267174D02*
X7434468Y-12286222D01*
X7434468Y-12286222D02*
X7434468Y-12305269D01*
X7434468Y-12305269D02*
X7339230Y-12324317D01*
X7510658Y-12381460D02*
X7529706Y-12390984D01*
X7529706Y-12390984D02*
X7567801Y-12390984D01*
X7567801Y-12390984D02*
X7586849Y-12381460D01*
X7586849Y-12381460D02*
X7596372Y-12362412D01*
X7596372Y-12362412D02*
X7596372Y-12352888D01*
X7596372Y-12352888D02*
X7586849Y-12333841D01*
X7586849Y-12333841D02*
X7567801Y-12324317D01*
X7567801Y-12324317D02*
X7539230Y-12324317D01*
X7539230Y-12324317D02*
X7520182Y-12314793D01*
X7520182Y-12314793D02*
X7510658Y-12295746D01*
X7510658Y-12295746D02*
X7510658Y-12286222D01*
X7510658Y-12286222D02*
X7520182Y-12267174D01*
X7520182Y-12267174D02*
X7539230Y-12257650D01*
X7539230Y-12257650D02*
X7567801Y-12257650D01*
X7567801Y-12257650D02*
X7586849Y-12267174D01*
X7663039Y-12467174D02*
X7672563Y-12457650D01*
X7672563Y-12457650D02*
X7691611Y-12429079D01*
X7691611Y-12429079D02*
X7701134Y-12410031D01*
X7701134Y-12410031D02*
X7710658Y-12381460D01*
X7710658Y-12381460D02*
X7720182Y-12333841D01*
X7720182Y-12333841D02*
X7720182Y-12295746D01*
X7720182Y-12295746D02*
X7710658Y-12248127D01*
X7710658Y-12248127D02*
X7701134Y-12219555D01*
X7701134Y-12219555D02*
X7691611Y-12200508D01*
X7691611Y-12200508D02*
X7672563Y-12171936D01*
X7672563Y-12171936D02*
X7663039Y-12162412D01*
D12*
X2697500Y-12563500D02*
G75*
G02*
X2602500Y-12563500I-47500J0D01*
G01*
X2602500Y-12563500D02*
G75*
G02*
X2697500Y-12563500I47500J0D01*
G01*
D11*
X2996372Y-12454984D02*
X3015420Y-12454984D01*
X3015420Y-12454984D02*
X3034467Y-12464508D01*
X3034467Y-12464508D02*
X3043991Y-12474031D01*
X3043991Y-12474031D02*
X3053515Y-12493079D01*
X3053515Y-12493079D02*
X3063039Y-12531174D01*
X3063039Y-12531174D02*
X3063039Y-12578793D01*
X3063039Y-12578793D02*
X3053515Y-12616888D01*
X3053515Y-12616888D02*
X3043991Y-12635936D01*
X3043991Y-12635936D02*
X3034467Y-12645460D01*
X3034467Y-12645460D02*
X3015420Y-12654984D01*
X3015420Y-12654984D02*
X2996372Y-12654984D01*
X2996372Y-12654984D02*
X2977324Y-12645460D01*
X2977324Y-12645460D02*
X2967801Y-12635936D01*
X2967801Y-12635936D02*
X2958277Y-12616888D01*
X2958277Y-12616888D02*
X2948753Y-12578793D01*
X2948753Y-12578793D02*
X2948753Y-12531174D01*
X2948753Y-12531174D02*
X2958277Y-12493079D01*
X2958277Y-12493079D02*
X2967801Y-12474031D01*
X2967801Y-12474031D02*
X2977324Y-12464508D01*
X2977324Y-12464508D02*
X2996372Y-12454984D01*
X3148753Y-12635936D02*
X3158277Y-12645460D01*
X3158277Y-12645460D02*
X3148753Y-12654984D01*
X3148753Y-12654984D02*
X3139229Y-12645460D01*
X3139229Y-12645460D02*
X3148753Y-12635936D01*
X3148753Y-12635936D02*
X3148753Y-12654984D01*
X3253515Y-12654984D02*
X3291610Y-12654984D01*
X3291610Y-12654984D02*
X3310658Y-12645460D01*
X3310658Y-12645460D02*
X3320182Y-12635936D01*
X3320182Y-12635936D02*
X3339229Y-12607365D01*
X3339229Y-12607365D02*
X3348753Y-12569269D01*
X3348753Y-12569269D02*
X3348753Y-12493079D01*
X3348753Y-12493079D02*
X3339229Y-12474031D01*
X3339229Y-12474031D02*
X3329705Y-12464508D01*
X3329705Y-12464508D02*
X3310658Y-12454984D01*
X3310658Y-12454984D02*
X3272562Y-12454984D01*
X3272562Y-12454984D02*
X3253515Y-12464508D01*
X3253515Y-12464508D02*
X3243991Y-12474031D01*
X3243991Y-12474031D02*
X3234467Y-12493079D01*
X3234467Y-12493079D02*
X3234467Y-12540698D01*
X3234467Y-12540698D02*
X3243991Y-12559746D01*
X3243991Y-12559746D02*
X3253515Y-12569269D01*
X3253515Y-12569269D02*
X3272562Y-12578793D01*
X3272562Y-12578793D02*
X3310658Y-12578793D01*
X3310658Y-12578793D02*
X3329705Y-12569269D01*
X3329705Y-12569269D02*
X3339229Y-12559746D01*
X3339229Y-12559746D02*
X3348753Y-12540698D01*
X3529705Y-12454984D02*
X3434467Y-12454984D01*
X3434467Y-12454984D02*
X3424943Y-12550222D01*
X3424943Y-12550222D02*
X3434467Y-12540698D01*
X3434467Y-12540698D02*
X3453515Y-12531174D01*
X3453515Y-12531174D02*
X3501134Y-12531174D01*
X3501134Y-12531174D02*
X3520182Y-12540698D01*
X3520182Y-12540698D02*
X3529705Y-12550222D01*
X3529705Y-12550222D02*
X3539229Y-12569269D01*
X3539229Y-12569269D02*
X3539229Y-12616888D01*
X3539229Y-12616888D02*
X3529705Y-12635936D01*
X3529705Y-12635936D02*
X3520182Y-12645460D01*
X3520182Y-12645460D02*
X3501134Y-12654984D01*
X3501134Y-12654984D02*
X3453515Y-12654984D01*
X3453515Y-12654984D02*
X3434467Y-12645460D01*
X3434467Y-12645460D02*
X3424943Y-12635936D01*
X3663039Y-12454984D02*
X3682086Y-12454984D01*
X3682086Y-12454984D02*
X3701134Y-12464508D01*
X3701134Y-12464508D02*
X3710658Y-12474031D01*
X3710658Y-12474031D02*
X3720182Y-12493079D01*
X3720182Y-12493079D02*
X3729705Y-12531174D01*
X3729705Y-12531174D02*
X3729705Y-12578793D01*
X3729705Y-12578793D02*
X3720182Y-12616888D01*
X3720182Y-12616888D02*
X3710658Y-12635936D01*
X3710658Y-12635936D02*
X3701134Y-12645460D01*
X3701134Y-12645460D02*
X3682086Y-12654984D01*
X3682086Y-12654984D02*
X3663039Y-12654984D01*
X3663039Y-12654984D02*
X3643991Y-12645460D01*
X3643991Y-12645460D02*
X3634467Y-12635936D01*
X3634467Y-12635936D02*
X3624943Y-12616888D01*
X3624943Y-12616888D02*
X3615420Y-12578793D01*
X3615420Y-12578793D02*
X3615420Y-12531174D01*
X3615420Y-12531174D02*
X3624943Y-12493079D01*
X3624943Y-12493079D02*
X3634467Y-12474031D01*
X3634467Y-12474031D02*
X3643991Y-12464508D01*
X3643991Y-12464508D02*
X3663039Y-12454984D01*
X3815420Y-12654984D02*
X3815420Y-12521650D01*
X3815420Y-12540698D02*
X3824943Y-12531174D01*
X3824943Y-12531174D02*
X3843991Y-12521650D01*
X3843991Y-12521650D02*
X3872563Y-12521650D01*
X3872563Y-12521650D02*
X3891610Y-12531174D01*
X3891610Y-12531174D02*
X3901134Y-12550222D01*
X3901134Y-12550222D02*
X3901134Y-12654984D01*
X3901134Y-12550222D02*
X3910658Y-12531174D01*
X3910658Y-12531174D02*
X3929705Y-12521650D01*
X3929705Y-12521650D02*
X3958277Y-12521650D01*
X3958277Y-12521650D02*
X3977324Y-12531174D01*
X3977324Y-12531174D02*
X3986848Y-12550222D01*
X3986848Y-12550222D02*
X3986848Y-12654984D01*
X4082086Y-12654984D02*
X4082086Y-12521650D01*
X4082086Y-12540698D02*
X4091610Y-12531174D01*
X4091610Y-12531174D02*
X4110658Y-12521650D01*
X4110658Y-12521650D02*
X4139229Y-12521650D01*
X4139229Y-12521650D02*
X4158277Y-12531174D01*
X4158277Y-12531174D02*
X4167801Y-12550222D01*
X4167801Y-12550222D02*
X4167801Y-12654984D01*
X4167801Y-12550222D02*
X4177324Y-12531174D01*
X4177324Y-12531174D02*
X4196372Y-12521650D01*
X4196372Y-12521650D02*
X4224944Y-12521650D01*
X4224944Y-12521650D02*
X4243991Y-12531174D01*
X4243991Y-12531174D02*
X4253515Y-12550222D01*
X4253515Y-12550222D02*
X4253515Y-12654984D01*
X4643991Y-12445460D02*
X4472563Y-12702603D01*
X4901134Y-12454984D02*
X4920182Y-12454984D01*
X4920182Y-12454984D02*
X4939229Y-12464508D01*
X4939229Y-12464508D02*
X4948753Y-12474031D01*
X4948753Y-12474031D02*
X4958277Y-12493079D01*
X4958277Y-12493079D02*
X4967801Y-12531174D01*
X4967801Y-12531174D02*
X4967801Y-12578793D01*
X4967801Y-12578793D02*
X4958277Y-12616888D01*
X4958277Y-12616888D02*
X4948753Y-12635936D01*
X4948753Y-12635936D02*
X4939229Y-12645460D01*
X4939229Y-12645460D02*
X4920182Y-12654984D01*
X4920182Y-12654984D02*
X4901134Y-12654984D01*
X4901134Y-12654984D02*
X4882087Y-12645460D01*
X4882087Y-12645460D02*
X4872563Y-12635936D01*
X4872563Y-12635936D02*
X4863039Y-12616888D01*
X4863039Y-12616888D02*
X4853515Y-12578793D01*
X4853515Y-12578793D02*
X4853515Y-12531174D01*
X4853515Y-12531174D02*
X4863039Y-12493079D01*
X4863039Y-12493079D02*
X4872563Y-12474031D01*
X4872563Y-12474031D02*
X4882087Y-12464508D01*
X4882087Y-12464508D02*
X4901134Y-12454984D01*
X5053515Y-12635936D02*
X5063039Y-12645460D01*
X5063039Y-12645460D02*
X5053515Y-12654984D01*
X5053515Y-12654984D02*
X5043991Y-12645460D01*
X5043991Y-12645460D02*
X5053515Y-12635936D01*
X5053515Y-12635936D02*
X5053515Y-12654984D01*
X5186848Y-12454984D02*
X5205896Y-12454984D01*
X5205896Y-12454984D02*
X5224944Y-12464508D01*
X5224944Y-12464508D02*
X5234468Y-12474031D01*
X5234468Y-12474031D02*
X5243991Y-12493079D01*
X5243991Y-12493079D02*
X5253515Y-12531174D01*
X5253515Y-12531174D02*
X5253515Y-12578793D01*
X5253515Y-12578793D02*
X5243991Y-12616888D01*
X5243991Y-12616888D02*
X5234468Y-12635936D01*
X5234468Y-12635936D02*
X5224944Y-12645460D01*
X5224944Y-12645460D02*
X5205896Y-12654984D01*
X5205896Y-12654984D02*
X5186848Y-12654984D01*
X5186848Y-12654984D02*
X5167801Y-12645460D01*
X5167801Y-12645460D02*
X5158277Y-12635936D01*
X5158277Y-12635936D02*
X5148753Y-12616888D01*
X5148753Y-12616888D02*
X5139229Y-12578793D01*
X5139229Y-12578793D02*
X5139229Y-12531174D01*
X5139229Y-12531174D02*
X5148753Y-12493079D01*
X5148753Y-12493079D02*
X5158277Y-12474031D01*
X5158277Y-12474031D02*
X5167801Y-12464508D01*
X5167801Y-12464508D02*
X5186848Y-12454984D01*
X5320182Y-12454984D02*
X5443991Y-12454984D01*
X5443991Y-12454984D02*
X5377325Y-12531174D01*
X5377325Y-12531174D02*
X5405896Y-12531174D01*
X5405896Y-12531174D02*
X5424944Y-12540698D01*
X5424944Y-12540698D02*
X5434468Y-12550222D01*
X5434468Y-12550222D02*
X5443991Y-12569269D01*
X5443991Y-12569269D02*
X5443991Y-12616888D01*
X5443991Y-12616888D02*
X5434468Y-12635936D01*
X5434468Y-12635936D02*
X5424944Y-12645460D01*
X5424944Y-12645460D02*
X5405896Y-12654984D01*
X5405896Y-12654984D02*
X5348753Y-12654984D01*
X5348753Y-12654984D02*
X5329706Y-12645460D01*
X5329706Y-12645460D02*
X5320182Y-12635936D01*
X5510658Y-12454984D02*
X5643991Y-12454984D01*
X5643991Y-12454984D02*
X5558277Y-12654984D01*
X5805896Y-12521650D02*
X5805896Y-12654984D01*
X5758277Y-12445460D02*
X5710658Y-12588317D01*
X5710658Y-12588317D02*
X5834467Y-12588317D01*
X5901134Y-12454984D02*
X5901134Y-12493079D01*
X5977325Y-12454984D02*
X5977325Y-12493079D01*
X6272563Y-12731174D02*
X6263039Y-12721650D01*
X6263039Y-12721650D02*
X6243991Y-12693079D01*
X6243991Y-12693079D02*
X6234468Y-12674031D01*
X6234468Y-12674031D02*
X6224944Y-12645460D01*
X6224944Y-12645460D02*
X6215420Y-12597841D01*
X6215420Y-12597841D02*
X6215420Y-12559746D01*
X6215420Y-12559746D02*
X6224944Y-12512127D01*
X6224944Y-12512127D02*
X6234468Y-12483555D01*
X6234468Y-12483555D02*
X6243991Y-12464508D01*
X6243991Y-12464508D02*
X6263039Y-12435936D01*
X6263039Y-12435936D02*
X6272563Y-12426412D01*
X6329706Y-12454984D02*
X6453515Y-12454984D01*
X6453515Y-12454984D02*
X6386848Y-12531174D01*
X6386848Y-12531174D02*
X6415420Y-12531174D01*
X6415420Y-12531174D02*
X6434468Y-12540698D01*
X6434468Y-12540698D02*
X6443991Y-12550222D01*
X6443991Y-12550222D02*
X6453515Y-12569269D01*
X6453515Y-12569269D02*
X6453515Y-12616888D01*
X6453515Y-12616888D02*
X6443991Y-12635936D01*
X6443991Y-12635936D02*
X6434468Y-12645460D01*
X6434468Y-12645460D02*
X6415420Y-12654984D01*
X6415420Y-12654984D02*
X6358277Y-12654984D01*
X6358277Y-12654984D02*
X6339229Y-12645460D01*
X6339229Y-12645460D02*
X6329706Y-12635936D01*
X6529706Y-12474031D02*
X6539229Y-12464508D01*
X6539229Y-12464508D02*
X6558277Y-12454984D01*
X6558277Y-12454984D02*
X6605896Y-12454984D01*
X6605896Y-12454984D02*
X6624944Y-12464508D01*
X6624944Y-12464508D02*
X6634468Y-12474031D01*
X6634468Y-12474031D02*
X6643991Y-12493079D01*
X6643991Y-12493079D02*
X6643991Y-12512127D01*
X6643991Y-12512127D02*
X6634468Y-12540698D01*
X6634468Y-12540698D02*
X6520182Y-12654984D01*
X6520182Y-12654984D02*
X6643991Y-12654984D01*
X6882087Y-12654984D02*
X6882087Y-12454984D01*
X6967801Y-12654984D02*
X6967801Y-12550222D01*
X6967801Y-12550222D02*
X6958277Y-12531174D01*
X6958277Y-12531174D02*
X6939230Y-12521650D01*
X6939230Y-12521650D02*
X6910658Y-12521650D01*
X6910658Y-12521650D02*
X6891610Y-12531174D01*
X6891610Y-12531174D02*
X6882087Y-12540698D01*
X7091610Y-12654984D02*
X7072563Y-12645460D01*
X7072563Y-12645460D02*
X7063039Y-12635936D01*
X7063039Y-12635936D02*
X7053515Y-12616888D01*
X7053515Y-12616888D02*
X7053515Y-12559746D01*
X7053515Y-12559746D02*
X7063039Y-12540698D01*
X7063039Y-12540698D02*
X7072563Y-12531174D01*
X7072563Y-12531174D02*
X7091610Y-12521650D01*
X7091610Y-12521650D02*
X7120182Y-12521650D01*
X7120182Y-12521650D02*
X7139230Y-12531174D01*
X7139230Y-12531174D02*
X7148753Y-12540698D01*
X7148753Y-12540698D02*
X7158277Y-12559746D01*
X7158277Y-12559746D02*
X7158277Y-12616888D01*
X7158277Y-12616888D02*
X7148753Y-12635936D01*
X7148753Y-12635936D02*
X7139230Y-12645460D01*
X7139230Y-12645460D02*
X7120182Y-12654984D01*
X7120182Y-12654984D02*
X7091610Y-12654984D01*
X7272563Y-12654984D02*
X7253515Y-12645460D01*
X7253515Y-12645460D02*
X7243991Y-12626412D01*
X7243991Y-12626412D02*
X7243991Y-12454984D01*
X7424944Y-12645460D02*
X7405896Y-12654984D01*
X7405896Y-12654984D02*
X7367801Y-12654984D01*
X7367801Y-12654984D02*
X7348753Y-12645460D01*
X7348753Y-12645460D02*
X7339230Y-12626412D01*
X7339230Y-12626412D02*
X7339230Y-12550222D01*
X7339230Y-12550222D02*
X7348753Y-12531174D01*
X7348753Y-12531174D02*
X7367801Y-12521650D01*
X7367801Y-12521650D02*
X7405896Y-12521650D01*
X7405896Y-12521650D02*
X7424944Y-12531174D01*
X7424944Y-12531174D02*
X7434468Y-12550222D01*
X7434468Y-12550222D02*
X7434468Y-12569269D01*
X7434468Y-12569269D02*
X7339230Y-12588317D01*
X7510658Y-12645460D02*
X7529706Y-12654984D01*
X7529706Y-12654984D02*
X7567801Y-12654984D01*
X7567801Y-12654984D02*
X7586849Y-12645460D01*
X7586849Y-12645460D02*
X7596372Y-12626412D01*
X7596372Y-12626412D02*
X7596372Y-12616888D01*
X7596372Y-12616888D02*
X7586849Y-12597841D01*
X7586849Y-12597841D02*
X7567801Y-12588317D01*
X7567801Y-12588317D02*
X7539230Y-12588317D01*
X7539230Y-12588317D02*
X7520182Y-12578793D01*
X7520182Y-12578793D02*
X7510658Y-12559746D01*
X7510658Y-12559746D02*
X7510658Y-12550222D01*
X7510658Y-12550222D02*
X7520182Y-12531174D01*
X7520182Y-12531174D02*
X7539230Y-12521650D01*
X7539230Y-12521650D02*
X7567801Y-12521650D01*
X7567801Y-12521650D02*
X7586849Y-12531174D01*
X7663039Y-12731174D02*
X7672563Y-12721650D01*
X7672563Y-12721650D02*
X7691611Y-12693079D01*
X7691611Y-12693079D02*
X7701134Y-12674031D01*
X7701134Y-12674031D02*
X7710658Y-12645460D01*
X7710658Y-12645460D02*
X7720182Y-12597841D01*
X7720182Y-12597841D02*
X7720182Y-12559746D01*
X7720182Y-12559746D02*
X7710658Y-12512127D01*
X7710658Y-12512127D02*
X7701134Y-12483555D01*
X7701134Y-12483555D02*
X7691611Y-12464508D01*
X7691611Y-12464508D02*
X7672563Y-12435936D01*
X7672563Y-12435936D02*
X7663039Y-12426412D01*
M02*
