%TF.GenerationSoftware,KiCad,Pcbnew,9.0.0*%
%TF.CreationDate,2025-04-12T21:57:36+03:00*%
%TF.ProjectId,kikad,6b696b61-642e-46b6-9963-61645f706362,rev?*%
%TF.SameCoordinates,Original*%
%TF.FileFunction,Soldermask,Top*%
%TF.FilePolarity,Negative*%
%FSLAX46Y46*%
G04 Gerber Fmt 4.6, Leading zero omitted, Abs format (unit mm)*
G04 Created by KiCad (PCBNEW 9.0.0) date 2025-04-12 21:57:36*
%MOMM*%
%LPD*%
G01*
G04 APERTURE LIST*
G04 Aperture macros list*
%AMRoundRect*
0 Rectangle with rounded corners*
0 $1 Rounding radius*
0 $2 $3 $4 $5 $6 $7 $8 $9 X,Y pos of 4 corners*
0 Add a 4 corners polygon primitive as box body*
4,1,4,$2,$3,$4,$5,$6,$7,$8,$9,$2,$3,0*
0 Add four circle primitives for the rounded corners*
1,1,$1+$1,$2,$3*
1,1,$1+$1,$4,$5*
1,1,$1+$1,$6,$7*
1,1,$1+$1,$8,$9*
0 Add four rect primitives between the rounded corners*
20,1,$1+$1,$2,$3,$4,$5,0*
20,1,$1+$1,$4,$5,$6,$7,0*
20,1,$1+$1,$6,$7,$8,$9,0*
20,1,$1+$1,$8,$9,$2,$3,0*%
G04 Aperture macros list end*
%ADD10RoundRect,0.102000X0.754000X-0.754000X0.754000X0.754000X-0.754000X0.754000X-0.754000X-0.754000X0*%
%ADD11C,1.712000*%
%ADD12C,1.700000*%
%ADD13R,1.700000X1.700000*%
%ADD14RoundRect,0.250000X0.450000X-0.262500X0.450000X0.262500X-0.450000X0.262500X-0.450000X-0.262500X0*%
%ADD15O,1.700000X1.700000*%
%ADD16RoundRect,0.250000X-0.600000X-0.725000X0.600000X-0.725000X0.600000X0.725000X-0.600000X0.725000X0*%
%ADD17O,1.700000X1.950000*%
%ADD18R,1.700000X1.950000*%
G04 APERTURE END LIST*
D10*
%TO.C,U1*%
X166220000Y-108585000D03*
D11*
X168760000Y-108585000D03*
X171300000Y-108585000D03*
X173840000Y-108585000D03*
X176380000Y-108585000D03*
X178920000Y-108585000D03*
D10*
X181460000Y-108585000D03*
D11*
X184000000Y-108585000D03*
X166220000Y-95885000D03*
X168760000Y-95885000D03*
X171300000Y-95885000D03*
X173840000Y-95885000D03*
X176380000Y-95885000D03*
X178920000Y-95885000D03*
X181460000Y-95885000D03*
X184000000Y-95885000D03*
X184000000Y-100965000D03*
X184000000Y-98425000D03*
%TD*%
D12*
%TO.C,REF\u002A\u002A*%
X175260000Y-60960000D03*
%TD*%
%TO.C,REF\u002A\u002A*%
X172720000Y-60960000D03*
%TD*%
D13*
%TO.C,REF\u002A\u002A*%
X170080000Y-72140000D03*
%TD*%
%TO.C,REF\u002A\u002A*%
X170180000Y-78740000D03*
%TD*%
D14*
%TO.C,R1*%
X170133750Y-74240000D03*
X170133750Y-76065000D03*
%TD*%
D15*
%TO.C,U2*%
X170180000Y-68580000D03*
D12*
X185420000Y-83820000D03*
D15*
X182880000Y-83820000D03*
X180340000Y-83820000D03*
X177800000Y-83820000D03*
X175260000Y-83820000D03*
X172720000Y-83820000D03*
X170180000Y-83820000D03*
X172720000Y-68580000D03*
X175260000Y-68580000D03*
X177800000Y-68580000D03*
X180340000Y-68580000D03*
D13*
X182880000Y-68580000D03*
D12*
X185420000Y-68580000D03*
%TD*%
D16*
%TO.C,J1*%
X174500000Y-56000000D03*
D17*
X177000000Y-56000000D03*
X179500000Y-56000000D03*
X182000000Y-56000000D03*
%TD*%
D12*
%TO.C,J2*%
X171500000Y-115570000D03*
D17*
X174000000Y-115570000D03*
X176500000Y-115570000D03*
X179000000Y-115570000D03*
X181500000Y-115570000D03*
D18*
X184000000Y-115570000D03*
%TD*%
M02*
