%TF.GenerationSoftware,KiCad,Pcbnew,9.0.0*%
%TF.CreationDate,2025-04-12T21:57:36+03:00*%
%TF.ProjectId,kikad,6b696b61-642e-46b6-9963-61645f706362,rev?*%
%TF.SameCoordinates,Original*%
%TF.FileFunction,Copper,L2,Bot*%
%TF.FilePolarity,Positive*%
%FSLAX46Y46*%
G04 Gerber Fmt 4.6, Leading zero omitted, Abs format (unit mm)*
G04 Created by KiCad (PCBNEW 9.0.0) date 2025-04-12 21:57:36*
%MOMM*%
%LPD*%
G01*
G04 APERTURE LIST*
G04 Aperture macros list*
%AMRoundRect*
0 Rectangle with rounded corners*
0 $1 Rounding radius*
0 $2 $3 $4 $5 $6 $7 $8 $9 X,Y pos of 4 corners*
0 Add a 4 corners polygon primitive as box body*
4,1,4,$2,$3,$4,$5,$6,$7,$8,$9,$2,$3,0*
0 Add four circle primitives for the rounded corners*
1,1,$1+$1,$2,$3*
1,1,$1+$1,$4,$5*
1,1,$1+$1,$6,$7*
1,1,$1+$1,$8,$9*
0 Add four rect primitives between the rounded corners*
20,1,$1+$1,$2,$3,$4,$5,0*
20,1,$1+$1,$4,$5,$6,$7,0*
20,1,$1+$1,$6,$7,$8,$9,0*
20,1,$1+$1,$8,$9,$2,$3,0*%
G04 Aperture macros list end*
%TA.AperFunction,ComponentPad*%
%ADD10R,1.508000X1.508000*%
%TD*%
%TA.AperFunction,ComponentPad*%
%ADD11C,1.508000*%
%TD*%
%TA.AperFunction,ComponentPad*%
%ADD12C,1.700000*%
%TD*%
%TA.AperFunction,ComponentPad*%
%ADD13R,1.700000X1.700000*%
%TD*%
%TA.AperFunction,ComponentPad*%
%ADD14O,1.700000X1.700000*%
%TD*%
%TA.AperFunction,ComponentPad*%
%ADD15RoundRect,0.250000X-0.600000X-0.725000X0.600000X-0.725000X0.600000X0.725000X-0.600000X0.725000X0*%
%TD*%
%TA.AperFunction,ComponentPad*%
%ADD16O,1.700000X1.950000*%
%TD*%
%TA.AperFunction,ComponentPad*%
%ADD17R,1.700000X1.950000*%
%TD*%
%TA.AperFunction,Conductor*%
%ADD18C,4.000000*%
%TD*%
%TA.AperFunction,Conductor*%
%ADD19C,3.000000*%
%TD*%
%TA.AperFunction,Conductor*%
%ADD20C,2.000000*%
%TD*%
%TA.AperFunction,Conductor*%
%ADD21C,0.200000*%
%TD*%
G04 APERTURE END LIST*
D10*
%TO.P,U1,1,GND*%
%TO.N,GND*%
X166220000Y-108585000D03*
D11*
%TO.P,U1,2,VIO*%
%TO.N,+5V*%
X168760000Y-108585000D03*
%TO.P,U1,3,M1B*%
%TO.N,Net-(J2-Pin_1)*%
X171300000Y-108585000D03*
%TO.P,U1,4,M1A*%
%TO.N,Net-(J2-Pin_2)*%
X173840000Y-108585000D03*
%TO.P,U1,5,M2A*%
%TO.N,Net-(J2-Pin_3)*%
X176380000Y-108585000D03*
%TO.P,U1,6,M2B*%
%TO.N,Net-(J2-Pin_4)*%
X178920000Y-108585000D03*
D10*
%TO.P,U1,7,GND*%
%TO.N,GND*%
X181460000Y-108585000D03*
D11*
%TO.P,U1,8,VM*%
%TO.N,+12V*%
X184000000Y-108585000D03*
%TO.P,U1,9,DIR*%
%TO.N,Net-(U1-DIR)*%
X166220000Y-95885000D03*
%TO.P,U1,10,STEP*%
%TO.N,Net-(U1-STEP)*%
X168760000Y-95885000D03*
%TO.P,U1,11,PDN*%
%TO.N,unconnected-(U1-PDN-Pad11)*%
X171300000Y-95885000D03*
%TO.P,U1,12,UART*%
%TO.N,unconnected-(U1-UART-Pad12)*%
X173840000Y-95885000D03*
%TO.P,U1,13,SPRD*%
%TO.N,Net-(U1-SPRD)*%
X176380000Y-95885000D03*
%TO.P,U1,14,MS2*%
%TO.N,unconnected-(U1-MS2-Pad14)*%
X178920000Y-95885000D03*
%TO.P,U1,15,MS1*%
%TO.N,unconnected-(U1-MS1-Pad15)*%
X181460000Y-95885000D03*
%TO.P,U1,16,~{EN}*%
%TO.N,Net-(U1-~{EN})*%
X184000000Y-95885000D03*
%TO.P,U1,17,INDEX*%
%TO.N,unconnected-(U1-INDEX-Pad17)*%
X184000000Y-100965000D03*
%TO.P,U1,18,DIAG*%
%TO.N,unconnected-(U1-DIAG-Pad18)*%
X184000000Y-98425000D03*
%TD*%
D12*
%TO.P,REF\u002A\u002A,1*%
%TO.N,unconnected-(U2-PA5_A9_D9_MISO-Pad10)*%
X175260000Y-60960000D03*
%TD*%
%TO.P,REF\u002A\u002A,1*%
%TO.N,unconnected-(U2-PA7_A8_D8_SCK-Pad9)*%
X172720000Y-60960000D03*
%TD*%
D13*
%TO.P,REF\u002A\u002A,1*%
%TO.N,Net-(U1-SPRD)*%
X170080000Y-72140000D03*
%TD*%
%TO.P,REF\u002A\u002A,1*%
%TO.N,Net-(U2-PB08_A6_D6_TX)*%
X170180000Y-78740000D03*
%TD*%
D14*
%TO.P,U2,7,PB08_A6_D6_TX*%
%TO.N,Net-(U1-SPRD)*%
X170180000Y-68580000D03*
D12*
%TO.P,U2,0*%
%TO.N,Net-(J2-Pin_5)*%
X185420000Y-83820000D03*
D14*
%TO.P,U2,1,PA02_A0_D0*%
%TO.N,Net-(U1-~{EN})*%
X182880000Y-83820000D03*
%TO.P,U2,2,PA4_A1_D1*%
%TO.N,unconnected-(U1-MS1-Pad15)*%
X180340000Y-83820000D03*
%TO.P,U2,3,PA10_A2_D2*%
%TO.N,unconnected-(U1-MS2-Pad14)*%
X177800000Y-83820000D03*
%TO.P,U2,4,PA11_A3_D3*%
%TO.N,Net-(U1-STEP)*%
X175260000Y-83820000D03*
%TO.P,U2,5,PA8_A4_D4_SDA*%
%TO.N,Net-(U1-DIR)*%
X172720000Y-83820000D03*
%TO.P,U2,6,PA9_A5_D5_SCL*%
%TO.N,Net-(U2-PB08_A6_D6_TX)*%
X170180000Y-83820000D03*
%TO.P,U2,8,PB09_A7_D7_RX*%
%TO.N,unconnected-(U2-PA7_A8_D8_SCK-Pad9)*%
X172720000Y-68580000D03*
%TO.P,U2,9,PA7_A8_D8_SCK*%
%TO.N,unconnected-(U2-PA5_A9_D9_MISO-Pad10)*%
X175260000Y-68580000D03*
%TO.P,U2,10,PA5_A9_D9_MISO*%
%TO.N,Net-(D1-K)*%
X177800000Y-68580000D03*
%TO.P,U2,11,PA6_A10_D10_MOSI*%
%TO.N,N/C*%
X180340000Y-68580000D03*
D13*
%TO.P,U2,12,3V3*%
%TO.N,GND*%
X182880000Y-68580000D03*
D12*
%TO.P,U2,13,GND*%
%TO.N,+5V*%
X185420000Y-68580000D03*
%TD*%
D15*
%TO.P,J1,1,Pin_1*%
%TO.N,GND*%
X174500000Y-56000000D03*
D16*
%TO.P,J1,2,Pin_2*%
%TO.N,+5V*%
X177000000Y-56000000D03*
%TO.P,J1,3,Pin_3*%
%TO.N,+12V*%
X179500000Y-56000000D03*
%TO.P,J1,4,Pin_4*%
%TO.N,Net-(D1-K)*%
X182000000Y-56000000D03*
%TD*%
D12*
%TO.P,J2,1,Pin_1*%
%TO.N,Net-(J2-Pin_1)*%
X171500000Y-115570000D03*
D16*
%TO.P,J2,2,Pin_2*%
%TO.N,Net-(J2-Pin_2)*%
X174000000Y-115570000D03*
%TO.P,J2,3,Pin_3*%
%TO.N,Net-(J2-Pin_3)*%
X176500000Y-115570000D03*
%TO.P,J2,4,Pin_4*%
%TO.N,Net-(J2-Pin_4)*%
X179000000Y-115570000D03*
%TO.P,J2,5,Pin_5*%
%TO.N,Net-(J2-Pin_5)*%
X181500000Y-115570000D03*
D17*
%TO.P,J2,6,Pin_6*%
%TO.N,GND*%
X184000000Y-115570000D03*
%TD*%
D18*
%TO.N,+12V*%
X190999000Y-63884000D02*
X190999000Y-104276000D01*
D19*
X181610000Y-59690000D02*
X179500000Y-57580000D01*
D20*
X179500000Y-57580000D02*
X179500000Y-56000000D01*
D19*
X190999000Y-104276000D02*
X186690000Y-108585000D01*
D18*
X186805000Y-59690000D02*
X190999000Y-63884000D01*
X181610000Y-59690000D02*
X186805000Y-59690000D01*
D19*
X186690000Y-108585000D02*
X184000000Y-108585000D01*
D21*
X180380000Y-60920000D02*
X180340000Y-60960000D01*
%TD*%
%TA.AperFunction,Conductor*%
%TO.N,GND*%
G36*
X172817063Y-54520713D02*
G01*
X172946258Y-54579714D01*
X173053597Y-54672724D01*
X173130384Y-54792208D01*
X173170399Y-54928485D01*
X173170399Y-55070515D01*
X173164420Y-55103966D01*
X173160493Y-55122304D01*
X173157663Y-55149999D01*
X173157664Y-55150000D01*
X174001000Y-55150000D01*
X174141585Y-55170213D01*
X174270780Y-55229214D01*
X174378119Y-55322224D01*
X174454906Y-55441708D01*
X174479363Y-55525000D01*
X174437465Y-55525000D01*
X174316657Y-55557370D01*
X174208343Y-55619905D01*
X174119905Y-55708343D01*
X174057370Y-55816657D01*
X174025000Y-55937465D01*
X174025000Y-56062535D01*
X174057370Y-56183343D01*
X174119905Y-56291657D01*
X174208343Y-56380095D01*
X174316657Y-56442630D01*
X174437465Y-56475000D01*
X174562535Y-56475000D01*
X174683343Y-56442630D01*
X174791657Y-56380095D01*
X174880095Y-56291657D01*
X174942630Y-56183343D01*
X174975000Y-56062535D01*
X174975000Y-56017828D01*
X174991585Y-56020213D01*
X175120780Y-56079214D01*
X175228119Y-56172224D01*
X175304906Y-56291708D01*
X175344921Y-56427985D01*
X175350000Y-56499000D01*
X175350000Y-57432260D01*
X175419122Y-57409356D01*
X175568344Y-57317315D01*
X175593162Y-57292498D01*
X175706862Y-57207381D01*
X175839937Y-57157745D01*
X175981605Y-57147611D01*
X176120389Y-57177800D01*
X176239313Y-57241638D01*
X176292184Y-57280051D01*
X176481588Y-57376557D01*
X176481593Y-57376558D01*
X176481596Y-57376560D01*
X176683746Y-57442243D01*
X176683753Y-57442244D01*
X176683757Y-57442246D01*
X176683759Y-57442246D01*
X176683762Y-57442247D01*
X176893713Y-57475500D01*
X177030869Y-57475500D01*
X177171454Y-57495713D01*
X177300649Y-57554714D01*
X177407988Y-57647724D01*
X177484775Y-57767208D01*
X177524790Y-57903485D01*
X177525600Y-57909370D01*
X177533728Y-57971113D01*
X177601599Y-58224412D01*
X177601602Y-58224419D01*
X177701957Y-58466697D01*
X177701959Y-58466700D01*
X177701963Y-58466710D01*
X177833069Y-58693791D01*
X177833073Y-58693798D01*
X177992719Y-58901853D01*
X179021715Y-59930849D01*
X179106831Y-60044550D01*
X179155358Y-60172658D01*
X179203436Y-60383304D01*
X179203438Y-60383313D01*
X179203440Y-60383318D01*
X179296199Y-60648408D01*
X179361570Y-60784152D01*
X179418056Y-60901447D01*
X179462744Y-60972568D01*
X179567477Y-61139248D01*
X179567479Y-61139251D01*
X179567482Y-61139255D01*
X179742574Y-61358814D01*
X179742585Y-61358826D01*
X179941173Y-61557414D01*
X179941185Y-61557425D01*
X180079613Y-61667817D01*
X180160752Y-61732523D01*
X180398555Y-61881945D01*
X180651592Y-62003801D01*
X180916682Y-62096560D01*
X180916691Y-62096562D01*
X181190486Y-62159054D01*
X181190496Y-62159056D01*
X181418147Y-62184705D01*
X181469575Y-62190500D01*
X185562567Y-62190500D01*
X185703152Y-62210713D01*
X185832347Y-62269714D01*
X185915413Y-62336654D01*
X188352346Y-64773587D01*
X188437462Y-64887288D01*
X188487096Y-65020363D01*
X188498500Y-65126433D01*
X188498500Y-103740674D01*
X188478287Y-103881259D01*
X188419286Y-104010454D01*
X188352346Y-104093520D01*
X186007520Y-106438346D01*
X185893819Y-106523462D01*
X185760744Y-106573096D01*
X185654674Y-106584500D01*
X183868880Y-106584500D01*
X183834651Y-106589006D01*
X183608885Y-106618729D01*
X183416063Y-106670396D01*
X183355581Y-106686602D01*
X183355579Y-106686602D01*
X183355578Y-106686603D01*
X183113305Y-106786955D01*
X182886204Y-106918071D01*
X182886189Y-106918081D01*
X182678148Y-107077717D01*
X182604104Y-107151761D01*
X182604099Y-107151767D01*
X182492718Y-107263149D01*
X182333076Y-107471197D01*
X182201957Y-107698303D01*
X182107021Y-107927499D01*
X182101602Y-107940581D01*
X182033729Y-108193885D01*
X181999500Y-108453881D01*
X181999500Y-108716118D01*
X182033729Y-108976114D01*
X182062905Y-109085000D01*
X182101602Y-109229419D01*
X182201957Y-109471697D01*
X182333076Y-109698803D01*
X182492718Y-109906851D01*
X182678149Y-110092282D01*
X182886197Y-110251924D01*
X182886204Y-110251928D01*
X183113305Y-110383044D01*
X183158052Y-110401578D01*
X183355581Y-110483398D01*
X183608884Y-110551270D01*
X183868880Y-110585500D01*
X183868881Y-110585500D01*
X186821119Y-110585500D01*
X186821120Y-110585500D01*
X186951118Y-110568385D01*
X187081116Y-110551271D01*
X187334419Y-110483398D01*
X187576697Y-110383043D01*
X187803803Y-110251924D01*
X187894131Y-110182611D01*
X188011851Y-110092283D01*
X191239851Y-106864281D01*
X191285260Y-106830288D01*
X191328647Y-106793715D01*
X191340820Y-106788697D01*
X191353548Y-106779169D01*
X191458633Y-106736476D01*
X191470060Y-106733288D01*
X191692318Y-106682560D01*
X191850920Y-106627062D01*
X191866440Y-106622734D01*
X191921043Y-106615639D01*
X191975061Y-106605038D01*
X191991205Y-106606524D01*
X192007286Y-106604435D01*
X192061676Y-106613011D01*
X192116493Y-106618058D01*
X192131563Y-106624031D01*
X192147583Y-106626558D01*
X192197354Y-106650111D01*
X192248528Y-106670396D01*
X192261305Y-106680374D01*
X192275964Y-106687311D01*
X192317081Y-106723931D01*
X192360469Y-106757813D01*
X192369919Y-106770988D01*
X192382028Y-106781773D01*
X192411162Y-106828491D01*
X192443248Y-106873226D01*
X192448602Y-106888528D01*
X192457184Y-106902289D01*
X192471976Y-106955327D01*
X192490158Y-107007286D01*
X192492131Y-107027592D01*
X192495341Y-107039098D01*
X192495084Y-107057964D01*
X192499500Y-107103389D01*
X192499500Y-114984915D01*
X192498590Y-115015044D01*
X192483098Y-115271158D01*
X192475834Y-115330978D01*
X192432310Y-115568476D01*
X192417890Y-115626980D01*
X192346052Y-115857518D01*
X192324684Y-115913861D01*
X192225586Y-116134048D01*
X192197583Y-116187404D01*
X192072661Y-116394050D01*
X192038431Y-116443640D01*
X191995481Y-116498462D01*
X191889516Y-116633717D01*
X191849557Y-116678820D01*
X191678820Y-116849557D01*
X191633717Y-116889516D01*
X191443641Y-117038431D01*
X191394050Y-117072661D01*
X191187404Y-117197583D01*
X191134048Y-117225586D01*
X190913861Y-117324684D01*
X190857518Y-117346052D01*
X190626980Y-117417890D01*
X190568476Y-117432310D01*
X190384446Y-117466035D01*
X190330975Y-117475834D01*
X190271158Y-117483098D01*
X190015044Y-117498590D01*
X189984915Y-117499500D01*
X185745367Y-117499500D01*
X185604782Y-117479287D01*
X185475587Y-117420286D01*
X185368248Y-117327276D01*
X185291461Y-117207792D01*
X185251446Y-117071515D01*
X185251446Y-116929485D01*
X185283185Y-116821390D01*
X185280880Y-116820530D01*
X185343597Y-116652374D01*
X185350000Y-116592824D01*
X185350000Y-116420000D01*
X184499000Y-116420000D01*
X184358415Y-116399787D01*
X184229220Y-116340786D01*
X184121881Y-116247776D01*
X184045094Y-116128292D01*
X184020637Y-116045000D01*
X184062535Y-116045000D01*
X184183343Y-116012630D01*
X184291657Y-115950095D01*
X184380095Y-115861657D01*
X184442630Y-115753343D01*
X184475000Y-115632535D01*
X184475000Y-115507465D01*
X184442630Y-115386657D01*
X184380095Y-115278343D01*
X184291657Y-115189905D01*
X184183343Y-115127370D01*
X184062535Y-115095000D01*
X183937465Y-115095000D01*
X183816657Y-115127370D01*
X183708343Y-115189905D01*
X183619905Y-115278343D01*
X183557370Y-115386657D01*
X183525000Y-115507465D01*
X183525000Y-115552171D01*
X183508415Y-115549787D01*
X183379220Y-115490786D01*
X183271881Y-115397776D01*
X183195094Y-115278292D01*
X183155079Y-115142015D01*
X183150000Y-115071000D01*
X183150000Y-114720000D01*
X184850000Y-114720000D01*
X185350000Y-114720000D01*
X185350000Y-114547175D01*
X185343597Y-114487625D01*
X185293352Y-114352910D01*
X185293351Y-114352909D01*
X185207188Y-114237811D01*
X185092090Y-114151648D01*
X185092089Y-114151647D01*
X184957374Y-114101402D01*
X184897825Y-114095000D01*
X184850000Y-114095000D01*
X184850000Y-114720000D01*
X183150000Y-114720000D01*
X183150000Y-114095000D01*
X183102175Y-114095000D01*
X183042625Y-114101402D01*
X182907910Y-114151647D01*
X182907909Y-114151648D01*
X182764244Y-114259197D01*
X182761402Y-114255401D01*
X182702539Y-114299438D01*
X182569449Y-114349033D01*
X182427777Y-114359123D01*
X182289002Y-114328891D01*
X182225700Y-114298036D01*
X182225286Y-114298850D01*
X182105489Y-114237811D01*
X182018412Y-114193443D01*
X182018409Y-114193442D01*
X182018403Y-114193439D01*
X181816253Y-114127756D01*
X181816237Y-114127752D01*
X181606287Y-114094500D01*
X181393713Y-114094500D01*
X181183762Y-114127752D01*
X181183746Y-114127756D01*
X180981596Y-114193439D01*
X180981588Y-114193443D01*
X180792192Y-114289944D01*
X180792182Y-114289950D01*
X180620205Y-114414898D01*
X180602846Y-114432257D01*
X180489145Y-114517373D01*
X180356070Y-114567007D01*
X180214402Y-114577140D01*
X180075617Y-114546949D01*
X179950960Y-114478881D01*
X179897154Y-114432257D01*
X179879799Y-114414902D01*
X179879794Y-114414898D01*
X179879792Y-114414896D01*
X179707816Y-114289949D01*
X179707811Y-114289946D01*
X179707807Y-114289944D01*
X179605489Y-114237811D01*
X179518412Y-114193443D01*
X179518409Y-114193442D01*
X179518403Y-114193439D01*
X179316253Y-114127756D01*
X179316237Y-114127752D01*
X179106287Y-114094500D01*
X178893713Y-114094500D01*
X178683762Y-114127752D01*
X178683746Y-114127756D01*
X178481596Y-114193439D01*
X178481588Y-114193443D01*
X178292192Y-114289944D01*
X178292182Y-114289950D01*
X178120205Y-114414898D01*
X178102846Y-114432257D01*
X177989145Y-114517373D01*
X177856070Y-114567007D01*
X177714402Y-114577140D01*
X177575617Y-114546949D01*
X177450960Y-114478881D01*
X177397154Y-114432257D01*
X177379799Y-114414902D01*
X177379794Y-114414898D01*
X177379792Y-114414896D01*
X177207816Y-114289949D01*
X177207811Y-114289946D01*
X177207807Y-114289944D01*
X177105489Y-114237811D01*
X177018412Y-114193443D01*
X177018409Y-114193442D01*
X177018403Y-114193439D01*
X176816253Y-114127756D01*
X176816237Y-114127752D01*
X176606287Y-114094500D01*
X176393713Y-114094500D01*
X176183762Y-114127752D01*
X176183746Y-114127756D01*
X175981596Y-114193439D01*
X175981588Y-114193443D01*
X175792192Y-114289944D01*
X175792182Y-114289950D01*
X175620205Y-114414898D01*
X175602846Y-114432257D01*
X175489145Y-114517373D01*
X175356070Y-114567007D01*
X175214402Y-114577140D01*
X175075617Y-114546949D01*
X174950960Y-114478881D01*
X174897154Y-114432257D01*
X174879799Y-114414902D01*
X174879794Y-114414898D01*
X174879792Y-114414896D01*
X174707816Y-114289949D01*
X174707811Y-114289946D01*
X174707807Y-114289944D01*
X174605489Y-114237811D01*
X174518412Y-114193443D01*
X174518409Y-114193442D01*
X174518403Y-114193439D01*
X174316253Y-114127756D01*
X174316237Y-114127752D01*
X174106287Y-114094500D01*
X173893713Y-114094500D01*
X173683762Y-114127752D01*
X173683746Y-114127756D01*
X173481596Y-114193439D01*
X173481588Y-114193443D01*
X173292192Y-114289944D01*
X173292182Y-114289950D01*
X173120205Y-114414898D01*
X173120200Y-114414902D01*
X173037592Y-114497510D01*
X172923891Y-114582625D01*
X172790816Y-114632259D01*
X172649147Y-114642390D01*
X172510363Y-114612199D01*
X172391444Y-114548362D01*
X172379793Y-114539897D01*
X172379792Y-114539896D01*
X172207816Y-114414949D01*
X172207811Y-114414946D01*
X172207807Y-114414944D01*
X172038917Y-114328891D01*
X172018412Y-114318443D01*
X172018409Y-114318442D01*
X172018403Y-114318439D01*
X171816253Y-114252756D01*
X171816237Y-114252752D01*
X171606287Y-114219500D01*
X171393713Y-114219500D01*
X171183762Y-114252752D01*
X171183746Y-114252756D01*
X170981596Y-114318439D01*
X170981588Y-114318443D01*
X170792192Y-114414944D01*
X170792182Y-114414950D01*
X170620205Y-114539898D01*
X170469898Y-114690205D01*
X170344950Y-114862182D01*
X170344944Y-114862192D01*
X170248443Y-115051588D01*
X170248439Y-115051596D01*
X170182756Y-115253746D01*
X170182752Y-115253762D01*
X170149500Y-115463712D01*
X170149500Y-115676287D01*
X170182752Y-115886237D01*
X170182756Y-115886253D01*
X170248439Y-116088403D01*
X170248442Y-116088409D01*
X170248443Y-116088412D01*
X170268763Y-116128292D01*
X170312133Y-116213412D01*
X170344949Y-116277816D01*
X170469896Y-116449792D01*
X170469898Y-116449794D01*
X170469902Y-116449799D01*
X170620201Y-116600098D01*
X170635110Y-116612831D01*
X170633770Y-116614399D01*
X170717514Y-116695784D01*
X170787356Y-116819456D01*
X170819526Y-116957795D01*
X170811419Y-117099594D01*
X170763690Y-117233364D01*
X170680208Y-117348270D01*
X170567734Y-117435001D01*
X170435382Y-117486531D01*
X170322357Y-117499500D01*
X166015085Y-117499500D01*
X165984956Y-117498590D01*
X165728841Y-117483098D01*
X165669026Y-117475834D01*
X165562410Y-117456296D01*
X165431523Y-117432310D01*
X165373019Y-117417890D01*
X165142481Y-117346052D01*
X165086138Y-117324684D01*
X164865951Y-117225586D01*
X164812595Y-117197583D01*
X164605949Y-117072661D01*
X164556367Y-117038437D01*
X164366275Y-116889510D01*
X164321179Y-116849557D01*
X164150442Y-116678820D01*
X164110490Y-116633725D01*
X163961559Y-116443629D01*
X163927338Y-116394050D01*
X163857073Y-116277817D01*
X163802412Y-116187396D01*
X163774417Y-116134056D01*
X163675312Y-115913854D01*
X163653947Y-115857518D01*
X163582109Y-115626980D01*
X163567689Y-115568476D01*
X163557752Y-115514250D01*
X163524162Y-115330958D01*
X163516902Y-115271168D01*
X163501410Y-115015042D01*
X163500500Y-114984915D01*
X163500500Y-109386824D01*
X164966000Y-109386824D01*
X164972402Y-109446374D01*
X165022647Y-109581089D01*
X165022648Y-109581090D01*
X165108811Y-109696188D01*
X165223909Y-109782351D01*
X165223910Y-109782352D01*
X165358625Y-109832597D01*
X165418175Y-109839000D01*
X165466000Y-109839000D01*
X165466000Y-109339000D01*
X164966000Y-109339000D01*
X164966000Y-109386824D01*
X163500500Y-109386824D01*
X163500500Y-108519174D01*
X165720000Y-108519174D01*
X165720000Y-108650826D01*
X165754075Y-108777993D01*
X165819901Y-108892007D01*
X165912993Y-108985099D01*
X166027007Y-109050925D01*
X166154174Y-109085000D01*
X166285826Y-109085000D01*
X166412993Y-109050925D01*
X166527007Y-108985099D01*
X166620099Y-108892007D01*
X166685925Y-108777993D01*
X166720000Y-108650826D01*
X166720000Y-108519174D01*
X166685925Y-108392007D01*
X166620099Y-108277993D01*
X166527007Y-108184901D01*
X166412993Y-108119075D01*
X166285826Y-108085000D01*
X166154174Y-108085000D01*
X166027007Y-108119075D01*
X165912993Y-108184901D01*
X165819901Y-108277993D01*
X165754075Y-108392007D01*
X165720000Y-108519174D01*
X163500500Y-108519174D01*
X163500500Y-107783175D01*
X164966000Y-107783175D01*
X164966000Y-107831000D01*
X165466000Y-107831000D01*
X165466000Y-107331000D01*
X166974000Y-107331000D01*
X166974000Y-109839000D01*
X167021825Y-109839000D01*
X167081374Y-109832597D01*
X167216089Y-109782352D01*
X167216090Y-109782351D01*
X167331191Y-109696186D01*
X167356424Y-109670954D01*
X167357185Y-109671715D01*
X167427079Y-109601820D01*
X167551736Y-109533751D01*
X167690520Y-109503560D01*
X167832188Y-109513691D01*
X167965264Y-109563324D01*
X168019427Y-109597589D01*
X168096401Y-109653514D01*
X168102499Y-109657944D01*
X168278439Y-109747591D01*
X168466237Y-109808610D01*
X168661269Y-109839500D01*
X168661270Y-109839500D01*
X168858730Y-109839500D01*
X168858731Y-109839500D01*
X169053763Y-109808610D01*
X169241561Y-109747591D01*
X169417501Y-109657944D01*
X169577252Y-109541879D01*
X169577256Y-109541874D01*
X169577259Y-109541873D01*
X169677154Y-109441978D01*
X169790855Y-109356862D01*
X169923930Y-109307228D01*
X170065598Y-109297095D01*
X170204383Y-109327286D01*
X170329040Y-109395354D01*
X170382846Y-109441978D01*
X170482741Y-109541873D01*
X170482745Y-109541876D01*
X170482748Y-109541879D01*
X170536718Y-109581090D01*
X170642494Y-109657941D01*
X170642496Y-109657942D01*
X170642499Y-109657944D01*
X170818439Y-109747591D01*
X171006237Y-109808610D01*
X171201269Y-109839500D01*
X171201270Y-109839500D01*
X171398730Y-109839500D01*
X171398731Y-109839500D01*
X171593763Y-109808610D01*
X171781561Y-109747591D01*
X171957501Y-109657944D01*
X172117252Y-109541879D01*
X172117256Y-109541874D01*
X172117259Y-109541873D01*
X172217154Y-109441978D01*
X172330855Y-109356862D01*
X172463930Y-109307228D01*
X172605598Y-109297095D01*
X172744383Y-109327286D01*
X172869040Y-109395354D01*
X172922846Y-109441978D01*
X173022741Y-109541873D01*
X173022745Y-109541876D01*
X173022748Y-109541879D01*
X173076718Y-109581090D01*
X173182494Y-109657941D01*
X173182496Y-109657942D01*
X173182499Y-109657944D01*
X173358439Y-109747591D01*
X173546237Y-109808610D01*
X173741269Y-109839500D01*
X173741270Y-109839500D01*
X173938730Y-109839500D01*
X173938731Y-109839500D01*
X174133763Y-109808610D01*
X174321561Y-109747591D01*
X174497501Y-109657944D01*
X174657252Y-109541879D01*
X174657256Y-109541874D01*
X174657259Y-109541873D01*
X174757154Y-109441978D01*
X174870855Y-109356862D01*
X175003930Y-109307228D01*
X175145598Y-109297095D01*
X175284383Y-109327286D01*
X175409040Y-109395354D01*
X175462846Y-109441978D01*
X175562741Y-109541873D01*
X175562745Y-109541876D01*
X175562748Y-109541879D01*
X175616718Y-109581090D01*
X175722494Y-109657941D01*
X175722496Y-109657942D01*
X175722499Y-109657944D01*
X175898439Y-109747591D01*
X176086237Y-109808610D01*
X176281269Y-109839500D01*
X176281270Y-109839500D01*
X176478730Y-109839500D01*
X176478731Y-109839500D01*
X176673763Y-109808610D01*
X176861561Y-109747591D01*
X177037501Y-109657944D01*
X177197252Y-109541879D01*
X177197256Y-109541874D01*
X177197259Y-109541873D01*
X177297154Y-109441978D01*
X177410855Y-109356862D01*
X177543930Y-109307228D01*
X177685598Y-109297095D01*
X177824383Y-109327286D01*
X177949040Y-109395354D01*
X178002846Y-109441978D01*
X178102741Y-109541873D01*
X178102745Y-109541876D01*
X178102748Y-109541879D01*
X178156718Y-109581090D01*
X178262494Y-109657941D01*
X178262496Y-109657942D01*
X178262499Y-109657944D01*
X178438439Y-109747591D01*
X178626237Y-109808610D01*
X178821269Y-109839500D01*
X178821270Y-109839500D01*
X179018730Y-109839500D01*
X179018731Y-109839500D01*
X179213763Y-109808610D01*
X179401561Y-109747591D01*
X179577501Y-109657944D01*
X179660576Y-109597586D01*
X179786185Y-109531309D01*
X179925386Y-109503102D01*
X180066896Y-109515255D01*
X180199249Y-109566784D01*
X180311724Y-109653514D01*
X180344436Y-109691814D01*
X180348808Y-109696186D01*
X180463909Y-109782351D01*
X180463910Y-109782352D01*
X180598625Y-109832597D01*
X180658175Y-109839000D01*
X180706000Y-109839000D01*
X180706000Y-108519174D01*
X180960000Y-108519174D01*
X180960000Y-108650826D01*
X180994075Y-108777993D01*
X181059901Y-108892007D01*
X181152993Y-108985099D01*
X181267007Y-109050925D01*
X181394174Y-109085000D01*
X181525826Y-109085000D01*
X181652993Y-109050925D01*
X181767007Y-108985099D01*
X181860099Y-108892007D01*
X181925925Y-108777993D01*
X181960000Y-108650826D01*
X181960000Y-108519174D01*
X181925925Y-108392007D01*
X181860099Y-108277993D01*
X181767007Y-108184901D01*
X181652993Y-108119075D01*
X181525826Y-108085000D01*
X181394174Y-108085000D01*
X181267007Y-108119075D01*
X181152993Y-108184901D01*
X181059901Y-108277993D01*
X180994075Y-108392007D01*
X180960000Y-108519174D01*
X180706000Y-108519174D01*
X180706000Y-107331000D01*
X180658175Y-107331000D01*
X180598625Y-107337402D01*
X180463910Y-107387647D01*
X180463909Y-107387648D01*
X180348808Y-107473813D01*
X180323576Y-107499046D01*
X180322814Y-107498284D01*
X180252900Y-107568194D01*
X180128240Y-107636256D01*
X179989454Y-107666441D01*
X179847786Y-107656303D01*
X179714713Y-107606663D01*
X179660581Y-107572416D01*
X179577501Y-107512056D01*
X179401561Y-107422409D01*
X179213763Y-107361390D01*
X179213760Y-107361389D01*
X179062309Y-107337402D01*
X179018731Y-107330500D01*
X178821269Y-107330500D01*
X178784566Y-107336313D01*
X178626239Y-107361389D01*
X178438442Y-107422408D01*
X178438439Y-107422409D01*
X178352026Y-107466439D01*
X178262494Y-107512058D01*
X178102745Y-107628123D01*
X178002846Y-107728022D01*
X177889145Y-107813138D01*
X177756070Y-107862772D01*
X177614402Y-107872905D01*
X177475617Y-107842714D01*
X177350960Y-107774646D01*
X177297154Y-107728022D01*
X177197259Y-107628127D01*
X177197254Y-107628123D01*
X177197252Y-107628121D01*
X177114769Y-107568194D01*
X177037505Y-107512058D01*
X177010472Y-107498284D01*
X176861561Y-107422409D01*
X176673763Y-107361390D01*
X176673760Y-107361389D01*
X176522309Y-107337402D01*
X176478731Y-107330500D01*
X176281269Y-107330500D01*
X176244566Y-107336313D01*
X176086239Y-107361389D01*
X175898442Y-107422408D01*
X175898439Y-107422409D01*
X175812026Y-107466439D01*
X175722494Y-107512058D01*
X175562745Y-107628123D01*
X175462846Y-107728022D01*
X175349145Y-107813138D01*
X175216070Y-107862772D01*
X175074402Y-107872905D01*
X174935617Y-107842714D01*
X174810960Y-107774646D01*
X174757154Y-107728022D01*
X174657259Y-107628127D01*
X174657254Y-107628123D01*
X174657252Y-107628121D01*
X174574769Y-107568194D01*
X174497505Y-107512058D01*
X174470472Y-107498284D01*
X174321561Y-107422409D01*
X174133763Y-107361390D01*
X174133760Y-107361389D01*
X173982309Y-107337402D01*
X173938731Y-107330500D01*
X173741269Y-107330500D01*
X173704566Y-107336313D01*
X173546239Y-107361389D01*
X173358442Y-107422408D01*
X173358439Y-107422409D01*
X173272026Y-107466439D01*
X173182494Y-107512058D01*
X173022745Y-107628123D01*
X172922846Y-107728022D01*
X172809145Y-107813138D01*
X172676070Y-107862772D01*
X172534402Y-107872905D01*
X172395617Y-107842714D01*
X172270960Y-107774646D01*
X172217154Y-107728022D01*
X172117259Y-107628127D01*
X172117254Y-107628123D01*
X172117252Y-107628121D01*
X172034769Y-107568194D01*
X171957505Y-107512058D01*
X171930472Y-107498284D01*
X171781561Y-107422409D01*
X171593763Y-107361390D01*
X171593760Y-107361389D01*
X171442309Y-107337402D01*
X171398731Y-107330500D01*
X171201269Y-107330500D01*
X171164566Y-107336313D01*
X171006239Y-107361389D01*
X170818442Y-107422408D01*
X170818439Y-107422409D01*
X170732026Y-107466439D01*
X170642494Y-107512058D01*
X170482745Y-107628123D01*
X170382846Y-107728022D01*
X170269145Y-107813138D01*
X170136070Y-107862772D01*
X169994402Y-107872905D01*
X169855617Y-107842714D01*
X169730960Y-107774646D01*
X169677154Y-107728022D01*
X169577259Y-107628127D01*
X169577254Y-107628123D01*
X169577252Y-107628121D01*
X169494769Y-107568194D01*
X169417505Y-107512058D01*
X169390472Y-107498284D01*
X169241561Y-107422409D01*
X169053763Y-107361390D01*
X169053760Y-107361389D01*
X168902309Y-107337402D01*
X168858731Y-107330500D01*
X168661269Y-107330500D01*
X168624566Y-107336313D01*
X168466239Y-107361389D01*
X168278442Y-107422408D01*
X168278439Y-107422409D01*
X168168972Y-107478186D01*
X168102495Y-107512058D01*
X168019425Y-107572412D01*
X167893808Y-107638692D01*
X167754607Y-107666897D01*
X167613098Y-107654742D01*
X167480745Y-107603212D01*
X167368271Y-107516481D01*
X167335564Y-107478186D01*
X167331191Y-107473813D01*
X167216090Y-107387648D01*
X167216089Y-107387647D01*
X167081374Y-107337402D01*
X167021825Y-107331000D01*
X166974000Y-107331000D01*
X165466000Y-107331000D01*
X165418175Y-107331000D01*
X165358625Y-107337402D01*
X165223910Y-107387647D01*
X165223909Y-107387648D01*
X165108811Y-107473811D01*
X165022648Y-107588909D01*
X165022647Y-107588910D01*
X164972402Y-107723625D01*
X164966000Y-107783175D01*
X163500500Y-107783175D01*
X163500500Y-95786269D01*
X164965500Y-95786269D01*
X164965500Y-95983730D01*
X164996389Y-96178760D01*
X164996390Y-96178763D01*
X165057409Y-96366561D01*
X165143882Y-96536271D01*
X165147058Y-96542505D01*
X165203142Y-96619698D01*
X165263121Y-96702252D01*
X165263123Y-96702254D01*
X165263127Y-96702259D01*
X165402741Y-96841873D01*
X165402745Y-96841876D01*
X165402748Y-96841879D01*
X165492937Y-96907405D01*
X165562494Y-96957941D01*
X165562496Y-96957942D01*
X165562499Y-96957944D01*
X165738439Y-97047591D01*
X165926237Y-97108610D01*
X166121269Y-97139500D01*
X166121270Y-97139500D01*
X166318730Y-97139500D01*
X166318731Y-97139500D01*
X166513763Y-97108610D01*
X166701561Y-97047591D01*
X166877501Y-96957944D01*
X167037252Y-96841879D01*
X167037256Y-96841874D01*
X167037259Y-96841873D01*
X167137154Y-96741978D01*
X167250855Y-96656862D01*
X167383930Y-96607228D01*
X167525598Y-96597095D01*
X167664383Y-96627286D01*
X167789040Y-96695354D01*
X167842846Y-96741978D01*
X167942741Y-96841873D01*
X167942745Y-96841876D01*
X167942748Y-96841879D01*
X168032937Y-96907405D01*
X168102494Y-96957941D01*
X168102496Y-96957942D01*
X168102499Y-96957944D01*
X168278439Y-97047591D01*
X168466237Y-97108610D01*
X168661269Y-97139500D01*
X168661270Y-97139500D01*
X168858730Y-97139500D01*
X168858731Y-97139500D01*
X169053763Y-97108610D01*
X169241561Y-97047591D01*
X169417501Y-96957944D01*
X169577252Y-96841879D01*
X169577256Y-96841874D01*
X169577259Y-96841873D01*
X169677154Y-96741978D01*
X169790855Y-96656862D01*
X169923930Y-96607228D01*
X170065598Y-96597095D01*
X170204383Y-96627286D01*
X170329040Y-96695354D01*
X170382846Y-96741978D01*
X170482741Y-96841873D01*
X170482745Y-96841876D01*
X170482748Y-96841879D01*
X170572937Y-96907405D01*
X170642494Y-96957941D01*
X170642496Y-96957942D01*
X170642499Y-96957944D01*
X170818439Y-97047591D01*
X171006237Y-97108610D01*
X171201269Y-97139500D01*
X171201270Y-97139500D01*
X171398730Y-97139500D01*
X171398731Y-97139500D01*
X171593763Y-97108610D01*
X171781561Y-97047591D01*
X171957501Y-96957944D01*
X172117252Y-96841879D01*
X172117256Y-96841874D01*
X172117259Y-96841873D01*
X172217154Y-96741978D01*
X172330855Y-96656862D01*
X172463930Y-96607228D01*
X172605598Y-96597095D01*
X172744383Y-96627286D01*
X172869040Y-96695354D01*
X172922846Y-96741978D01*
X173022741Y-96841873D01*
X173022745Y-96841876D01*
X173022748Y-96841879D01*
X173112937Y-96907405D01*
X173182494Y-96957941D01*
X173182496Y-96957942D01*
X173182499Y-96957944D01*
X173358439Y-97047591D01*
X173546237Y-97108610D01*
X173741269Y-97139500D01*
X173741270Y-97139500D01*
X173938730Y-97139500D01*
X173938731Y-97139500D01*
X174133763Y-97108610D01*
X174321561Y-97047591D01*
X174497501Y-96957944D01*
X174657252Y-96841879D01*
X174657256Y-96841874D01*
X174657259Y-96841873D01*
X174757154Y-96741978D01*
X174870855Y-96656862D01*
X175003930Y-96607228D01*
X175145598Y-96597095D01*
X175284383Y-96627286D01*
X175409040Y-96695354D01*
X175462846Y-96741978D01*
X175562741Y-96841873D01*
X175562745Y-96841876D01*
X175562748Y-96841879D01*
X175652937Y-96907405D01*
X175722494Y-96957941D01*
X175722496Y-96957942D01*
X175722499Y-96957944D01*
X175898439Y-97047591D01*
X176086237Y-97108610D01*
X176281269Y-97139500D01*
X176281270Y-97139500D01*
X176478730Y-97139500D01*
X176478731Y-97139500D01*
X176673763Y-97108610D01*
X176861561Y-97047591D01*
X177037501Y-96957944D01*
X177197252Y-96841879D01*
X177197256Y-96841874D01*
X177197259Y-96841873D01*
X177297154Y-96741978D01*
X177410855Y-96656862D01*
X177543930Y-96607228D01*
X177685598Y-96597095D01*
X177824383Y-96627286D01*
X177949040Y-96695354D01*
X178002846Y-96741978D01*
X178102741Y-96841873D01*
X178102745Y-96841876D01*
X178102748Y-96841879D01*
X178192937Y-96907405D01*
X178262494Y-96957941D01*
X178262496Y-96957942D01*
X178262499Y-96957944D01*
X178438439Y-97047591D01*
X178626237Y-97108610D01*
X178821269Y-97139500D01*
X178821270Y-97139500D01*
X179018730Y-97139500D01*
X179018731Y-97139500D01*
X179213763Y-97108610D01*
X179401561Y-97047591D01*
X179577501Y-96957944D01*
X179737252Y-96841879D01*
X179737256Y-96841874D01*
X179737259Y-96841873D01*
X179837154Y-96741978D01*
X179950855Y-96656862D01*
X180083930Y-96607228D01*
X180225598Y-96597095D01*
X180364383Y-96627286D01*
X180489040Y-96695354D01*
X180542846Y-96741978D01*
X180642741Y-96841873D01*
X180642745Y-96841876D01*
X180642748Y-96841879D01*
X180732937Y-96907405D01*
X180802494Y-96957941D01*
X180802496Y-96957942D01*
X180802499Y-96957944D01*
X180978439Y-97047591D01*
X181166237Y-97108610D01*
X181361269Y-97139500D01*
X181361270Y-97139500D01*
X181558730Y-97139500D01*
X181558731Y-97139500D01*
X181753763Y-97108610D01*
X181941561Y-97047591D01*
X182117501Y-96957944D01*
X182277252Y-96841879D01*
X182277256Y-96841874D01*
X182277259Y-96841873D01*
X182377154Y-96741978D01*
X182405721Y-96720592D01*
X182430960Y-96695354D01*
X182462285Y-96678248D01*
X182490855Y-96656862D01*
X182524292Y-96644390D01*
X182555617Y-96627286D01*
X182590493Y-96619698D01*
X182623930Y-96607228D01*
X182659525Y-96604681D01*
X182694402Y-96597095D01*
X182730000Y-96599641D01*
X182765598Y-96597095D01*
X182800474Y-96604681D01*
X182836070Y-96607228D01*
X182869506Y-96619698D01*
X182904383Y-96627286D01*
X182935707Y-96644390D01*
X182969145Y-96656862D01*
X182997714Y-96678248D01*
X183029040Y-96695354D01*
X183082846Y-96741978D01*
X183143022Y-96802154D01*
X183228138Y-96915855D01*
X183277772Y-97048930D01*
X183287905Y-97190598D01*
X183257714Y-97329383D01*
X183189646Y-97454040D01*
X183143022Y-97507846D01*
X183043123Y-97607745D01*
X182927058Y-97767494D01*
X182881439Y-97857026D01*
X182837409Y-97943439D01*
X182837408Y-97943441D01*
X182837408Y-97943442D01*
X182776389Y-98131239D01*
X182745500Y-98326269D01*
X182745500Y-98523730D01*
X182776389Y-98718760D01*
X182776390Y-98718763D01*
X182837409Y-98906561D01*
X182923882Y-99076271D01*
X182927058Y-99082505D01*
X182999437Y-99182125D01*
X183043121Y-99242252D01*
X183043123Y-99242254D01*
X183043127Y-99242259D01*
X183143022Y-99342154D01*
X183228138Y-99455855D01*
X183277772Y-99588930D01*
X183287905Y-99730598D01*
X183257714Y-99869383D01*
X183189646Y-99994040D01*
X183143022Y-100047846D01*
X183043123Y-100147745D01*
X182927058Y-100307494D01*
X182881439Y-100397026D01*
X182837409Y-100483439D01*
X182837408Y-100483441D01*
X182837408Y-100483442D01*
X182776389Y-100671239D01*
X182745500Y-100866269D01*
X182745500Y-101063730D01*
X182776389Y-101258760D01*
X182776390Y-101258763D01*
X182837409Y-101446561D01*
X182923882Y-101616271D01*
X182927058Y-101622505D01*
X182999437Y-101722125D01*
X183043121Y-101782252D01*
X183043123Y-101782254D01*
X183043127Y-101782259D01*
X183182741Y-101921873D01*
X183182745Y-101921876D01*
X183182748Y-101921879D01*
X183272937Y-101987405D01*
X183342494Y-102037941D01*
X183342496Y-102037942D01*
X183342499Y-102037944D01*
X183518439Y-102127591D01*
X183706237Y-102188610D01*
X183901269Y-102219500D01*
X183901270Y-102219500D01*
X184098730Y-102219500D01*
X184098731Y-102219500D01*
X184293763Y-102188610D01*
X184481561Y-102127591D01*
X184657501Y-102037944D01*
X184817252Y-101921879D01*
X184817256Y-101921874D01*
X184817259Y-101921873D01*
X184956873Y-101782259D01*
X184956874Y-101782256D01*
X184956879Y-101782252D01*
X185072944Y-101622501D01*
X185162591Y-101446561D01*
X185223610Y-101258763D01*
X185254500Y-101063731D01*
X185254500Y-100866269D01*
X185223610Y-100671237D01*
X185162591Y-100483439D01*
X185072944Y-100307499D01*
X185072942Y-100307496D01*
X185072941Y-100307494D01*
X185022405Y-100237937D01*
X184956879Y-100147748D01*
X184956876Y-100147745D01*
X184956873Y-100147741D01*
X184856978Y-100047846D01*
X184771862Y-99934145D01*
X184722228Y-99801070D01*
X184712095Y-99659402D01*
X184742286Y-99520617D01*
X184810354Y-99395960D01*
X184856978Y-99342154D01*
X184956873Y-99242259D01*
X184956874Y-99242256D01*
X184956879Y-99242252D01*
X185072944Y-99082501D01*
X185162591Y-98906561D01*
X185223610Y-98718763D01*
X185254500Y-98523731D01*
X185254500Y-98326269D01*
X185223610Y-98131237D01*
X185162591Y-97943439D01*
X185072944Y-97767499D01*
X185072942Y-97767496D01*
X185072941Y-97767494D01*
X185022405Y-97697937D01*
X184956879Y-97607748D01*
X184956876Y-97607745D01*
X184956873Y-97607741D01*
X184856978Y-97507846D01*
X184771862Y-97394145D01*
X184722228Y-97261070D01*
X184712095Y-97119402D01*
X184742286Y-96980617D01*
X184810354Y-96855960D01*
X184856978Y-96802154D01*
X184956873Y-96702259D01*
X184956874Y-96702256D01*
X184956879Y-96702252D01*
X185072944Y-96542501D01*
X185162591Y-96366561D01*
X185223610Y-96178763D01*
X185254500Y-95983731D01*
X185254500Y-95786269D01*
X185223610Y-95591237D01*
X185162591Y-95403439D01*
X185072944Y-95227499D01*
X185072942Y-95227496D01*
X185072941Y-95227494D01*
X185022405Y-95157937D01*
X184956879Y-95067748D01*
X184956876Y-95067745D01*
X184956873Y-95067741D01*
X184817259Y-94928127D01*
X184817254Y-94928123D01*
X184817252Y-94928121D01*
X184757125Y-94884437D01*
X184657505Y-94812058D01*
X184651271Y-94808882D01*
X184481561Y-94722409D01*
X184293763Y-94661390D01*
X184293760Y-94661389D01*
X184143941Y-94637660D01*
X184098731Y-94630500D01*
X183901269Y-94630500D01*
X183864566Y-94636313D01*
X183706239Y-94661389D01*
X183518442Y-94722408D01*
X183518439Y-94722409D01*
X183432026Y-94766439D01*
X183342494Y-94812058D01*
X183182745Y-94928123D01*
X183082846Y-95028022D01*
X182969145Y-95113138D01*
X182836070Y-95162772D01*
X182694402Y-95172905D01*
X182555617Y-95142714D01*
X182430960Y-95074646D01*
X182377154Y-95028022D01*
X182277259Y-94928127D01*
X182277254Y-94928123D01*
X182277252Y-94928121D01*
X182217125Y-94884437D01*
X182117505Y-94812058D01*
X182111271Y-94808882D01*
X181941561Y-94722409D01*
X181753763Y-94661390D01*
X181753760Y-94661389D01*
X181603941Y-94637660D01*
X181558731Y-94630500D01*
X181361269Y-94630500D01*
X181324566Y-94636313D01*
X181166239Y-94661389D01*
X180978442Y-94722408D01*
X180978439Y-94722409D01*
X180892026Y-94766439D01*
X180802494Y-94812058D01*
X180642745Y-94928123D01*
X180542846Y-95028022D01*
X180429145Y-95113138D01*
X180296070Y-95162772D01*
X180154402Y-95172905D01*
X180015617Y-95142714D01*
X179890960Y-95074646D01*
X179837154Y-95028022D01*
X179737259Y-94928127D01*
X179737254Y-94928123D01*
X179737252Y-94928121D01*
X179677125Y-94884437D01*
X179577505Y-94812058D01*
X179571271Y-94808882D01*
X179401561Y-94722409D01*
X179213763Y-94661390D01*
X179213760Y-94661389D01*
X179063941Y-94637660D01*
X179018731Y-94630500D01*
X178821269Y-94630500D01*
X178784566Y-94636313D01*
X178626239Y-94661389D01*
X178438442Y-94722408D01*
X178438439Y-94722409D01*
X178352026Y-94766439D01*
X178262494Y-94812058D01*
X178102745Y-94928123D01*
X178002846Y-95028022D01*
X177889145Y-95113138D01*
X177756070Y-95162772D01*
X177614402Y-95172905D01*
X177475617Y-95142714D01*
X177350960Y-95074646D01*
X177297154Y-95028022D01*
X177197259Y-94928127D01*
X177197254Y-94928123D01*
X177197252Y-94928121D01*
X177137125Y-94884437D01*
X177037505Y-94812058D01*
X177031271Y-94808882D01*
X176861561Y-94722409D01*
X176673763Y-94661390D01*
X176673760Y-94661389D01*
X176523941Y-94637660D01*
X176478731Y-94630500D01*
X176281269Y-94630500D01*
X176244566Y-94636313D01*
X176086239Y-94661389D01*
X175898442Y-94722408D01*
X175898439Y-94722409D01*
X175812026Y-94766439D01*
X175722494Y-94812058D01*
X175562745Y-94928123D01*
X175462846Y-95028022D01*
X175349145Y-95113138D01*
X175216070Y-95162772D01*
X175074402Y-95172905D01*
X174935617Y-95142714D01*
X174810960Y-95074646D01*
X174757154Y-95028022D01*
X174657259Y-94928127D01*
X174657254Y-94928123D01*
X174657252Y-94928121D01*
X174597125Y-94884437D01*
X174497505Y-94812058D01*
X174491271Y-94808882D01*
X174321561Y-94722409D01*
X174133763Y-94661390D01*
X174133760Y-94661389D01*
X173983941Y-94637660D01*
X173938731Y-94630500D01*
X173741269Y-94630500D01*
X173704566Y-94636313D01*
X173546239Y-94661389D01*
X173358442Y-94722408D01*
X173358439Y-94722409D01*
X173272026Y-94766439D01*
X173182494Y-94812058D01*
X173022745Y-94928123D01*
X172922846Y-95028022D01*
X172809145Y-95113138D01*
X172676070Y-95162772D01*
X172534402Y-95172905D01*
X172395617Y-95142714D01*
X172270960Y-95074646D01*
X172217154Y-95028022D01*
X172117259Y-94928127D01*
X172117254Y-94928123D01*
X172117252Y-94928121D01*
X172057125Y-94884437D01*
X171957505Y-94812058D01*
X171951271Y-94808882D01*
X171781561Y-94722409D01*
X171593763Y-94661390D01*
X171593760Y-94661389D01*
X171443941Y-94637660D01*
X171398731Y-94630500D01*
X171201269Y-94630500D01*
X171164566Y-94636313D01*
X171006239Y-94661389D01*
X170818442Y-94722408D01*
X170818439Y-94722409D01*
X170732026Y-94766439D01*
X170642494Y-94812058D01*
X170482745Y-94928123D01*
X170382846Y-95028022D01*
X170269145Y-95113138D01*
X170136070Y-95162772D01*
X169994402Y-95172905D01*
X169855617Y-95142714D01*
X169730960Y-95074646D01*
X169677154Y-95028022D01*
X169577259Y-94928127D01*
X169577254Y-94928123D01*
X169577252Y-94928121D01*
X169517125Y-94884437D01*
X169417505Y-94812058D01*
X169411271Y-94808882D01*
X169241561Y-94722409D01*
X169053763Y-94661390D01*
X169053760Y-94661389D01*
X168903941Y-94637660D01*
X168858731Y-94630500D01*
X168661269Y-94630500D01*
X168624566Y-94636313D01*
X168466239Y-94661389D01*
X168278442Y-94722408D01*
X168278439Y-94722409D01*
X168192026Y-94766439D01*
X168102494Y-94812058D01*
X167942745Y-94928123D01*
X167842846Y-95028022D01*
X167729145Y-95113138D01*
X167596070Y-95162772D01*
X167454402Y-95172905D01*
X167315617Y-95142714D01*
X167190960Y-95074646D01*
X167137154Y-95028022D01*
X167037259Y-94928127D01*
X167037254Y-94928123D01*
X167037252Y-94928121D01*
X166977125Y-94884437D01*
X166877505Y-94812058D01*
X166871271Y-94808882D01*
X166701561Y-94722409D01*
X166513763Y-94661390D01*
X166513760Y-94661389D01*
X166363941Y-94637660D01*
X166318731Y-94630500D01*
X166121269Y-94630500D01*
X166084566Y-94636313D01*
X165926239Y-94661389D01*
X165738442Y-94722408D01*
X165738439Y-94722409D01*
X165652026Y-94766439D01*
X165562494Y-94812058D01*
X165402745Y-94928123D01*
X165263123Y-95067745D01*
X165147058Y-95227494D01*
X165101439Y-95317026D01*
X165057409Y-95403439D01*
X165057408Y-95403441D01*
X165057408Y-95403442D01*
X164996389Y-95591239D01*
X164965500Y-95786269D01*
X163500500Y-95786269D01*
X163500500Y-83713712D01*
X168829500Y-83713712D01*
X168829500Y-83926287D01*
X168862752Y-84136237D01*
X168862756Y-84136253D01*
X168928439Y-84338403D01*
X168928442Y-84338409D01*
X168928443Y-84338412D01*
X169024949Y-84527816D01*
X169149896Y-84699792D01*
X169149898Y-84699794D01*
X169149902Y-84699799D01*
X169300201Y-84850098D01*
X169300205Y-84850101D01*
X169300208Y-84850104D01*
X169472184Y-84975051D01*
X169661588Y-85071557D01*
X169661593Y-85071558D01*
X169661596Y-85071560D01*
X169863746Y-85137243D01*
X169863753Y-85137244D01*
X169863757Y-85137246D01*
X169863759Y-85137246D01*
X169863762Y-85137247D01*
X170073713Y-85170500D01*
X170286287Y-85170500D01*
X170496237Y-85137247D01*
X170496237Y-85137246D01*
X170496243Y-85137246D01*
X170496249Y-85137243D01*
X170496253Y-85137243D01*
X170698403Y-85071560D01*
X170698403Y-85071559D01*
X170698412Y-85071557D01*
X170887816Y-84975051D01*
X171059792Y-84850104D01*
X171059796Y-84850099D01*
X171059799Y-84850098D01*
X171097154Y-84812743D01*
X171210855Y-84727627D01*
X171343930Y-84677993D01*
X171485598Y-84667860D01*
X171624383Y-84698051D01*
X171749040Y-84766119D01*
X171802846Y-84812743D01*
X171840201Y-84850098D01*
X171840205Y-84850101D01*
X171840208Y-84850104D01*
X172012184Y-84975051D01*
X172201588Y-85071557D01*
X172201593Y-85071558D01*
X172201596Y-85071560D01*
X172403746Y-85137243D01*
X172403753Y-85137244D01*
X172403757Y-85137246D01*
X172403759Y-85137246D01*
X172403762Y-85137247D01*
X172613713Y-85170500D01*
X172826287Y-85170500D01*
X173036237Y-85137247D01*
X173036237Y-85137246D01*
X173036243Y-85137246D01*
X173036249Y-85137243D01*
X173036253Y-85137243D01*
X173238403Y-85071560D01*
X173238403Y-85071559D01*
X173238412Y-85071557D01*
X173427816Y-84975051D01*
X173599792Y-84850104D01*
X173599796Y-84850099D01*
X173599799Y-84850098D01*
X173637154Y-84812743D01*
X173750855Y-84727627D01*
X173883930Y-84677993D01*
X174025598Y-84667860D01*
X174164383Y-84698051D01*
X174289040Y-84766119D01*
X174342846Y-84812743D01*
X174380201Y-84850098D01*
X174380205Y-84850101D01*
X174380208Y-84850104D01*
X174552184Y-84975051D01*
X174741588Y-85071557D01*
X174741593Y-85071558D01*
X174741596Y-85071560D01*
X174943746Y-85137243D01*
X174943753Y-85137244D01*
X174943757Y-85137246D01*
X174943759Y-85137246D01*
X174943762Y-85137247D01*
X175153713Y-85170500D01*
X175366287Y-85170500D01*
X175576237Y-85137247D01*
X175576237Y-85137246D01*
X175576243Y-85137246D01*
X175576249Y-85137243D01*
X175576253Y-85137243D01*
X175778403Y-85071560D01*
X175778403Y-85071559D01*
X175778412Y-85071557D01*
X175967816Y-84975051D01*
X176139792Y-84850104D01*
X176139796Y-84850099D01*
X176139799Y-84850098D01*
X176177154Y-84812743D01*
X176290855Y-84727627D01*
X176423930Y-84677993D01*
X176565598Y-84667860D01*
X176704383Y-84698051D01*
X176829040Y-84766119D01*
X176882846Y-84812743D01*
X176920201Y-84850098D01*
X176920205Y-84850101D01*
X176920208Y-84850104D01*
X177092184Y-84975051D01*
X177281588Y-85071557D01*
X177281593Y-85071558D01*
X177281596Y-85071560D01*
X177483746Y-85137243D01*
X177483753Y-85137244D01*
X177483757Y-85137246D01*
X177483759Y-85137246D01*
X177483762Y-85137247D01*
X177693713Y-85170500D01*
X177906287Y-85170500D01*
X178116237Y-85137247D01*
X178116237Y-85137246D01*
X178116243Y-85137246D01*
X178116249Y-85137243D01*
X178116253Y-85137243D01*
X178318403Y-85071560D01*
X178318403Y-85071559D01*
X178318412Y-85071557D01*
X178507816Y-84975051D01*
X178679792Y-84850104D01*
X178679796Y-84850099D01*
X178679799Y-84850098D01*
X178717154Y-84812743D01*
X178830855Y-84727627D01*
X178963930Y-84677993D01*
X179105598Y-84667860D01*
X179244383Y-84698051D01*
X179369040Y-84766119D01*
X179422846Y-84812743D01*
X179460201Y-84850098D01*
X179460205Y-84850101D01*
X179460208Y-84850104D01*
X179632184Y-84975051D01*
X179821588Y-85071557D01*
X179821593Y-85071558D01*
X179821596Y-85071560D01*
X180023746Y-85137243D01*
X180023753Y-85137244D01*
X180023757Y-85137246D01*
X180023759Y-85137246D01*
X180023762Y-85137247D01*
X180233713Y-85170500D01*
X180446287Y-85170500D01*
X180656237Y-85137247D01*
X180656237Y-85137246D01*
X180656243Y-85137246D01*
X180656249Y-85137243D01*
X180656253Y-85137243D01*
X180858403Y-85071560D01*
X180858403Y-85071559D01*
X180858412Y-85071557D01*
X181047816Y-84975051D01*
X181219792Y-84850104D01*
X181219796Y-84850099D01*
X181219799Y-84850098D01*
X181257154Y-84812743D01*
X181370855Y-84727627D01*
X181503930Y-84677993D01*
X181645598Y-84667860D01*
X181784383Y-84698051D01*
X181909040Y-84766119D01*
X181962846Y-84812743D01*
X182000201Y-84850098D01*
X182000205Y-84850101D01*
X182000208Y-84850104D01*
X182172184Y-84975051D01*
X182361588Y-85071557D01*
X182361593Y-85071558D01*
X182361596Y-85071560D01*
X182563746Y-85137243D01*
X182563753Y-85137244D01*
X182563757Y-85137246D01*
X182563759Y-85137246D01*
X182563762Y-85137247D01*
X182773713Y-85170500D01*
X182986287Y-85170500D01*
X183196237Y-85137247D01*
X183196237Y-85137246D01*
X183196243Y-85137246D01*
X183196249Y-85137243D01*
X183196253Y-85137243D01*
X183398403Y-85071560D01*
X183398403Y-85071559D01*
X183398412Y-85071557D01*
X183587816Y-84975051D01*
X183759792Y-84850104D01*
X183759796Y-84850099D01*
X183759799Y-84850098D01*
X183797154Y-84812743D01*
X183910855Y-84727627D01*
X184043930Y-84677993D01*
X184185598Y-84667860D01*
X184324383Y-84698051D01*
X184449040Y-84766119D01*
X184502846Y-84812743D01*
X184540201Y-84850098D01*
X184540205Y-84850101D01*
X184540208Y-84850104D01*
X184712184Y-84975051D01*
X184901588Y-85071557D01*
X184901593Y-85071558D01*
X184901596Y-85071560D01*
X185103746Y-85137243D01*
X185103753Y-85137244D01*
X185103757Y-85137246D01*
X185103759Y-85137246D01*
X185103762Y-85137247D01*
X185313713Y-85170500D01*
X185526287Y-85170500D01*
X185736237Y-85137247D01*
X185736237Y-85137246D01*
X185736243Y-85137246D01*
X185736249Y-85137243D01*
X185736253Y-85137243D01*
X185938403Y-85071560D01*
X185938403Y-85071559D01*
X185938412Y-85071557D01*
X186127816Y-84975051D01*
X186299792Y-84850104D01*
X186299796Y-84850099D01*
X186299799Y-84850098D01*
X186450098Y-84699799D01*
X186450099Y-84699796D01*
X186450104Y-84699792D01*
X186575051Y-84527816D01*
X186671557Y-84338412D01*
X186737246Y-84136243D01*
X186770500Y-83926287D01*
X186770500Y-83713713D01*
X186737246Y-83503757D01*
X186737244Y-83503753D01*
X186737243Y-83503746D01*
X186671560Y-83301596D01*
X186671558Y-83301593D01*
X186671557Y-83301588D01*
X186575051Y-83112184D01*
X186450104Y-82940208D01*
X186450101Y-82940205D01*
X186450098Y-82940201D01*
X186299799Y-82789902D01*
X186299794Y-82789898D01*
X186299792Y-82789896D01*
X186127816Y-82664949D01*
X186127811Y-82664946D01*
X186127807Y-82664944D01*
X186042872Y-82621668D01*
X185938412Y-82568443D01*
X185938409Y-82568442D01*
X185938403Y-82568439D01*
X185736253Y-82502756D01*
X185736237Y-82502752D01*
X185526287Y-82469500D01*
X185313713Y-82469500D01*
X185103762Y-82502752D01*
X185103746Y-82502756D01*
X184901596Y-82568439D01*
X184901588Y-82568443D01*
X184712192Y-82664944D01*
X184712182Y-82664950D01*
X184540205Y-82789898D01*
X184502846Y-82827257D01*
X184389145Y-82912373D01*
X184256070Y-82962007D01*
X184114402Y-82972140D01*
X183975617Y-82941949D01*
X183850960Y-82873881D01*
X183797154Y-82827257D01*
X183759799Y-82789902D01*
X183759794Y-82789898D01*
X183759792Y-82789896D01*
X183587816Y-82664949D01*
X183587811Y-82664946D01*
X183587807Y-82664944D01*
X183502872Y-82621668D01*
X183398412Y-82568443D01*
X183398409Y-82568442D01*
X183398403Y-82568439D01*
X183196253Y-82502756D01*
X183196237Y-82502752D01*
X182986287Y-82469500D01*
X182773713Y-82469500D01*
X182563762Y-82502752D01*
X182563746Y-82502756D01*
X182361596Y-82568439D01*
X182361588Y-82568443D01*
X182172192Y-82664944D01*
X182172182Y-82664950D01*
X182000205Y-82789898D01*
X181962846Y-82827257D01*
X181849145Y-82912373D01*
X181716070Y-82962007D01*
X181574402Y-82972140D01*
X181435617Y-82941949D01*
X181310960Y-82873881D01*
X181257154Y-82827257D01*
X181219799Y-82789902D01*
X181219794Y-82789898D01*
X181219792Y-82789896D01*
X181047816Y-82664949D01*
X181047811Y-82664946D01*
X181047807Y-82664944D01*
X180962872Y-82621668D01*
X180858412Y-82568443D01*
X180858409Y-82568442D01*
X180858403Y-82568439D01*
X180656253Y-82502756D01*
X180656237Y-82502752D01*
X180446287Y-82469500D01*
X180233713Y-82469500D01*
X180023762Y-82502752D01*
X180023746Y-82502756D01*
X179821596Y-82568439D01*
X179821588Y-82568443D01*
X179632192Y-82664944D01*
X179632182Y-82664950D01*
X179460205Y-82789898D01*
X179422846Y-82827257D01*
X179309145Y-82912373D01*
X179176070Y-82962007D01*
X179034402Y-82972140D01*
X178895617Y-82941949D01*
X178770960Y-82873881D01*
X178717154Y-82827257D01*
X178679799Y-82789902D01*
X178679794Y-82789898D01*
X178679792Y-82789896D01*
X178507816Y-82664949D01*
X178507811Y-82664946D01*
X178507807Y-82664944D01*
X178422872Y-82621668D01*
X178318412Y-82568443D01*
X178318409Y-82568442D01*
X178318403Y-82568439D01*
X178116253Y-82502756D01*
X178116237Y-82502752D01*
X177906287Y-82469500D01*
X177693713Y-82469500D01*
X177483762Y-82502752D01*
X177483746Y-82502756D01*
X177281596Y-82568439D01*
X177281588Y-82568443D01*
X177092192Y-82664944D01*
X177092182Y-82664950D01*
X176920205Y-82789898D01*
X176882846Y-82827257D01*
X176769145Y-82912373D01*
X176636070Y-82962007D01*
X176494402Y-82972140D01*
X176355617Y-82941949D01*
X176230960Y-82873881D01*
X176177154Y-82827257D01*
X176139799Y-82789902D01*
X176139794Y-82789898D01*
X176139792Y-82789896D01*
X175967816Y-82664949D01*
X175967811Y-82664946D01*
X175967807Y-82664944D01*
X175882872Y-82621668D01*
X175778412Y-82568443D01*
X175778409Y-82568442D01*
X175778403Y-82568439D01*
X175576253Y-82502756D01*
X175576237Y-82502752D01*
X175366287Y-82469500D01*
X175153713Y-82469500D01*
X174943762Y-82502752D01*
X174943746Y-82502756D01*
X174741596Y-82568439D01*
X174741588Y-82568443D01*
X174552192Y-82664944D01*
X174552182Y-82664950D01*
X174380205Y-82789898D01*
X174342846Y-82827257D01*
X174229145Y-82912373D01*
X174096070Y-82962007D01*
X173954402Y-82972140D01*
X173815617Y-82941949D01*
X173690960Y-82873881D01*
X173637154Y-82827257D01*
X173599799Y-82789902D01*
X173599794Y-82789898D01*
X173599792Y-82789896D01*
X173427816Y-82664949D01*
X173427811Y-82664946D01*
X173427807Y-82664944D01*
X173342872Y-82621668D01*
X173238412Y-82568443D01*
X173238409Y-82568442D01*
X173238403Y-82568439D01*
X173036253Y-82502756D01*
X173036237Y-82502752D01*
X172826287Y-82469500D01*
X172613713Y-82469500D01*
X172403762Y-82502752D01*
X172403746Y-82502756D01*
X172201596Y-82568439D01*
X172201588Y-82568443D01*
X172012192Y-82664944D01*
X172012182Y-82664950D01*
X171840205Y-82789898D01*
X171802846Y-82827257D01*
X171689145Y-82912373D01*
X171556070Y-82962007D01*
X171414402Y-82972140D01*
X171275617Y-82941949D01*
X171150960Y-82873881D01*
X171097154Y-82827257D01*
X171059799Y-82789902D01*
X171059794Y-82789898D01*
X171059792Y-82789896D01*
X170887816Y-82664949D01*
X170887811Y-82664946D01*
X170887807Y-82664944D01*
X170802872Y-82621668D01*
X170698412Y-82568443D01*
X170698409Y-82568442D01*
X170698403Y-82568439D01*
X170496253Y-82502756D01*
X170496237Y-82502752D01*
X170286287Y-82469500D01*
X170073713Y-82469500D01*
X169863762Y-82502752D01*
X169863746Y-82502756D01*
X169661596Y-82568439D01*
X169661588Y-82568443D01*
X169472192Y-82664944D01*
X169472182Y-82664950D01*
X169300205Y-82789898D01*
X169149898Y-82940205D01*
X169024950Y-83112182D01*
X169024944Y-83112192D01*
X168928443Y-83301588D01*
X168928439Y-83301596D01*
X168862756Y-83503746D01*
X168862752Y-83503762D01*
X168829500Y-83713712D01*
X163500500Y-83713712D01*
X163500500Y-77842130D01*
X168829500Y-77842130D01*
X168829500Y-79637875D01*
X168829501Y-79637880D01*
X168835908Y-79697480D01*
X168835909Y-79697484D01*
X168886201Y-79832324D01*
X168886204Y-79832331D01*
X168972454Y-79947546D01*
X169087669Y-80033796D01*
X169222517Y-80084091D01*
X169282127Y-80090500D01*
X171077872Y-80090499D01*
X171077875Y-80090499D01*
X171077878Y-80090498D01*
X171137483Y-80084091D01*
X171272331Y-80033796D01*
X171387546Y-79947546D01*
X171473796Y-79832331D01*
X171524091Y-79697483D01*
X171530500Y-79637873D01*
X171530499Y-77842128D01*
X171524091Y-77782517D01*
X171473796Y-77647669D01*
X171387546Y-77532454D01*
X171272331Y-77446204D01*
X171272327Y-77446202D01*
X171272324Y-77446201D01*
X171137485Y-77395909D01*
X171117613Y-77393772D01*
X171077873Y-77389500D01*
X171077869Y-77389500D01*
X169282124Y-77389500D01*
X169282119Y-77389501D01*
X169222519Y-77395908D01*
X169222515Y-77395909D01*
X169087673Y-77446202D01*
X169087665Y-77446206D01*
X168972454Y-77532454D01*
X168886206Y-77647665D01*
X168886201Y-77647675D01*
X168835909Y-77782514D01*
X168832704Y-77812322D01*
X168829501Y-77842124D01*
X168829500Y-77842130D01*
X163500500Y-77842130D01*
X163500500Y-71242130D01*
X168729500Y-71242130D01*
X168729500Y-73037875D01*
X168729501Y-73037880D01*
X168735908Y-73097480D01*
X168735909Y-73097484D01*
X168786201Y-73232324D01*
X168786204Y-73232331D01*
X168872454Y-73347546D01*
X168987669Y-73433796D01*
X169122517Y-73484091D01*
X169182127Y-73490500D01*
X170977872Y-73490499D01*
X170977875Y-73490499D01*
X170977878Y-73490498D01*
X171037483Y-73484091D01*
X171172331Y-73433796D01*
X171287546Y-73347546D01*
X171373796Y-73232331D01*
X171424091Y-73097483D01*
X171430500Y-73037873D01*
X171430499Y-71242128D01*
X171424091Y-71182517D01*
X171373796Y-71047669D01*
X171287546Y-70932454D01*
X171172331Y-70846204D01*
X171172327Y-70846202D01*
X171172324Y-70846201D01*
X171037485Y-70795909D01*
X171017613Y-70793772D01*
X170977873Y-70789500D01*
X170977869Y-70789500D01*
X170894375Y-70789500D01*
X170753790Y-70769287D01*
X170624595Y-70710286D01*
X170517256Y-70617276D01*
X170440469Y-70497792D01*
X170400454Y-70361515D01*
X170400454Y-70219485D01*
X170440469Y-70083208D01*
X170517256Y-69963724D01*
X170620447Y-69873409D01*
X170670229Y-69840714D01*
X170698412Y-69831557D01*
X170887816Y-69735051D01*
X171059792Y-69610104D01*
X171133320Y-69536575D01*
X171176072Y-69508498D01*
X171194535Y-69499844D01*
X171210855Y-69487627D01*
X171258563Y-69469832D01*
X171304676Y-69448219D01*
X171324828Y-69445117D01*
X171343930Y-69437993D01*
X171394726Y-69434359D01*
X171445054Y-69426614D01*
X171465258Y-69429314D01*
X171485598Y-69427860D01*
X171535362Y-69438685D01*
X171585832Y-69445432D01*
X171604459Y-69453716D01*
X171624383Y-69458051D01*
X171669080Y-69482457D01*
X171715605Y-69503150D01*
X171731143Y-69516346D01*
X171749040Y-69526119D01*
X171802846Y-69572743D01*
X171840201Y-69610098D01*
X171840205Y-69610101D01*
X171840208Y-69610104D01*
X172012184Y-69735051D01*
X172201588Y-69831557D01*
X172201593Y-69831558D01*
X172201596Y-69831560D01*
X172403746Y-69897243D01*
X172403753Y-69897244D01*
X172403757Y-69897246D01*
X172403759Y-69897246D01*
X172403762Y-69897247D01*
X172613713Y-69930500D01*
X172826287Y-69930500D01*
X173036237Y-69897247D01*
X173036237Y-69897246D01*
X173036243Y-69897246D01*
X173036249Y-69897243D01*
X173036253Y-69897243D01*
X173238403Y-69831560D01*
X173238403Y-69831559D01*
X173238412Y-69831557D01*
X173427816Y-69735051D01*
X173599792Y-69610104D01*
X173599796Y-69610099D01*
X173599799Y-69610098D01*
X173637154Y-69572743D01*
X173750855Y-69487627D01*
X173883930Y-69437993D01*
X174025598Y-69427860D01*
X174164383Y-69458051D01*
X174289040Y-69526119D01*
X174342846Y-69572743D01*
X174380201Y-69610098D01*
X174380205Y-69610101D01*
X174380208Y-69610104D01*
X174552184Y-69735051D01*
X174741588Y-69831557D01*
X174741593Y-69831558D01*
X174741596Y-69831560D01*
X174943746Y-69897243D01*
X174943753Y-69897244D01*
X174943757Y-69897246D01*
X174943759Y-69897246D01*
X174943762Y-69897247D01*
X175153713Y-69930500D01*
X175366287Y-69930500D01*
X175576237Y-69897247D01*
X175576237Y-69897246D01*
X175576243Y-69897246D01*
X175576249Y-69897243D01*
X175576253Y-69897243D01*
X175778403Y-69831560D01*
X175778403Y-69831559D01*
X175778412Y-69831557D01*
X175967816Y-69735051D01*
X176139792Y-69610104D01*
X176139796Y-69610099D01*
X176139799Y-69610098D01*
X176177154Y-69572743D01*
X176290855Y-69487627D01*
X176423930Y-69437993D01*
X176565598Y-69427860D01*
X176704383Y-69458051D01*
X176829040Y-69526119D01*
X176882846Y-69572743D01*
X176920201Y-69610098D01*
X176920205Y-69610101D01*
X176920208Y-69610104D01*
X177092184Y-69735051D01*
X177281588Y-69831557D01*
X177281593Y-69831558D01*
X177281596Y-69831560D01*
X177483746Y-69897243D01*
X177483753Y-69897244D01*
X177483757Y-69897246D01*
X177483759Y-69897246D01*
X177483762Y-69897247D01*
X177693713Y-69930500D01*
X177906287Y-69930500D01*
X178116237Y-69897247D01*
X178116237Y-69897246D01*
X178116243Y-69897246D01*
X178116249Y-69897243D01*
X178116253Y-69897243D01*
X178318403Y-69831560D01*
X178318403Y-69831559D01*
X178318412Y-69831557D01*
X178507816Y-69735051D01*
X178679792Y-69610104D01*
X178679796Y-69610099D01*
X178679799Y-69610098D01*
X178717154Y-69572743D01*
X178830855Y-69487627D01*
X178963930Y-69437993D01*
X179105598Y-69427860D01*
X179244383Y-69458051D01*
X179369040Y-69526119D01*
X179422846Y-69572743D01*
X179460201Y-69610098D01*
X179460205Y-69610101D01*
X179460208Y-69610104D01*
X179632184Y-69735051D01*
X179821588Y-69831557D01*
X179821593Y-69831558D01*
X179821596Y-69831560D01*
X180023746Y-69897243D01*
X180023753Y-69897244D01*
X180023757Y-69897246D01*
X180023759Y-69897246D01*
X180023762Y-69897247D01*
X180233713Y-69930500D01*
X180446287Y-69930500D01*
X180656237Y-69897247D01*
X180656237Y-69897246D01*
X180656243Y-69897246D01*
X180656249Y-69897243D01*
X180656253Y-69897243D01*
X180858403Y-69831560D01*
X180858403Y-69831559D01*
X180858412Y-69831557D01*
X181047816Y-69735051D01*
X181047829Y-69735041D01*
X181064523Y-69724812D01*
X181066380Y-69727843D01*
X181160385Y-69678230D01*
X181299584Y-69650010D01*
X181441094Y-69662149D01*
X181573453Y-69713665D01*
X181643459Y-69766850D01*
X181644244Y-69765803D01*
X181787909Y-69873351D01*
X181787910Y-69873352D01*
X181922625Y-69923597D01*
X181982175Y-69930000D01*
X182030000Y-69930000D01*
X182030000Y-68514174D01*
X182380000Y-68514174D01*
X182380000Y-68645826D01*
X182414075Y-68772993D01*
X182479901Y-68887007D01*
X182572993Y-68980099D01*
X182687007Y-69045925D01*
X182814174Y-69080000D01*
X182945826Y-69080000D01*
X183072993Y-69045925D01*
X183187007Y-68980099D01*
X183280099Y-68887007D01*
X183345925Y-68772993D01*
X183380000Y-68645826D01*
X183380000Y-68514174D01*
X183345925Y-68387007D01*
X183280099Y-68272993D01*
X183187007Y-68179901D01*
X183072993Y-68114075D01*
X182945826Y-68080000D01*
X182814174Y-68080000D01*
X182687007Y-68114075D01*
X182572993Y-68179901D01*
X182479901Y-68272993D01*
X182414075Y-68387007D01*
X182380000Y-68514174D01*
X182030000Y-68514174D01*
X182030000Y-67230000D01*
X183730000Y-67230000D01*
X183730000Y-69930000D01*
X183777825Y-69930000D01*
X183837374Y-69923597D01*
X183972089Y-69873352D01*
X183972090Y-69873351D01*
X184115756Y-69765803D01*
X184116740Y-69767117D01*
X184192718Y-69710238D01*
X184325792Y-69660600D01*
X184467460Y-69650463D01*
X184606245Y-69680650D01*
X184693755Y-69727620D01*
X184695477Y-69724812D01*
X184712176Y-69735045D01*
X184712184Y-69735051D01*
X184901588Y-69831557D01*
X184901593Y-69831558D01*
X184901596Y-69831560D01*
X185103746Y-69897243D01*
X185103753Y-69897244D01*
X185103757Y-69897246D01*
X185103759Y-69897246D01*
X185103762Y-69897247D01*
X185313713Y-69930500D01*
X185526287Y-69930500D01*
X185736237Y-69897247D01*
X185736237Y-69897246D01*
X185736243Y-69897246D01*
X185736249Y-69897243D01*
X185736253Y-69897243D01*
X185938403Y-69831560D01*
X185938403Y-69831559D01*
X185938412Y-69831557D01*
X186127816Y-69735051D01*
X186299792Y-69610104D01*
X186299796Y-69610099D01*
X186299799Y-69610098D01*
X186450098Y-69459799D01*
X186450099Y-69459796D01*
X186450104Y-69459792D01*
X186575051Y-69287816D01*
X186671557Y-69098412D01*
X186671560Y-69098403D01*
X186737243Y-68896253D01*
X186737243Y-68896249D01*
X186737246Y-68896243D01*
X186770500Y-68686287D01*
X186770500Y-68473713D01*
X186737246Y-68263757D01*
X186737244Y-68263753D01*
X186737243Y-68263746D01*
X186671560Y-68061596D01*
X186671558Y-68061593D01*
X186671557Y-68061588D01*
X186575051Y-67872184D01*
X186450104Y-67700208D01*
X186450101Y-67700205D01*
X186450098Y-67700201D01*
X186299799Y-67549902D01*
X186299794Y-67549898D01*
X186299792Y-67549896D01*
X186127816Y-67424949D01*
X186127811Y-67424946D01*
X186127807Y-67424944D01*
X186042872Y-67381668D01*
X185938412Y-67328443D01*
X185938409Y-67328442D01*
X185938403Y-67328439D01*
X185736253Y-67262756D01*
X185736237Y-67262752D01*
X185526287Y-67229500D01*
X185313713Y-67229500D01*
X185103762Y-67262752D01*
X185103746Y-67262756D01*
X184901596Y-67328439D01*
X184901588Y-67328443D01*
X184712192Y-67424944D01*
X184695477Y-67435188D01*
X184693625Y-67432167D01*
X184599428Y-67481835D01*
X184460219Y-67510000D01*
X184318713Y-67497805D01*
X184186375Y-67446237D01*
X184116534Y-67393156D01*
X184115756Y-67394197D01*
X183972090Y-67286648D01*
X183972089Y-67286647D01*
X183837374Y-67236402D01*
X183777825Y-67230000D01*
X183730000Y-67230000D01*
X182030000Y-67230000D01*
X181982175Y-67230000D01*
X181922625Y-67236402D01*
X181787910Y-67286647D01*
X181787909Y-67286648D01*
X181644244Y-67394197D01*
X181643259Y-67392882D01*
X181567255Y-67449775D01*
X181434179Y-67499405D01*
X181292510Y-67509534D01*
X181153727Y-67479339D01*
X181066242Y-67432382D01*
X181064523Y-67435188D01*
X181047817Y-67424950D01*
X181047816Y-67424949D01*
X181047811Y-67424946D01*
X181047807Y-67424944D01*
X180962872Y-67381668D01*
X180858412Y-67328443D01*
X180858409Y-67328442D01*
X180858403Y-67328439D01*
X180656253Y-67262756D01*
X180656237Y-67262752D01*
X180446287Y-67229500D01*
X180233713Y-67229500D01*
X180023762Y-67262752D01*
X180023746Y-67262756D01*
X179821596Y-67328439D01*
X179821588Y-67328443D01*
X179632192Y-67424944D01*
X179632182Y-67424950D01*
X179460205Y-67549898D01*
X179422846Y-67587257D01*
X179309145Y-67672373D01*
X179176070Y-67722007D01*
X179034402Y-67732140D01*
X178895617Y-67701949D01*
X178770960Y-67633881D01*
X178717154Y-67587257D01*
X178679799Y-67549902D01*
X178679794Y-67549898D01*
X178679792Y-67549896D01*
X178507816Y-67424949D01*
X178507811Y-67424946D01*
X178507807Y-67424944D01*
X178422872Y-67381668D01*
X178318412Y-67328443D01*
X178318409Y-67328442D01*
X178318403Y-67328439D01*
X178116253Y-67262756D01*
X178116237Y-67262752D01*
X177906287Y-67229500D01*
X177693713Y-67229500D01*
X177483762Y-67262752D01*
X177483746Y-67262756D01*
X177281596Y-67328439D01*
X177281588Y-67328443D01*
X177092192Y-67424944D01*
X177092182Y-67424950D01*
X176920205Y-67549898D01*
X176882846Y-67587257D01*
X176769145Y-67672373D01*
X176636070Y-67722007D01*
X176494402Y-67732140D01*
X176355617Y-67701949D01*
X176230960Y-67633881D01*
X176177154Y-67587257D01*
X176139799Y-67549902D01*
X176139794Y-67549898D01*
X176139792Y-67549896D01*
X175967816Y-67424949D01*
X175967811Y-67424946D01*
X175967807Y-67424944D01*
X175882872Y-67381668D01*
X175778412Y-67328443D01*
X175778409Y-67328442D01*
X175778403Y-67328439D01*
X175576253Y-67262756D01*
X175576237Y-67262752D01*
X175366287Y-67229500D01*
X175153713Y-67229500D01*
X174943762Y-67262752D01*
X174943746Y-67262756D01*
X174741596Y-67328439D01*
X174741588Y-67328443D01*
X174552192Y-67424944D01*
X174552182Y-67424950D01*
X174380205Y-67549898D01*
X174342846Y-67587257D01*
X174229145Y-67672373D01*
X174096070Y-67722007D01*
X173954402Y-67732140D01*
X173815617Y-67701949D01*
X173690960Y-67633881D01*
X173637154Y-67587257D01*
X173599799Y-67549902D01*
X173599794Y-67549898D01*
X173599792Y-67549896D01*
X173427816Y-67424949D01*
X173427811Y-67424946D01*
X173427807Y-67424944D01*
X173342872Y-67381668D01*
X173238412Y-67328443D01*
X173238409Y-67328442D01*
X173238403Y-67328439D01*
X173036253Y-67262756D01*
X173036237Y-67262752D01*
X172826287Y-67229500D01*
X172613713Y-67229500D01*
X172403762Y-67262752D01*
X172403746Y-67262756D01*
X172201596Y-67328439D01*
X172201588Y-67328443D01*
X172012192Y-67424944D01*
X172012182Y-67424950D01*
X171840205Y-67549898D01*
X171802846Y-67587257D01*
X171689145Y-67672373D01*
X171556070Y-67722007D01*
X171414402Y-67732140D01*
X171275617Y-67701949D01*
X171150960Y-67633881D01*
X171097154Y-67587257D01*
X171059799Y-67549902D01*
X171059794Y-67549898D01*
X171059792Y-67549896D01*
X170887816Y-67424949D01*
X170887811Y-67424946D01*
X170887807Y-67424944D01*
X170802872Y-67381668D01*
X170698412Y-67328443D01*
X170698409Y-67328442D01*
X170698403Y-67328439D01*
X170496253Y-67262756D01*
X170496237Y-67262752D01*
X170286287Y-67229500D01*
X170073713Y-67229500D01*
X169863762Y-67262752D01*
X169863746Y-67262756D01*
X169661596Y-67328439D01*
X169661588Y-67328443D01*
X169472192Y-67424944D01*
X169472182Y-67424950D01*
X169300205Y-67549898D01*
X169149898Y-67700205D01*
X169024950Y-67872182D01*
X169024944Y-67872192D01*
X168928443Y-68061588D01*
X168928439Y-68061596D01*
X168862756Y-68263746D01*
X168862752Y-68263762D01*
X168829500Y-68473712D01*
X168829500Y-68686287D01*
X168862752Y-68896237D01*
X168862756Y-68896253D01*
X168928439Y-69098403D01*
X168928442Y-69098409D01*
X168928443Y-69098412D01*
X169024949Y-69287816D01*
X169149896Y-69459792D01*
X169149898Y-69459794D01*
X169149902Y-69459799D01*
X169300201Y-69610098D01*
X169300205Y-69610101D01*
X169300208Y-69610104D01*
X169472184Y-69735051D01*
X169661588Y-69831557D01*
X169661589Y-69831557D01*
X169679056Y-69840457D01*
X169678132Y-69842269D01*
X169778724Y-69901951D01*
X169875509Y-70005900D01*
X169939087Y-70132906D01*
X169964308Y-70272678D01*
X169949128Y-70413895D01*
X169894779Y-70545115D01*
X169805662Y-70655708D01*
X169688997Y-70736713D01*
X169554236Y-70781570D01*
X169465628Y-70789500D01*
X169182124Y-70789500D01*
X169182119Y-70789501D01*
X169122519Y-70795908D01*
X169122515Y-70795909D01*
X168987673Y-70846202D01*
X168987665Y-70846206D01*
X168872454Y-70932454D01*
X168786206Y-71047665D01*
X168786201Y-71047675D01*
X168735909Y-71182514D01*
X168732704Y-71212322D01*
X168729501Y-71242124D01*
X168729500Y-71242130D01*
X163500500Y-71242130D01*
X163500500Y-60853712D01*
X171369500Y-60853712D01*
X171369500Y-61066287D01*
X171402752Y-61276237D01*
X171402756Y-61276253D01*
X171468439Y-61478403D01*
X171468442Y-61478409D01*
X171468443Y-61478412D01*
X171564949Y-61667816D01*
X171689896Y-61839792D01*
X171689898Y-61839794D01*
X171689902Y-61839799D01*
X171840201Y-61990098D01*
X171840205Y-61990101D01*
X171840208Y-61990104D01*
X172012184Y-62115051D01*
X172201588Y-62211557D01*
X172201593Y-62211558D01*
X172201596Y-62211560D01*
X172403746Y-62277243D01*
X172403753Y-62277244D01*
X172403757Y-62277246D01*
X172403759Y-62277246D01*
X172403762Y-62277247D01*
X172613713Y-62310500D01*
X172826287Y-62310500D01*
X173036237Y-62277247D01*
X173036237Y-62277246D01*
X173036243Y-62277246D01*
X173036249Y-62277243D01*
X173036253Y-62277243D01*
X173238403Y-62211560D01*
X173238403Y-62211559D01*
X173238412Y-62211557D01*
X173427816Y-62115051D01*
X173599792Y-61990104D01*
X173599796Y-61990099D01*
X173599799Y-61990098D01*
X173637154Y-61952743D01*
X173750855Y-61867627D01*
X173883930Y-61817993D01*
X174025598Y-61807860D01*
X174164383Y-61838051D01*
X174289040Y-61906119D01*
X174342846Y-61952743D01*
X174380201Y-61990098D01*
X174380205Y-61990101D01*
X174380208Y-61990104D01*
X174552184Y-62115051D01*
X174741588Y-62211557D01*
X174741593Y-62211558D01*
X174741596Y-62211560D01*
X174943746Y-62277243D01*
X174943753Y-62277244D01*
X174943757Y-62277246D01*
X174943759Y-62277246D01*
X174943762Y-62277247D01*
X175153713Y-62310500D01*
X175366287Y-62310500D01*
X175576237Y-62277247D01*
X175576237Y-62277246D01*
X175576243Y-62277246D01*
X175576249Y-62277243D01*
X175576253Y-62277243D01*
X175778403Y-62211560D01*
X175778403Y-62211559D01*
X175778412Y-62211557D01*
X175967816Y-62115051D01*
X176139792Y-61990104D01*
X176139796Y-61990099D01*
X176139799Y-61990098D01*
X176290098Y-61839799D01*
X176290099Y-61839796D01*
X176290104Y-61839792D01*
X176415051Y-61667816D01*
X176511557Y-61478412D01*
X176550413Y-61358826D01*
X176577243Y-61276253D01*
X176577243Y-61276249D01*
X176577246Y-61276243D01*
X176610500Y-61066287D01*
X176610500Y-60853713D01*
X176577246Y-60643757D01*
X176577244Y-60643753D01*
X176577243Y-60643746D01*
X176511560Y-60441596D01*
X176511558Y-60441593D01*
X176511557Y-60441588D01*
X176415051Y-60252184D01*
X176290104Y-60080208D01*
X176290101Y-60080205D01*
X176290098Y-60080201D01*
X176139799Y-59929902D01*
X176139794Y-59929898D01*
X176139792Y-59929896D01*
X175967816Y-59804949D01*
X175967811Y-59804946D01*
X175967807Y-59804944D01*
X175882872Y-59761668D01*
X175778412Y-59708443D01*
X175778409Y-59708442D01*
X175778403Y-59708439D01*
X175576253Y-59642756D01*
X175576237Y-59642752D01*
X175366287Y-59609500D01*
X175153713Y-59609500D01*
X174943762Y-59642752D01*
X174943746Y-59642756D01*
X174741596Y-59708439D01*
X174741588Y-59708443D01*
X174552192Y-59804944D01*
X174552182Y-59804950D01*
X174380205Y-59929898D01*
X174342846Y-59967257D01*
X174229145Y-60052373D01*
X174096070Y-60102007D01*
X173954402Y-60112140D01*
X173815617Y-60081949D01*
X173690960Y-60013881D01*
X173637154Y-59967257D01*
X173599799Y-59929902D01*
X173599794Y-59929898D01*
X173599792Y-59929896D01*
X173427816Y-59804949D01*
X173427811Y-59804946D01*
X173427807Y-59804944D01*
X173342872Y-59761668D01*
X173238412Y-59708443D01*
X173238409Y-59708442D01*
X173238403Y-59708439D01*
X173036253Y-59642756D01*
X173036237Y-59642752D01*
X172826287Y-59609500D01*
X172613713Y-59609500D01*
X172403762Y-59642752D01*
X172403746Y-59642756D01*
X172201596Y-59708439D01*
X172201588Y-59708443D01*
X172012192Y-59804944D01*
X172012182Y-59804950D01*
X171840205Y-59929898D01*
X171689898Y-60080205D01*
X171564950Y-60252182D01*
X171564944Y-60252192D01*
X171468443Y-60441588D01*
X171468439Y-60441596D01*
X171402756Y-60643746D01*
X171402752Y-60643762D01*
X171369500Y-60853712D01*
X163500500Y-60853712D01*
X163500500Y-57015084D01*
X163501410Y-56984957D01*
X163509573Y-56850000D01*
X173157665Y-56850000D01*
X173160494Y-56877696D01*
X173215642Y-57044121D01*
X173307683Y-57193344D01*
X173431654Y-57317315D01*
X173580877Y-57409356D01*
X173650000Y-57432261D01*
X173650000Y-56850000D01*
X173157665Y-56850000D01*
X163509573Y-56850000D01*
X163516902Y-56728825D01*
X163524161Y-56669049D01*
X163567690Y-56431518D01*
X163582109Y-56373019D01*
X163652096Y-56148422D01*
X163653950Y-56142472D01*
X163675310Y-56086150D01*
X163774420Y-55865936D01*
X163802408Y-55812609D01*
X163927346Y-55605936D01*
X163961554Y-55556378D01*
X164110496Y-55366266D01*
X164150434Y-55321187D01*
X164321187Y-55150434D01*
X164366266Y-55110496D01*
X164556378Y-54961554D01*
X164605936Y-54927346D01*
X164812609Y-54802408D01*
X164865936Y-54774420D01*
X165086150Y-54675310D01*
X165142472Y-54653950D01*
X165373019Y-54582109D01*
X165431514Y-54567691D01*
X165669043Y-54524162D01*
X165728829Y-54516902D01*
X165950061Y-54503520D01*
X165984958Y-54501410D01*
X166015085Y-54500500D01*
X166065892Y-54500500D01*
X172676478Y-54500500D01*
X172817063Y-54520713D01*
G37*
%TD.AperFunction*%
%TD*%
M02*
