M48
; DRILL file {KiCad 9.0.0} date 2025-04-12T21:57:35+0300
; FORMAT={-:-/ absolute / metric / decimal}
; #@! TF.CreationDate,2025-04-12T21:57:35+03:00
; #@! TF.GenerationSoftware,Kicad,Pcbnew,9.0.0
; #@! TF.FileFunction,Plated,1,2,PTH
FMAT,2
METRIC
; #@! TA.AperFunction,Plated,PTH,ComponentDrill
T1C0.950
; #@! TA.AperFunction,Plated,PTH,ComponentDrill
T2C1.000
%
G90
G05
T1
X171.5Y-115.57
X174.0Y-115.57
X174.5Y-56.0
X176.5Y-115.57
X177.0Y-56.0
X179.0Y-115.57
X179.5Y-56.0
X181.5Y-115.57
X182.0Y-56.0
X184.0Y-115.57
T2
X166.22Y-95.885
X166.22Y-108.585
X168.76Y-95.885
X168.76Y-108.585
X170.08Y-72.14
X170.18Y-68.58
X170.18Y-78.74
X170.18Y-83.82
X171.3Y-95.885
X171.3Y-108.585
X172.72Y-60.96
X172.72Y-68.58
X172.72Y-83.82
X173.84Y-95.885
X173.84Y-108.585
X175.26Y-60.96
X175.26Y-68.58
X175.26Y-83.82
X176.38Y-95.885
X176.38Y-108.585
X177.8Y-68.58
X177.8Y-83.82
X178.92Y-95.885
X178.92Y-108.585
X180.34Y-68.58
X180.34Y-83.82
X181.46Y-95.885
X181.46Y-108.585
X182.88Y-68.58
X182.88Y-83.82
X184.0Y-95.885
X184.0Y-98.425
X184.0Y-100.965
X184.0Y-108.585
X185.42Y-68.58
X185.42Y-83.82
M30
