%TF.GenerationSoftware,KiCad,Pcbnew,9.0.0*%
%TF.CreationDate,2025-04-12T21:57:35+03:00*%
%TF.ProjectId,kikad,6b696b61-642e-46b6-9963-61645f706362,rev?*%
%TF.SameCoordinates,Original*%
%TF.FileFunction,Drillmap*%
%TF.FilePolarity,Positive*%
%FSLAX45Y45*%
G04 Gerber Fmt 4.5, Leading zero omitted, Abs format (unit mm)*
G04 Created by KiCad (PCBNEW 9.0.0) date 2025-04-12 21:57:35*
%MOMM*%
%LPD*%
G01*
G04 APERTURE LIST*
%ADD10C,0.050000*%
%ADD11C,0.200000*%
%ADD12C,0.100000*%
G04 APERTURE END LIST*
D10*
X19300000Y-5700000D02*
X19300000Y-11500000D01*
X16600000Y-5400000D02*
X19000000Y-5400000D01*
X16300000Y-11500000D02*
X16300000Y-5700000D01*
X19000000Y-11800000D02*
X16600000Y-11800000D01*
X19300000Y-11500000D02*
G75*
G02*
X19000000Y-11800000I-300000J0D01*
G01*
X16600000Y-11800000D02*
G75*
G02*
X16300000Y-11500000I0J300000D01*
G01*
X16300000Y-5700000D02*
G75*
G02*
X16600000Y-5400000I300000J0D01*
G01*
X19000000Y-5400000D02*
G75*
G02*
X19300000Y-5700000I0J-300000D01*
G01*
D11*
D12*
X17102500Y-11509500D02*
X17197500Y-11604500D01*
X17197500Y-11509500D02*
X17102500Y-11604500D01*
X17352500Y-11509500D02*
X17447500Y-11604500D01*
X17447500Y-11509500D02*
X17352500Y-11604500D01*
X17402500Y-5552500D02*
X17497500Y-5647500D01*
X17497500Y-5552500D02*
X17402500Y-5647500D01*
X17602500Y-11509500D02*
X17697500Y-11604500D01*
X17697500Y-11509500D02*
X17602500Y-11604500D01*
X17652500Y-5552500D02*
X17747500Y-5647500D01*
X17747500Y-5552500D02*
X17652500Y-5647500D01*
X17852500Y-11509500D02*
X17947500Y-11604500D01*
X17947500Y-11509500D02*
X17852500Y-11604500D01*
X17902500Y-5552500D02*
X17997500Y-5647500D01*
X17997500Y-5552500D02*
X17902500Y-5647500D01*
X18102500Y-11509500D02*
X18197500Y-11604500D01*
X18197500Y-11509500D02*
X18102500Y-11604500D01*
X18152500Y-5552500D02*
X18247500Y-5647500D01*
X18247500Y-5552500D02*
X18152500Y-5647500D01*
X18352500Y-11509500D02*
X18447500Y-11604500D01*
X18447500Y-11509500D02*
X18352500Y-11604500D01*
X16672000Y-9588500D02*
G75*
G02*
X16572000Y-9588500I-50000J0D01*
G01*
X16572000Y-9588500D02*
G75*
G02*
X16672000Y-9588500I50000J0D01*
G01*
X16672000Y-10858500D02*
G75*
G02*
X16572000Y-10858500I-50000J0D01*
G01*
X16572000Y-10858500D02*
G75*
G02*
X16672000Y-10858500I50000J0D01*
G01*
X16926000Y-9588500D02*
G75*
G02*
X16826000Y-9588500I-50000J0D01*
G01*
X16826000Y-9588500D02*
G75*
G02*
X16926000Y-9588500I50000J0D01*
G01*
X16926000Y-10858500D02*
G75*
G02*
X16826000Y-10858500I-50000J0D01*
G01*
X16826000Y-10858500D02*
G75*
G02*
X16926000Y-10858500I50000J0D01*
G01*
X17058000Y-7214000D02*
G75*
G02*
X16958000Y-7214000I-50000J0D01*
G01*
X16958000Y-7214000D02*
G75*
G02*
X17058000Y-7214000I50000J0D01*
G01*
X17068000Y-6858000D02*
G75*
G02*
X16968000Y-6858000I-50000J0D01*
G01*
X16968000Y-6858000D02*
G75*
G02*
X17068000Y-6858000I50000J0D01*
G01*
X17068000Y-7874000D02*
G75*
G02*
X16968000Y-7874000I-50000J0D01*
G01*
X16968000Y-7874000D02*
G75*
G02*
X17068000Y-7874000I50000J0D01*
G01*
X17068000Y-8382000D02*
G75*
G02*
X16968000Y-8382000I-50000J0D01*
G01*
X16968000Y-8382000D02*
G75*
G02*
X17068000Y-8382000I50000J0D01*
G01*
X17180000Y-9588500D02*
G75*
G02*
X17080000Y-9588500I-50000J0D01*
G01*
X17080000Y-9588500D02*
G75*
G02*
X17180000Y-9588500I50000J0D01*
G01*
X17180000Y-10858500D02*
G75*
G02*
X17080000Y-10858500I-50000J0D01*
G01*
X17080000Y-10858500D02*
G75*
G02*
X17180000Y-10858500I50000J0D01*
G01*
X17322000Y-6096000D02*
G75*
G02*
X17222000Y-6096000I-50000J0D01*
G01*
X17222000Y-6096000D02*
G75*
G02*
X17322000Y-6096000I50000J0D01*
G01*
X17322000Y-6858000D02*
G75*
G02*
X17222000Y-6858000I-50000J0D01*
G01*
X17222000Y-6858000D02*
G75*
G02*
X17322000Y-6858000I50000J0D01*
G01*
X17322000Y-8382000D02*
G75*
G02*
X17222000Y-8382000I-50000J0D01*
G01*
X17222000Y-8382000D02*
G75*
G02*
X17322000Y-8382000I50000J0D01*
G01*
X17434000Y-9588500D02*
G75*
G02*
X17334000Y-9588500I-50000J0D01*
G01*
X17334000Y-9588500D02*
G75*
G02*
X17434000Y-9588500I50000J0D01*
G01*
X17434000Y-10858500D02*
G75*
G02*
X17334000Y-10858500I-50000J0D01*
G01*
X17334000Y-10858500D02*
G75*
G02*
X17434000Y-10858500I50000J0D01*
G01*
X17576000Y-6096000D02*
G75*
G02*
X17476000Y-6096000I-50000J0D01*
G01*
X17476000Y-6096000D02*
G75*
G02*
X17576000Y-6096000I50000J0D01*
G01*
X17576000Y-6858000D02*
G75*
G02*
X17476000Y-6858000I-50000J0D01*
G01*
X17476000Y-6858000D02*
G75*
G02*
X17576000Y-6858000I50000J0D01*
G01*
X17576000Y-8382000D02*
G75*
G02*
X17476000Y-8382000I-50000J0D01*
G01*
X17476000Y-8382000D02*
G75*
G02*
X17576000Y-8382000I50000J0D01*
G01*
X17688000Y-9588500D02*
G75*
G02*
X17588000Y-9588500I-50000J0D01*
G01*
X17588000Y-9588500D02*
G75*
G02*
X17688000Y-9588500I50000J0D01*
G01*
X17688000Y-10858500D02*
G75*
G02*
X17588000Y-10858500I-50000J0D01*
G01*
X17588000Y-10858500D02*
G75*
G02*
X17688000Y-10858500I50000J0D01*
G01*
X17830000Y-6858000D02*
G75*
G02*
X17730000Y-6858000I-50000J0D01*
G01*
X17730000Y-6858000D02*
G75*
G02*
X17830000Y-6858000I50000J0D01*
G01*
X17830000Y-8382000D02*
G75*
G02*
X17730000Y-8382000I-50000J0D01*
G01*
X17730000Y-8382000D02*
G75*
G02*
X17830000Y-8382000I50000J0D01*
G01*
X17942000Y-9588500D02*
G75*
G02*
X17842000Y-9588500I-50000J0D01*
G01*
X17842000Y-9588500D02*
G75*
G02*
X17942000Y-9588500I50000J0D01*
G01*
X17942000Y-10858500D02*
G75*
G02*
X17842000Y-10858500I-50000J0D01*
G01*
X17842000Y-10858500D02*
G75*
G02*
X17942000Y-10858500I50000J0D01*
G01*
X18084000Y-6858000D02*
G75*
G02*
X17984000Y-6858000I-50000J0D01*
G01*
X17984000Y-6858000D02*
G75*
G02*
X18084000Y-6858000I50000J0D01*
G01*
X18084000Y-8382000D02*
G75*
G02*
X17984000Y-8382000I-50000J0D01*
G01*
X17984000Y-8382000D02*
G75*
G02*
X18084000Y-8382000I50000J0D01*
G01*
X18196000Y-9588500D02*
G75*
G02*
X18096000Y-9588500I-50000J0D01*
G01*
X18096000Y-9588500D02*
G75*
G02*
X18196000Y-9588500I50000J0D01*
G01*
X18196000Y-10858500D02*
G75*
G02*
X18096000Y-10858500I-50000J0D01*
G01*
X18096000Y-10858500D02*
G75*
G02*
X18196000Y-10858500I50000J0D01*
G01*
X18338000Y-6858000D02*
G75*
G02*
X18238000Y-6858000I-50000J0D01*
G01*
X18238000Y-6858000D02*
G75*
G02*
X18338000Y-6858000I50000J0D01*
G01*
X18338000Y-8382000D02*
G75*
G02*
X18238000Y-8382000I-50000J0D01*
G01*
X18238000Y-8382000D02*
G75*
G02*
X18338000Y-8382000I50000J0D01*
G01*
X18450000Y-9588500D02*
G75*
G02*
X18350000Y-9588500I-50000J0D01*
G01*
X18350000Y-9588500D02*
G75*
G02*
X18450000Y-9588500I50000J0D01*
G01*
X18450000Y-9842500D02*
G75*
G02*
X18350000Y-9842500I-50000J0D01*
G01*
X18350000Y-9842500D02*
G75*
G02*
X18450000Y-9842500I50000J0D01*
G01*
X18450000Y-10096500D02*
G75*
G02*
X18350000Y-10096500I-50000J0D01*
G01*
X18350000Y-10096500D02*
G75*
G02*
X18450000Y-10096500I50000J0D01*
G01*
X18450000Y-10858500D02*
G75*
G02*
X18350000Y-10858500I-50000J0D01*
G01*
X18350000Y-10858500D02*
G75*
G02*
X18450000Y-10858500I50000J0D01*
G01*
X18592000Y-6858000D02*
G75*
G02*
X18492000Y-6858000I-50000J0D01*
G01*
X18492000Y-6858000D02*
G75*
G02*
X18592000Y-6858000I50000J0D01*
G01*
X18592000Y-8382000D02*
G75*
G02*
X18492000Y-8382000I-50000J0D01*
G01*
X18492000Y-8382000D02*
G75*
G02*
X18592000Y-8382000I50000J0D01*
G01*
D11*
X16558277Y-12113984D02*
X16558277Y-11913984D01*
X16558277Y-11913984D02*
X16605896Y-11913984D01*
X16605896Y-11913984D02*
X16634467Y-11923508D01*
X16634467Y-11923508D02*
X16653515Y-11942555D01*
X16653515Y-11942555D02*
X16663039Y-11961603D01*
X16663039Y-11961603D02*
X16672562Y-11999698D01*
X16672562Y-11999698D02*
X16672562Y-12028269D01*
X16672562Y-12028269D02*
X16663039Y-12066365D01*
X16663039Y-12066365D02*
X16653515Y-12085412D01*
X16653515Y-12085412D02*
X16634467Y-12104460D01*
X16634467Y-12104460D02*
X16605896Y-12113984D01*
X16605896Y-12113984D02*
X16558277Y-12113984D01*
X16758277Y-12113984D02*
X16758277Y-11980650D01*
X16758277Y-12018746D02*
X16767801Y-11999698D01*
X16767801Y-11999698D02*
X16777324Y-11990174D01*
X16777324Y-11990174D02*
X16796372Y-11980650D01*
X16796372Y-11980650D02*
X16815420Y-11980650D01*
X16882086Y-12113984D02*
X16882086Y-11980650D01*
X16882086Y-11913984D02*
X16872563Y-11923508D01*
X16872563Y-11923508D02*
X16882086Y-11933031D01*
X16882086Y-11933031D02*
X16891610Y-11923508D01*
X16891610Y-11923508D02*
X16882086Y-11913984D01*
X16882086Y-11913984D02*
X16882086Y-11933031D01*
X17005896Y-12113984D02*
X16986848Y-12104460D01*
X16986848Y-12104460D02*
X16977324Y-12085412D01*
X16977324Y-12085412D02*
X16977324Y-11913984D01*
X17110658Y-12113984D02*
X17091610Y-12104460D01*
X17091610Y-12104460D02*
X17082086Y-12085412D01*
X17082086Y-12085412D02*
X17082086Y-11913984D01*
X17339229Y-12113984D02*
X17339229Y-11913984D01*
X17339229Y-11913984D02*
X17405896Y-12056841D01*
X17405896Y-12056841D02*
X17472563Y-11913984D01*
X17472563Y-11913984D02*
X17472563Y-12113984D01*
X17653515Y-12113984D02*
X17653515Y-12009222D01*
X17653515Y-12009222D02*
X17643991Y-11990174D01*
X17643991Y-11990174D02*
X17624944Y-11980650D01*
X17624944Y-11980650D02*
X17586848Y-11980650D01*
X17586848Y-11980650D02*
X17567801Y-11990174D01*
X17653515Y-12104460D02*
X17634467Y-12113984D01*
X17634467Y-12113984D02*
X17586848Y-12113984D01*
X17586848Y-12113984D02*
X17567801Y-12104460D01*
X17567801Y-12104460D02*
X17558277Y-12085412D01*
X17558277Y-12085412D02*
X17558277Y-12066365D01*
X17558277Y-12066365D02*
X17567801Y-12047317D01*
X17567801Y-12047317D02*
X17586848Y-12037793D01*
X17586848Y-12037793D02*
X17634467Y-12037793D01*
X17634467Y-12037793D02*
X17653515Y-12028269D01*
X17748753Y-11980650D02*
X17748753Y-12180650D01*
X17748753Y-11990174D02*
X17767801Y-11980650D01*
X17767801Y-11980650D02*
X17805896Y-11980650D01*
X17805896Y-11980650D02*
X17824944Y-11990174D01*
X17824944Y-11990174D02*
X17834467Y-11999698D01*
X17834467Y-11999698D02*
X17843991Y-12018746D01*
X17843991Y-12018746D02*
X17843991Y-12075888D01*
X17843991Y-12075888D02*
X17834467Y-12094936D01*
X17834467Y-12094936D02*
X17824944Y-12104460D01*
X17824944Y-12104460D02*
X17805896Y-12113984D01*
X17805896Y-12113984D02*
X17767801Y-12113984D01*
X17767801Y-12113984D02*
X17748753Y-12104460D01*
X17929705Y-12094936D02*
X17939229Y-12104460D01*
X17939229Y-12104460D02*
X17929705Y-12113984D01*
X17929705Y-12113984D02*
X17920182Y-12104460D01*
X17920182Y-12104460D02*
X17929705Y-12094936D01*
X17929705Y-12094936D02*
X17929705Y-12113984D01*
X17929705Y-11990174D02*
X17939229Y-11999698D01*
X17939229Y-11999698D02*
X17929705Y-12009222D01*
X17929705Y-12009222D02*
X17920182Y-11999698D01*
X17920182Y-11999698D02*
X17929705Y-11990174D01*
X17929705Y-11990174D02*
X17929705Y-12009222D01*
D12*
X16202500Y-12395000D02*
X16297500Y-12490000D01*
X16297500Y-12395000D02*
X16202500Y-12490000D01*
D11*
X16596372Y-12333984D02*
X16615420Y-12333984D01*
X16615420Y-12333984D02*
X16634467Y-12343508D01*
X16634467Y-12343508D02*
X16643991Y-12353031D01*
X16643991Y-12353031D02*
X16653515Y-12372079D01*
X16653515Y-12372079D02*
X16663039Y-12410174D01*
X16663039Y-12410174D02*
X16663039Y-12457793D01*
X16663039Y-12457793D02*
X16653515Y-12495888D01*
X16653515Y-12495888D02*
X16643991Y-12514936D01*
X16643991Y-12514936D02*
X16634467Y-12524460D01*
X16634467Y-12524460D02*
X16615420Y-12533984D01*
X16615420Y-12533984D02*
X16596372Y-12533984D01*
X16596372Y-12533984D02*
X16577324Y-12524460D01*
X16577324Y-12524460D02*
X16567801Y-12514936D01*
X16567801Y-12514936D02*
X16558277Y-12495888D01*
X16558277Y-12495888D02*
X16548753Y-12457793D01*
X16548753Y-12457793D02*
X16548753Y-12410174D01*
X16548753Y-12410174D02*
X16558277Y-12372079D01*
X16558277Y-12372079D02*
X16567801Y-12353031D01*
X16567801Y-12353031D02*
X16577324Y-12343508D01*
X16577324Y-12343508D02*
X16596372Y-12333984D01*
X16748753Y-12514936D02*
X16758277Y-12524460D01*
X16758277Y-12524460D02*
X16748753Y-12533984D01*
X16748753Y-12533984D02*
X16739229Y-12524460D01*
X16739229Y-12524460D02*
X16748753Y-12514936D01*
X16748753Y-12514936D02*
X16748753Y-12533984D01*
X16853515Y-12533984D02*
X16891610Y-12533984D01*
X16891610Y-12533984D02*
X16910658Y-12524460D01*
X16910658Y-12524460D02*
X16920182Y-12514936D01*
X16920182Y-12514936D02*
X16939229Y-12486365D01*
X16939229Y-12486365D02*
X16948753Y-12448269D01*
X16948753Y-12448269D02*
X16948753Y-12372079D01*
X16948753Y-12372079D02*
X16939229Y-12353031D01*
X16939229Y-12353031D02*
X16929705Y-12343508D01*
X16929705Y-12343508D02*
X16910658Y-12333984D01*
X16910658Y-12333984D02*
X16872563Y-12333984D01*
X16872563Y-12333984D02*
X16853515Y-12343508D01*
X16853515Y-12343508D02*
X16843991Y-12353031D01*
X16843991Y-12353031D02*
X16834467Y-12372079D01*
X16834467Y-12372079D02*
X16834467Y-12419698D01*
X16834467Y-12419698D02*
X16843991Y-12438746D01*
X16843991Y-12438746D02*
X16853515Y-12448269D01*
X16853515Y-12448269D02*
X16872563Y-12457793D01*
X16872563Y-12457793D02*
X16910658Y-12457793D01*
X16910658Y-12457793D02*
X16929705Y-12448269D01*
X16929705Y-12448269D02*
X16939229Y-12438746D01*
X16939229Y-12438746D02*
X16948753Y-12419698D01*
X17129705Y-12333984D02*
X17034467Y-12333984D01*
X17034467Y-12333984D02*
X17024944Y-12429222D01*
X17024944Y-12429222D02*
X17034467Y-12419698D01*
X17034467Y-12419698D02*
X17053515Y-12410174D01*
X17053515Y-12410174D02*
X17101134Y-12410174D01*
X17101134Y-12410174D02*
X17120182Y-12419698D01*
X17120182Y-12419698D02*
X17129705Y-12429222D01*
X17129705Y-12429222D02*
X17139229Y-12448269D01*
X17139229Y-12448269D02*
X17139229Y-12495888D01*
X17139229Y-12495888D02*
X17129705Y-12514936D01*
X17129705Y-12514936D02*
X17120182Y-12524460D01*
X17120182Y-12524460D02*
X17101134Y-12533984D01*
X17101134Y-12533984D02*
X17053515Y-12533984D01*
X17053515Y-12533984D02*
X17034467Y-12524460D01*
X17034467Y-12524460D02*
X17024944Y-12514936D01*
X17263039Y-12333984D02*
X17282086Y-12333984D01*
X17282086Y-12333984D02*
X17301134Y-12343508D01*
X17301134Y-12343508D02*
X17310658Y-12353031D01*
X17310658Y-12353031D02*
X17320182Y-12372079D01*
X17320182Y-12372079D02*
X17329705Y-12410174D01*
X17329705Y-12410174D02*
X17329705Y-12457793D01*
X17329705Y-12457793D02*
X17320182Y-12495888D01*
X17320182Y-12495888D02*
X17310658Y-12514936D01*
X17310658Y-12514936D02*
X17301134Y-12524460D01*
X17301134Y-12524460D02*
X17282086Y-12533984D01*
X17282086Y-12533984D02*
X17263039Y-12533984D01*
X17263039Y-12533984D02*
X17243991Y-12524460D01*
X17243991Y-12524460D02*
X17234467Y-12514936D01*
X17234467Y-12514936D02*
X17224944Y-12495888D01*
X17224944Y-12495888D02*
X17215420Y-12457793D01*
X17215420Y-12457793D02*
X17215420Y-12410174D01*
X17215420Y-12410174D02*
X17224944Y-12372079D01*
X17224944Y-12372079D02*
X17234467Y-12353031D01*
X17234467Y-12353031D02*
X17243991Y-12343508D01*
X17243991Y-12343508D02*
X17263039Y-12333984D01*
X17415420Y-12533984D02*
X17415420Y-12400650D01*
X17415420Y-12419698D02*
X17424944Y-12410174D01*
X17424944Y-12410174D02*
X17443991Y-12400650D01*
X17443991Y-12400650D02*
X17472563Y-12400650D01*
X17472563Y-12400650D02*
X17491610Y-12410174D01*
X17491610Y-12410174D02*
X17501134Y-12429222D01*
X17501134Y-12429222D02*
X17501134Y-12533984D01*
X17501134Y-12429222D02*
X17510658Y-12410174D01*
X17510658Y-12410174D02*
X17529705Y-12400650D01*
X17529705Y-12400650D02*
X17558277Y-12400650D01*
X17558277Y-12400650D02*
X17577325Y-12410174D01*
X17577325Y-12410174D02*
X17586848Y-12429222D01*
X17586848Y-12429222D02*
X17586848Y-12533984D01*
X17682086Y-12533984D02*
X17682086Y-12400650D01*
X17682086Y-12419698D02*
X17691610Y-12410174D01*
X17691610Y-12410174D02*
X17710658Y-12400650D01*
X17710658Y-12400650D02*
X17739229Y-12400650D01*
X17739229Y-12400650D02*
X17758277Y-12410174D01*
X17758277Y-12410174D02*
X17767801Y-12429222D01*
X17767801Y-12429222D02*
X17767801Y-12533984D01*
X17767801Y-12429222D02*
X17777325Y-12410174D01*
X17777325Y-12410174D02*
X17796372Y-12400650D01*
X17796372Y-12400650D02*
X17824944Y-12400650D01*
X17824944Y-12400650D02*
X17843991Y-12410174D01*
X17843991Y-12410174D02*
X17853515Y-12429222D01*
X17853515Y-12429222D02*
X17853515Y-12533984D01*
X18243991Y-12324460D02*
X18072563Y-12581603D01*
X18501134Y-12333984D02*
X18520182Y-12333984D01*
X18520182Y-12333984D02*
X18539229Y-12343508D01*
X18539229Y-12343508D02*
X18548753Y-12353031D01*
X18548753Y-12353031D02*
X18558277Y-12372079D01*
X18558277Y-12372079D02*
X18567801Y-12410174D01*
X18567801Y-12410174D02*
X18567801Y-12457793D01*
X18567801Y-12457793D02*
X18558277Y-12495888D01*
X18558277Y-12495888D02*
X18548753Y-12514936D01*
X18548753Y-12514936D02*
X18539229Y-12524460D01*
X18539229Y-12524460D02*
X18520182Y-12533984D01*
X18520182Y-12533984D02*
X18501134Y-12533984D01*
X18501134Y-12533984D02*
X18482087Y-12524460D01*
X18482087Y-12524460D02*
X18472563Y-12514936D01*
X18472563Y-12514936D02*
X18463039Y-12495888D01*
X18463039Y-12495888D02*
X18453515Y-12457793D01*
X18453515Y-12457793D02*
X18453515Y-12410174D01*
X18453515Y-12410174D02*
X18463039Y-12372079D01*
X18463039Y-12372079D02*
X18472563Y-12353031D01*
X18472563Y-12353031D02*
X18482087Y-12343508D01*
X18482087Y-12343508D02*
X18501134Y-12333984D01*
X18653515Y-12514936D02*
X18663039Y-12524460D01*
X18663039Y-12524460D02*
X18653515Y-12533984D01*
X18653515Y-12533984D02*
X18643991Y-12524460D01*
X18643991Y-12524460D02*
X18653515Y-12514936D01*
X18653515Y-12514936D02*
X18653515Y-12533984D01*
X18786848Y-12333984D02*
X18805896Y-12333984D01*
X18805896Y-12333984D02*
X18824944Y-12343508D01*
X18824944Y-12343508D02*
X18834468Y-12353031D01*
X18834468Y-12353031D02*
X18843991Y-12372079D01*
X18843991Y-12372079D02*
X18853515Y-12410174D01*
X18853515Y-12410174D02*
X18853515Y-12457793D01*
X18853515Y-12457793D02*
X18843991Y-12495888D01*
X18843991Y-12495888D02*
X18834468Y-12514936D01*
X18834468Y-12514936D02*
X18824944Y-12524460D01*
X18824944Y-12524460D02*
X18805896Y-12533984D01*
X18805896Y-12533984D02*
X18786848Y-12533984D01*
X18786848Y-12533984D02*
X18767801Y-12524460D01*
X18767801Y-12524460D02*
X18758277Y-12514936D01*
X18758277Y-12514936D02*
X18748753Y-12495888D01*
X18748753Y-12495888D02*
X18739229Y-12457793D01*
X18739229Y-12457793D02*
X18739229Y-12410174D01*
X18739229Y-12410174D02*
X18748753Y-12372079D01*
X18748753Y-12372079D02*
X18758277Y-12353031D01*
X18758277Y-12353031D02*
X18767801Y-12343508D01*
X18767801Y-12343508D02*
X18786848Y-12333984D01*
X18920182Y-12333984D02*
X19043991Y-12333984D01*
X19043991Y-12333984D02*
X18977325Y-12410174D01*
X18977325Y-12410174D02*
X19005896Y-12410174D01*
X19005896Y-12410174D02*
X19024944Y-12419698D01*
X19024944Y-12419698D02*
X19034468Y-12429222D01*
X19034468Y-12429222D02*
X19043991Y-12448269D01*
X19043991Y-12448269D02*
X19043991Y-12495888D01*
X19043991Y-12495888D02*
X19034468Y-12514936D01*
X19034468Y-12514936D02*
X19024944Y-12524460D01*
X19024944Y-12524460D02*
X19005896Y-12533984D01*
X19005896Y-12533984D02*
X18948753Y-12533984D01*
X18948753Y-12533984D02*
X18929706Y-12524460D01*
X18929706Y-12524460D02*
X18920182Y-12514936D01*
X19110658Y-12333984D02*
X19243991Y-12333984D01*
X19243991Y-12333984D02*
X19158277Y-12533984D01*
X19405896Y-12400650D02*
X19405896Y-12533984D01*
X19358277Y-12324460D02*
X19310658Y-12467317D01*
X19310658Y-12467317D02*
X19434468Y-12467317D01*
X19501134Y-12333984D02*
X19501134Y-12372079D01*
X19577325Y-12333984D02*
X19577325Y-12372079D01*
X19872563Y-12610174D02*
X19863039Y-12600650D01*
X19863039Y-12600650D02*
X19843991Y-12572079D01*
X19843991Y-12572079D02*
X19834468Y-12553031D01*
X19834468Y-12553031D02*
X19824944Y-12524460D01*
X19824944Y-12524460D02*
X19815420Y-12476841D01*
X19815420Y-12476841D02*
X19815420Y-12438746D01*
X19815420Y-12438746D02*
X19824944Y-12391127D01*
X19824944Y-12391127D02*
X19834468Y-12362555D01*
X19834468Y-12362555D02*
X19843991Y-12343508D01*
X19843991Y-12343508D02*
X19863039Y-12314936D01*
X19863039Y-12314936D02*
X19872563Y-12305412D01*
X20053515Y-12533984D02*
X19939230Y-12533984D01*
X19996372Y-12533984D02*
X19996372Y-12333984D01*
X19996372Y-12333984D02*
X19977325Y-12362555D01*
X19977325Y-12362555D02*
X19958277Y-12381603D01*
X19958277Y-12381603D02*
X19939230Y-12391127D01*
X20177325Y-12333984D02*
X20196372Y-12333984D01*
X20196372Y-12333984D02*
X20215420Y-12343508D01*
X20215420Y-12343508D02*
X20224944Y-12353031D01*
X20224944Y-12353031D02*
X20234468Y-12372079D01*
X20234468Y-12372079D02*
X20243991Y-12410174D01*
X20243991Y-12410174D02*
X20243991Y-12457793D01*
X20243991Y-12457793D02*
X20234468Y-12495888D01*
X20234468Y-12495888D02*
X20224944Y-12514936D01*
X20224944Y-12514936D02*
X20215420Y-12524460D01*
X20215420Y-12524460D02*
X20196372Y-12533984D01*
X20196372Y-12533984D02*
X20177325Y-12533984D01*
X20177325Y-12533984D02*
X20158277Y-12524460D01*
X20158277Y-12524460D02*
X20148753Y-12514936D01*
X20148753Y-12514936D02*
X20139230Y-12495888D01*
X20139230Y-12495888D02*
X20129706Y-12457793D01*
X20129706Y-12457793D02*
X20129706Y-12410174D01*
X20129706Y-12410174D02*
X20139230Y-12372079D01*
X20139230Y-12372079D02*
X20148753Y-12353031D01*
X20148753Y-12353031D02*
X20158277Y-12343508D01*
X20158277Y-12343508D02*
X20177325Y-12333984D01*
X20482087Y-12533984D02*
X20482087Y-12333984D01*
X20567801Y-12533984D02*
X20567801Y-12429222D01*
X20567801Y-12429222D02*
X20558277Y-12410174D01*
X20558277Y-12410174D02*
X20539230Y-12400650D01*
X20539230Y-12400650D02*
X20510658Y-12400650D01*
X20510658Y-12400650D02*
X20491611Y-12410174D01*
X20491611Y-12410174D02*
X20482087Y-12419698D01*
X20691611Y-12533984D02*
X20672563Y-12524460D01*
X20672563Y-12524460D02*
X20663039Y-12514936D01*
X20663039Y-12514936D02*
X20653515Y-12495888D01*
X20653515Y-12495888D02*
X20653515Y-12438746D01*
X20653515Y-12438746D02*
X20663039Y-12419698D01*
X20663039Y-12419698D02*
X20672563Y-12410174D01*
X20672563Y-12410174D02*
X20691611Y-12400650D01*
X20691611Y-12400650D02*
X20720182Y-12400650D01*
X20720182Y-12400650D02*
X20739230Y-12410174D01*
X20739230Y-12410174D02*
X20748753Y-12419698D01*
X20748753Y-12419698D02*
X20758277Y-12438746D01*
X20758277Y-12438746D02*
X20758277Y-12495888D01*
X20758277Y-12495888D02*
X20748753Y-12514936D01*
X20748753Y-12514936D02*
X20739230Y-12524460D01*
X20739230Y-12524460D02*
X20720182Y-12533984D01*
X20720182Y-12533984D02*
X20691611Y-12533984D01*
X20872563Y-12533984D02*
X20853515Y-12524460D01*
X20853515Y-12524460D02*
X20843992Y-12505412D01*
X20843992Y-12505412D02*
X20843992Y-12333984D01*
X21024944Y-12524460D02*
X21005896Y-12533984D01*
X21005896Y-12533984D02*
X20967801Y-12533984D01*
X20967801Y-12533984D02*
X20948753Y-12524460D01*
X20948753Y-12524460D02*
X20939230Y-12505412D01*
X20939230Y-12505412D02*
X20939230Y-12429222D01*
X20939230Y-12429222D02*
X20948753Y-12410174D01*
X20948753Y-12410174D02*
X20967801Y-12400650D01*
X20967801Y-12400650D02*
X21005896Y-12400650D01*
X21005896Y-12400650D02*
X21024944Y-12410174D01*
X21024944Y-12410174D02*
X21034468Y-12429222D01*
X21034468Y-12429222D02*
X21034468Y-12448269D01*
X21034468Y-12448269D02*
X20939230Y-12467317D01*
X21110658Y-12524460D02*
X21129706Y-12533984D01*
X21129706Y-12533984D02*
X21167801Y-12533984D01*
X21167801Y-12533984D02*
X21186849Y-12524460D01*
X21186849Y-12524460D02*
X21196373Y-12505412D01*
X21196373Y-12505412D02*
X21196373Y-12495888D01*
X21196373Y-12495888D02*
X21186849Y-12476841D01*
X21186849Y-12476841D02*
X21167801Y-12467317D01*
X21167801Y-12467317D02*
X21139230Y-12467317D01*
X21139230Y-12467317D02*
X21120182Y-12457793D01*
X21120182Y-12457793D02*
X21110658Y-12438746D01*
X21110658Y-12438746D02*
X21110658Y-12429222D01*
X21110658Y-12429222D02*
X21120182Y-12410174D01*
X21120182Y-12410174D02*
X21139230Y-12400650D01*
X21139230Y-12400650D02*
X21167801Y-12400650D01*
X21167801Y-12400650D02*
X21186849Y-12410174D01*
X21263039Y-12610174D02*
X21272563Y-12600650D01*
X21272563Y-12600650D02*
X21291611Y-12572079D01*
X21291611Y-12572079D02*
X21301134Y-12553031D01*
X21301134Y-12553031D02*
X21310658Y-12524460D01*
X21310658Y-12524460D02*
X21320182Y-12476841D01*
X21320182Y-12476841D02*
X21320182Y-12438746D01*
X21320182Y-12438746D02*
X21310658Y-12391127D01*
X21310658Y-12391127D02*
X21301134Y-12362555D01*
X21301134Y-12362555D02*
X21291611Y-12343508D01*
X21291611Y-12343508D02*
X21272563Y-12314936D01*
X21272563Y-12314936D02*
X21263039Y-12305412D01*
D12*
X16297500Y-12706500D02*
G75*
G02*
X16197500Y-12706500I-50000J0D01*
G01*
X16197500Y-12706500D02*
G75*
G02*
X16297500Y-12706500I50000J0D01*
G01*
D11*
X16663039Y-12797984D02*
X16548753Y-12797984D01*
X16605896Y-12797984D02*
X16605896Y-12597984D01*
X16605896Y-12597984D02*
X16586848Y-12626555D01*
X16586848Y-12626555D02*
X16567801Y-12645603D01*
X16567801Y-12645603D02*
X16548753Y-12655127D01*
X16748753Y-12778936D02*
X16758277Y-12788460D01*
X16758277Y-12788460D02*
X16748753Y-12797984D01*
X16748753Y-12797984D02*
X16739229Y-12788460D01*
X16739229Y-12788460D02*
X16748753Y-12778936D01*
X16748753Y-12778936D02*
X16748753Y-12797984D01*
X16882086Y-12597984D02*
X16901134Y-12597984D01*
X16901134Y-12597984D02*
X16920182Y-12607508D01*
X16920182Y-12607508D02*
X16929705Y-12617031D01*
X16929705Y-12617031D02*
X16939229Y-12636079D01*
X16939229Y-12636079D02*
X16948753Y-12674174D01*
X16948753Y-12674174D02*
X16948753Y-12721793D01*
X16948753Y-12721793D02*
X16939229Y-12759888D01*
X16939229Y-12759888D02*
X16929705Y-12778936D01*
X16929705Y-12778936D02*
X16920182Y-12788460D01*
X16920182Y-12788460D02*
X16901134Y-12797984D01*
X16901134Y-12797984D02*
X16882086Y-12797984D01*
X16882086Y-12797984D02*
X16863039Y-12788460D01*
X16863039Y-12788460D02*
X16853515Y-12778936D01*
X16853515Y-12778936D02*
X16843991Y-12759888D01*
X16843991Y-12759888D02*
X16834467Y-12721793D01*
X16834467Y-12721793D02*
X16834467Y-12674174D01*
X16834467Y-12674174D02*
X16843991Y-12636079D01*
X16843991Y-12636079D02*
X16853515Y-12617031D01*
X16853515Y-12617031D02*
X16863039Y-12607508D01*
X16863039Y-12607508D02*
X16882086Y-12597984D01*
X17072563Y-12597984D02*
X17091610Y-12597984D01*
X17091610Y-12597984D02*
X17110658Y-12607508D01*
X17110658Y-12607508D02*
X17120182Y-12617031D01*
X17120182Y-12617031D02*
X17129705Y-12636079D01*
X17129705Y-12636079D02*
X17139229Y-12674174D01*
X17139229Y-12674174D02*
X17139229Y-12721793D01*
X17139229Y-12721793D02*
X17129705Y-12759888D01*
X17129705Y-12759888D02*
X17120182Y-12778936D01*
X17120182Y-12778936D02*
X17110658Y-12788460D01*
X17110658Y-12788460D02*
X17091610Y-12797984D01*
X17091610Y-12797984D02*
X17072563Y-12797984D01*
X17072563Y-12797984D02*
X17053515Y-12788460D01*
X17053515Y-12788460D02*
X17043991Y-12778936D01*
X17043991Y-12778936D02*
X17034467Y-12759888D01*
X17034467Y-12759888D02*
X17024944Y-12721793D01*
X17024944Y-12721793D02*
X17024944Y-12674174D01*
X17024944Y-12674174D02*
X17034467Y-12636079D01*
X17034467Y-12636079D02*
X17043991Y-12617031D01*
X17043991Y-12617031D02*
X17053515Y-12607508D01*
X17053515Y-12607508D02*
X17072563Y-12597984D01*
X17263039Y-12597984D02*
X17282086Y-12597984D01*
X17282086Y-12597984D02*
X17301134Y-12607508D01*
X17301134Y-12607508D02*
X17310658Y-12617031D01*
X17310658Y-12617031D02*
X17320182Y-12636079D01*
X17320182Y-12636079D02*
X17329705Y-12674174D01*
X17329705Y-12674174D02*
X17329705Y-12721793D01*
X17329705Y-12721793D02*
X17320182Y-12759888D01*
X17320182Y-12759888D02*
X17310658Y-12778936D01*
X17310658Y-12778936D02*
X17301134Y-12788460D01*
X17301134Y-12788460D02*
X17282086Y-12797984D01*
X17282086Y-12797984D02*
X17263039Y-12797984D01*
X17263039Y-12797984D02*
X17243991Y-12788460D01*
X17243991Y-12788460D02*
X17234467Y-12778936D01*
X17234467Y-12778936D02*
X17224944Y-12759888D01*
X17224944Y-12759888D02*
X17215420Y-12721793D01*
X17215420Y-12721793D02*
X17215420Y-12674174D01*
X17215420Y-12674174D02*
X17224944Y-12636079D01*
X17224944Y-12636079D02*
X17234467Y-12617031D01*
X17234467Y-12617031D02*
X17243991Y-12607508D01*
X17243991Y-12607508D02*
X17263039Y-12597984D01*
X17415420Y-12797984D02*
X17415420Y-12664650D01*
X17415420Y-12683698D02*
X17424944Y-12674174D01*
X17424944Y-12674174D02*
X17443991Y-12664650D01*
X17443991Y-12664650D02*
X17472563Y-12664650D01*
X17472563Y-12664650D02*
X17491610Y-12674174D01*
X17491610Y-12674174D02*
X17501134Y-12693222D01*
X17501134Y-12693222D02*
X17501134Y-12797984D01*
X17501134Y-12693222D02*
X17510658Y-12674174D01*
X17510658Y-12674174D02*
X17529705Y-12664650D01*
X17529705Y-12664650D02*
X17558277Y-12664650D01*
X17558277Y-12664650D02*
X17577325Y-12674174D01*
X17577325Y-12674174D02*
X17586848Y-12693222D01*
X17586848Y-12693222D02*
X17586848Y-12797984D01*
X17682086Y-12797984D02*
X17682086Y-12664650D01*
X17682086Y-12683698D02*
X17691610Y-12674174D01*
X17691610Y-12674174D02*
X17710658Y-12664650D01*
X17710658Y-12664650D02*
X17739229Y-12664650D01*
X17739229Y-12664650D02*
X17758277Y-12674174D01*
X17758277Y-12674174D02*
X17767801Y-12693222D01*
X17767801Y-12693222D02*
X17767801Y-12797984D01*
X17767801Y-12693222D02*
X17777325Y-12674174D01*
X17777325Y-12674174D02*
X17796372Y-12664650D01*
X17796372Y-12664650D02*
X17824944Y-12664650D01*
X17824944Y-12664650D02*
X17843991Y-12674174D01*
X17843991Y-12674174D02*
X17853515Y-12693222D01*
X17853515Y-12693222D02*
X17853515Y-12797984D01*
X18243991Y-12588460D02*
X18072563Y-12845603D01*
X18501134Y-12597984D02*
X18520182Y-12597984D01*
X18520182Y-12597984D02*
X18539229Y-12607508D01*
X18539229Y-12607508D02*
X18548753Y-12617031D01*
X18548753Y-12617031D02*
X18558277Y-12636079D01*
X18558277Y-12636079D02*
X18567801Y-12674174D01*
X18567801Y-12674174D02*
X18567801Y-12721793D01*
X18567801Y-12721793D02*
X18558277Y-12759888D01*
X18558277Y-12759888D02*
X18548753Y-12778936D01*
X18548753Y-12778936D02*
X18539229Y-12788460D01*
X18539229Y-12788460D02*
X18520182Y-12797984D01*
X18520182Y-12797984D02*
X18501134Y-12797984D01*
X18501134Y-12797984D02*
X18482087Y-12788460D01*
X18482087Y-12788460D02*
X18472563Y-12778936D01*
X18472563Y-12778936D02*
X18463039Y-12759888D01*
X18463039Y-12759888D02*
X18453515Y-12721793D01*
X18453515Y-12721793D02*
X18453515Y-12674174D01*
X18453515Y-12674174D02*
X18463039Y-12636079D01*
X18463039Y-12636079D02*
X18472563Y-12617031D01*
X18472563Y-12617031D02*
X18482087Y-12607508D01*
X18482087Y-12607508D02*
X18501134Y-12597984D01*
X18653515Y-12778936D02*
X18663039Y-12788460D01*
X18663039Y-12788460D02*
X18653515Y-12797984D01*
X18653515Y-12797984D02*
X18643991Y-12788460D01*
X18643991Y-12788460D02*
X18653515Y-12778936D01*
X18653515Y-12778936D02*
X18653515Y-12797984D01*
X18786848Y-12597984D02*
X18805896Y-12597984D01*
X18805896Y-12597984D02*
X18824944Y-12607508D01*
X18824944Y-12607508D02*
X18834468Y-12617031D01*
X18834468Y-12617031D02*
X18843991Y-12636079D01*
X18843991Y-12636079D02*
X18853515Y-12674174D01*
X18853515Y-12674174D02*
X18853515Y-12721793D01*
X18853515Y-12721793D02*
X18843991Y-12759888D01*
X18843991Y-12759888D02*
X18834468Y-12778936D01*
X18834468Y-12778936D02*
X18824944Y-12788460D01*
X18824944Y-12788460D02*
X18805896Y-12797984D01*
X18805896Y-12797984D02*
X18786848Y-12797984D01*
X18786848Y-12797984D02*
X18767801Y-12788460D01*
X18767801Y-12788460D02*
X18758277Y-12778936D01*
X18758277Y-12778936D02*
X18748753Y-12759888D01*
X18748753Y-12759888D02*
X18739229Y-12721793D01*
X18739229Y-12721793D02*
X18739229Y-12674174D01*
X18739229Y-12674174D02*
X18748753Y-12636079D01*
X18748753Y-12636079D02*
X18758277Y-12617031D01*
X18758277Y-12617031D02*
X18767801Y-12607508D01*
X18767801Y-12607508D02*
X18786848Y-12597984D01*
X18920182Y-12597984D02*
X19043991Y-12597984D01*
X19043991Y-12597984D02*
X18977325Y-12674174D01*
X18977325Y-12674174D02*
X19005896Y-12674174D01*
X19005896Y-12674174D02*
X19024944Y-12683698D01*
X19024944Y-12683698D02*
X19034468Y-12693222D01*
X19034468Y-12693222D02*
X19043991Y-12712269D01*
X19043991Y-12712269D02*
X19043991Y-12759888D01*
X19043991Y-12759888D02*
X19034468Y-12778936D01*
X19034468Y-12778936D02*
X19024944Y-12788460D01*
X19024944Y-12788460D02*
X19005896Y-12797984D01*
X19005896Y-12797984D02*
X18948753Y-12797984D01*
X18948753Y-12797984D02*
X18929706Y-12788460D01*
X18929706Y-12788460D02*
X18920182Y-12778936D01*
X19139229Y-12797984D02*
X19177325Y-12797984D01*
X19177325Y-12797984D02*
X19196372Y-12788460D01*
X19196372Y-12788460D02*
X19205896Y-12778936D01*
X19205896Y-12778936D02*
X19224944Y-12750365D01*
X19224944Y-12750365D02*
X19234468Y-12712269D01*
X19234468Y-12712269D02*
X19234468Y-12636079D01*
X19234468Y-12636079D02*
X19224944Y-12617031D01*
X19224944Y-12617031D02*
X19215420Y-12607508D01*
X19215420Y-12607508D02*
X19196372Y-12597984D01*
X19196372Y-12597984D02*
X19158277Y-12597984D01*
X19158277Y-12597984D02*
X19139229Y-12607508D01*
X19139229Y-12607508D02*
X19129706Y-12617031D01*
X19129706Y-12617031D02*
X19120182Y-12636079D01*
X19120182Y-12636079D02*
X19120182Y-12683698D01*
X19120182Y-12683698D02*
X19129706Y-12702746D01*
X19129706Y-12702746D02*
X19139229Y-12712269D01*
X19139229Y-12712269D02*
X19158277Y-12721793D01*
X19158277Y-12721793D02*
X19196372Y-12721793D01*
X19196372Y-12721793D02*
X19215420Y-12712269D01*
X19215420Y-12712269D02*
X19224944Y-12702746D01*
X19224944Y-12702746D02*
X19234468Y-12683698D01*
X19405896Y-12664650D02*
X19405896Y-12797984D01*
X19358277Y-12588460D02*
X19310658Y-12731317D01*
X19310658Y-12731317D02*
X19434468Y-12731317D01*
X19501134Y-12597984D02*
X19501134Y-12636079D01*
X19577325Y-12597984D02*
X19577325Y-12636079D01*
X19872563Y-12874174D02*
X19863039Y-12864650D01*
X19863039Y-12864650D02*
X19843991Y-12836079D01*
X19843991Y-12836079D02*
X19834468Y-12817031D01*
X19834468Y-12817031D02*
X19824944Y-12788460D01*
X19824944Y-12788460D02*
X19815420Y-12740841D01*
X19815420Y-12740841D02*
X19815420Y-12702746D01*
X19815420Y-12702746D02*
X19824944Y-12655127D01*
X19824944Y-12655127D02*
X19834468Y-12626555D01*
X19834468Y-12626555D02*
X19843991Y-12607508D01*
X19843991Y-12607508D02*
X19863039Y-12578936D01*
X19863039Y-12578936D02*
X19872563Y-12569412D01*
X19929706Y-12597984D02*
X20053515Y-12597984D01*
X20053515Y-12597984D02*
X19986849Y-12674174D01*
X19986849Y-12674174D02*
X20015420Y-12674174D01*
X20015420Y-12674174D02*
X20034468Y-12683698D01*
X20034468Y-12683698D02*
X20043991Y-12693222D01*
X20043991Y-12693222D02*
X20053515Y-12712269D01*
X20053515Y-12712269D02*
X20053515Y-12759888D01*
X20053515Y-12759888D02*
X20043991Y-12778936D01*
X20043991Y-12778936D02*
X20034468Y-12788460D01*
X20034468Y-12788460D02*
X20015420Y-12797984D01*
X20015420Y-12797984D02*
X19958277Y-12797984D01*
X19958277Y-12797984D02*
X19939230Y-12788460D01*
X19939230Y-12788460D02*
X19929706Y-12778936D01*
X20224944Y-12597984D02*
X20186849Y-12597984D01*
X20186849Y-12597984D02*
X20167801Y-12607508D01*
X20167801Y-12607508D02*
X20158277Y-12617031D01*
X20158277Y-12617031D02*
X20139230Y-12645603D01*
X20139230Y-12645603D02*
X20129706Y-12683698D01*
X20129706Y-12683698D02*
X20129706Y-12759888D01*
X20129706Y-12759888D02*
X20139230Y-12778936D01*
X20139230Y-12778936D02*
X20148753Y-12788460D01*
X20148753Y-12788460D02*
X20167801Y-12797984D01*
X20167801Y-12797984D02*
X20205896Y-12797984D01*
X20205896Y-12797984D02*
X20224944Y-12788460D01*
X20224944Y-12788460D02*
X20234468Y-12778936D01*
X20234468Y-12778936D02*
X20243991Y-12759888D01*
X20243991Y-12759888D02*
X20243991Y-12712269D01*
X20243991Y-12712269D02*
X20234468Y-12693222D01*
X20234468Y-12693222D02*
X20224944Y-12683698D01*
X20224944Y-12683698D02*
X20205896Y-12674174D01*
X20205896Y-12674174D02*
X20167801Y-12674174D01*
X20167801Y-12674174D02*
X20148753Y-12683698D01*
X20148753Y-12683698D02*
X20139230Y-12693222D01*
X20139230Y-12693222D02*
X20129706Y-12712269D01*
X20482087Y-12797984D02*
X20482087Y-12597984D01*
X20567801Y-12797984D02*
X20567801Y-12693222D01*
X20567801Y-12693222D02*
X20558277Y-12674174D01*
X20558277Y-12674174D02*
X20539230Y-12664650D01*
X20539230Y-12664650D02*
X20510658Y-12664650D01*
X20510658Y-12664650D02*
X20491611Y-12674174D01*
X20491611Y-12674174D02*
X20482087Y-12683698D01*
X20691611Y-12797984D02*
X20672563Y-12788460D01*
X20672563Y-12788460D02*
X20663039Y-12778936D01*
X20663039Y-12778936D02*
X20653515Y-12759888D01*
X20653515Y-12759888D02*
X20653515Y-12702746D01*
X20653515Y-12702746D02*
X20663039Y-12683698D01*
X20663039Y-12683698D02*
X20672563Y-12674174D01*
X20672563Y-12674174D02*
X20691611Y-12664650D01*
X20691611Y-12664650D02*
X20720182Y-12664650D01*
X20720182Y-12664650D02*
X20739230Y-12674174D01*
X20739230Y-12674174D02*
X20748753Y-12683698D01*
X20748753Y-12683698D02*
X20758277Y-12702746D01*
X20758277Y-12702746D02*
X20758277Y-12759888D01*
X20758277Y-12759888D02*
X20748753Y-12778936D01*
X20748753Y-12778936D02*
X20739230Y-12788460D01*
X20739230Y-12788460D02*
X20720182Y-12797984D01*
X20720182Y-12797984D02*
X20691611Y-12797984D01*
X20872563Y-12797984D02*
X20853515Y-12788460D01*
X20853515Y-12788460D02*
X20843992Y-12769412D01*
X20843992Y-12769412D02*
X20843992Y-12597984D01*
X21024944Y-12788460D02*
X21005896Y-12797984D01*
X21005896Y-12797984D02*
X20967801Y-12797984D01*
X20967801Y-12797984D02*
X20948753Y-12788460D01*
X20948753Y-12788460D02*
X20939230Y-12769412D01*
X20939230Y-12769412D02*
X20939230Y-12693222D01*
X20939230Y-12693222D02*
X20948753Y-12674174D01*
X20948753Y-12674174D02*
X20967801Y-12664650D01*
X20967801Y-12664650D02*
X21005896Y-12664650D01*
X21005896Y-12664650D02*
X21024944Y-12674174D01*
X21024944Y-12674174D02*
X21034468Y-12693222D01*
X21034468Y-12693222D02*
X21034468Y-12712269D01*
X21034468Y-12712269D02*
X20939230Y-12731317D01*
X21110658Y-12788460D02*
X21129706Y-12797984D01*
X21129706Y-12797984D02*
X21167801Y-12797984D01*
X21167801Y-12797984D02*
X21186849Y-12788460D01*
X21186849Y-12788460D02*
X21196373Y-12769412D01*
X21196373Y-12769412D02*
X21196373Y-12759888D01*
X21196373Y-12759888D02*
X21186849Y-12740841D01*
X21186849Y-12740841D02*
X21167801Y-12731317D01*
X21167801Y-12731317D02*
X21139230Y-12731317D01*
X21139230Y-12731317D02*
X21120182Y-12721793D01*
X21120182Y-12721793D02*
X21110658Y-12702746D01*
X21110658Y-12702746D02*
X21110658Y-12693222D01*
X21110658Y-12693222D02*
X21120182Y-12674174D01*
X21120182Y-12674174D02*
X21139230Y-12664650D01*
X21139230Y-12664650D02*
X21167801Y-12664650D01*
X21167801Y-12664650D02*
X21186849Y-12674174D01*
X21263039Y-12874174D02*
X21272563Y-12864650D01*
X21272563Y-12864650D02*
X21291611Y-12836079D01*
X21291611Y-12836079D02*
X21301134Y-12817031D01*
X21301134Y-12817031D02*
X21310658Y-12788460D01*
X21310658Y-12788460D02*
X21320182Y-12740841D01*
X21320182Y-12740841D02*
X21320182Y-12702746D01*
X21320182Y-12702746D02*
X21310658Y-12655127D01*
X21310658Y-12655127D02*
X21301134Y-12626555D01*
X21301134Y-12626555D02*
X21291611Y-12607508D01*
X21291611Y-12607508D02*
X21272563Y-12578936D01*
X21272563Y-12578936D02*
X21263039Y-12569412D01*
M02*
